<svg xmlns="http://www.w3.org/2000/svg" width="3000" height="3000" viewBox="0 0 3000 3000"><defs><style>.cls-1{fill:#ffd894;}.cls-2{fill:#b6ffd3;}.cls-3{fill:#cadeff;}.cls-4{fill:#ff83a6;}.cls-5{fill:#b994ff;}.cls-6{fill:#ff8080;}.cls-7{fill:#8fafff;}.cls-8{fill:#ffb3c5;}.cls-9{fill:#003472;}</style></defs><title>waiting</title><g id="fill"><path class="cls-1" d="M1236.22,2536.67l-.74-1.13a207.6,207.6,0,0,0-15.18-20.63,3.62,3.62,0,0,0-2.74-1.29,4.13,4.13,0,0,0-2.76,1.24,5.35,5.35,0,0,1-.54.54,7.22,7.22,0,0,1-9.48.28,190.56,190.56,0,0,1-15.34-14.52c-2.66-2.71-5.22-5.33-7.77-7.73a97.27,97.27,0,0,0-10.93-9.3c-3.5-2.48-7.82-5.22-12.45-7.89-5.11-3.05-10.36-5.89-15.91-8.89-3.75-2-7.56-4.09-11.38-6.24-9.42-5.46-18.08-10.29-27.25-15.2a588.61,588.61,0,0,0-56.14-25.94c-5.58-2.21-11.3-4.58-17-6.94-4.08-1.69-8.14-3.38-12.1-5-5.52-2.24-10.07-4-14.29-5.53-2.36-.88-4.75-1.69-7.13-2.48s-5.24-1.66-7.92-2.65a91.62,91.62,0,0,1-16.27-7.71,53.6,53.6,0,0,1-14.73-13.15c-7-9.45-11.1-20.83-12.46-34.79-.28-2.94-.42-5.92-.42-8.81l.61-55.41c.19-11.32.28-20.78-.52-30.75-.12-1.6-.25-3.26-.39-5-.29-3.56-.59-7.31-.76-11.05-.24-5.24-.32-10.72-.25-16.31a249.13,249.13,0,0,1,2.14-32.4c.64-5,1.3-10.09,1.68-15.28.37-4.7.61-9.73.73-15.45a7.19,7.19,0,0,1,2.25-5.07,7.48,7.48,0,0,1,5.16-2,8,8,0,0,1,2.41.47,3.62,3.62,0,0,0,4.86-3.46c-.49-26.91.89-55,14.27-78.41,5.41-9.43,12.88-18,22.86-26.1l0,0a4.33,4.33,0,0,0,1.17-1.45c.09-.19.19-.39.34-.65,11.44-20.23,31.32-33.26,49.26-43.34a197.19,197.19,0,0,0,24.85-16.15l.34-.25a222.39,222.39,0,0,1,27.62-17.9,282.74,282.74,0,0,1,29.38-14.69,260.59,260.59,0,0,0,26.89-13.43c13.62-7.68,27-18.18,40.84-32.12,5.46-5.49,10.58-12.33,16.11-21.5a3.61,3.61,0,0,0-.79-4.65l-.8-.67c-10.29-8.53-20.61-17.09-30.9-25.58a3.62,3.62,0,0,0-5.89,2.37,14,14,0,0,1-.92,3.46,20.36,20.36,0,0,1-3.77,6.22,22.73,22.73,0,0,1-2.28,2.24l-6.48,5.51c-6.62,5.6-13.86,11.57-21.91,17.3-4.53,3.2-8.4,5.7-12.15,7.88-2.07,1.19-4.39,2.46-6.42,3.47l-6.34,3.15c-15.53,7.37-34.33,15-56,15.73-18.05.52-35-4-49.85-7.86l-6.3-1.63-.87-.23c-8.37-2.16-17-4.4-25.78-7.27-4.62-1.49-9.16-3.15-13.49-4.92s-8.92-4-13.13-6.23c-7.76-4.06-15-8.45-22.06-12.7l-13.29-7.93c-3.83-2.23-7.41-4.16-11.86-6.54s-9-4.85-13.42-7.19a3.64,3.64,0,0,0-2.34-.36c-.38-.34-.77-.67-1.16-1a16.22,16.22,0,0,0-6.77-3.38,3.61,3.61,0,0,0-1.66-1.4l-59.56-24.83a3.57,3.57,0,0,0-.46-.16,98.27,98.27,0,0,0-10-2.16,174.15,174.15,0,0,0-28.19-2.51,3.61,3.61,0,0,0-1.36.27l-.11,0a40.7,40.7,0,0,0-4.69.26l-.14-.07a3.71,3.71,0,0,0-2-.43c-4.54.18-9.3.54-14.14,1.07a202.49,202.49,0,0,0-49.69,11.93c-10.21,3.93-20.37,10.29-31.14,17-4.63,2.9-9.42,5.89-14.25,8.71a7.2,7.2,0,0,1-9.45-1.93,3.61,3.61,0,0,0-4.93-.87,190.45,190.45,0,0,0-28.59,23.4,3.61,3.61,0,0,0-.25,4.85c4.66,5.68,9.87,11.41,16,17.53,4.63,4.67,9.46,9.1,14.35,13.17a3.55,3.55,0,0,0,1.34.7l.1.18a3.62,3.62,0,0,0,.88,1,169.13,169.13,0,0,0,24,16.27,193.54,193.54,0,0,1,28,18.75,166.79,166.79,0,0,0,24.39,16.28c13.25,7.44,19.86,10.93,26.86,14.63l2.09,1.11c6.32,3.35,13.48,7.15,26.2,14.33,23.1,13,38.33,26.92,47.95,43.88a6.7,6.7,0,0,1,.44.83,3.62,3.62,0,0,0,1,1.37c21.62,18.42,34.85,36.51,40.45,55.34.39,1.28.73,2.56,1,3.85a21.28,21.28,0,0,0-3.26,11.64v35a19.48,19.48,0,0,0,0,10.33v54.58a3.61,3.61,0,0,0,6.38,2.32,7.47,7.47,0,0,1,5.77-2.54,7.29,7.29,0,0,1,7,7l0,1.78c.1,4.06.2,8.25.1,12.43s-.29,8.85-.71,14.25a255,255,0,0,0-.88,26.9c.16,8.17.37,18.33.22,27.92-.14,9.11-.26,18.06-.14,27.42l.07,6.94c0,2.74-.08,5.23-.25,7.63a85.55,85.55,0,0,1-2.42,15.57,60.7,60.7,0,0,1-6.19,15.37,82.2,82.2,0,0,1-9.58,12.89c-8.24,9.11-16.47,15.22-25.89,19.22a84.13,84.13,0,0,1-15.35,4.46c-3.13.65-6.14,1.2-9,1.73l-4.8.9c-7.79,1.5-16.12,3.38-24.16,6.91-7.41,3.17-15,6.95-24,11.65l-12.37,6.4-6.14,3c-1.84.9-3.71,1.91-5.55,3-5.51,3.14-11,6.8-16.85,10.68q-2.9,1.93-5.9,3.9c-4.18,2.75-8.11,5.16-12.36,7.57-4.68,2.63-9.31,4.78-13.23,6.56l-4.26,1.85a210.58,210.58,0,0,0-19.71,9.3c-1.81,1-3.39,2-5.27,3.24l-5.34,3.79c-3.23,2.28-6.66,4.84-10.75,8-4.29,3.23-8.58,6.69-12.73,10-2.88,2.32-5.78,4.66-8.73,7a7.16,7.16,0,0,1-9.62-.61,4.08,4.08,0,0,0-2.64-1.1,3.61,3.61,0,0,0-2.62,1.16,233.77,233.77,0,0,0-33.55,46.62,3.59,3.59,0,0,0-.43,2.1c1.32,12.85,5.75,30.21,28.9,32.58,2.53.25,5,.46,7.47.66,5.31.44,10.32.85,15.27,1.69a3.92,3.92,0,0,0,1,0c1.45-.15,2.82-.3,4.13-.47l.7-.07a212.54,212.54,0,0,1,26.28-1.42c13.22,0,20,.31,25.93.58s12,.55,24.71.55a145.34,145.34,0,0,1,27.78,2.37,112.3,112.3,0,0,0,22.89,2,203.88,203.88,0,0,0,24-1.18,235.57,235.57,0,0,1,26.65-1.31c10,0,16.08,0,21.3.08l4.14,0c6.3.07,12.6.11,25.23.11,11.67,0,18.18.15,23.93.29l4.3.1c5.7.13,11.59.27,22.45.27,12.79,0,19.38.37,25.74.73l.41,0c6.55.41,12.52.73,24.52.73,12.76,0,19.34.37,25.7.73l.44,0c5.9.34,12,.69,24.53.69a116.82,116.82,0,0,0,22.88-2,141.54,141.54,0,0,1,27.75-2.4c13.06,0,19.55.22,25.83.43l.67,0c6.27.21,12.19.41,24.21.41a230.25,230.25,0,0,0,23.45-1l.79-.07a260.59,260.59,0,0,1,26.4-1.16c12.83,0,19.41.37,25.78.73l.4,0c2.16.14,4.24.25,6.88.36,14-.49,34-3,45.62-19.23.65-.89,1.26-1.86,1.82-2.83a3.63,3.63,0,0,0,.46-2.31C1251,2559.32,1242.8,2546.76,1236.22,2536.67Z"/><path class="cls-2" d="M1641.12,2370.48a157.06,157.06,0,0,0-4-28.6,3.44,3.44,0,0,0-.33-.87l-.61-1.15c-3.9-7.34-7.93-14.92-11.5-23.37-3.76-9.11-6.85-17.84-9.84-26.28q-1.33-3.77-2.66-7.48c-1.53-4.33-3.1-8.48-4.7-12.66a3.35,3.35,0,0,0-.3-.61c-3.68-6-7.73-12.24-13.18-17.66-6.58-6.51-13-9.29-19.27-8.25-10.16,1.7-17.09,13.22-22.54,24.26a3.06,3.06,0,0,0-.16.38l-.77,2.14c-.8,2.24-1.52,4.24-2.2,6.2l-1.26,3.5c-1.74,4.84-3.74,10.41-7.15,19.67a134.79,134.79,0,0,1-11.64,24.46,102.45,102.45,0,0,0-9.46,19.85,203.15,203.15,0,0,0-7,22.14,232.7,232.7,0,0,1-7.77,24.48,122.1,122.1,0,0,0-6.16,21.64,152.08,152.08,0,0,1-7.28,25.48c-4.32,11.64-6.82,17.59-9,22.85a3.62,3.62,0,0,0-.21.7c-1.35,6.89-1.13,12.86.66,18.26,3.73,11.05,13.52,17.77,22.16,23.71l1,.67a7.34,7.34,0,0,1,2.49,2.84,3.62,3.62,0,0,0,1.47,1.56c2.85,1.61,6.22,3.47,10.36,5.62a164.77,164.77,0,0,0,22.83,10.2c4.3,1.61,9.18,3.43,15.91,6.61a3.59,3.59,0,0,0,1.54.35h.2c13.73-.78,25-9,30.08-22.13a6.89,6.89,0,0,1,2.11-3,3.59,3.59,0,0,0,.88-1.09c3.17-6,6.54-12.09,10-18,3.79-6.37,7.41-13.85,11.24-21.76l.37-.77c4.38-9.17,9.13-18.94,14.75-28.62.07-.12.25-.4.31-.52a3.5,3.5,0,0,0,.37-.7,154.38,154.38,0,0,0,10.4-50.43v0c.07-4.51,0-8.71-.12-12.81A3.71,3.71,0,0,0,1641.12,2370.48Z"/><path class="cls-2" d="M1875.49,1836.19c-.82-5-1.54-10.16-2.3-15.78-1.52-11.24-3.09-22.87-6.16-34.28-2-7.41-5.88-15.2-9.62-22.77-3.82-7.73-7.76-15.73-10.68-24.59-2.82-8.45-4.38-17.06-5.95-25.64l-.07-.37c-1.59-8.73-3.1-17-5.88-24.4-2-5.43-4-10.92-6-16.38l-.56-1.57c-.51-1.43-1-2.87-1.58-4.3a3.61,3.61,0,0,0-1.64-1.88c-.06-.91-.12-1.82-.19-2.75a3.74,3.74,0,0,0-.2-.94c-2.71-7.52-5.36-14.49-7.9-20.71-7.55-18.47-14.1-34.09-20-47.74-4.8-11-9.82-21.71-14.25-31.14l-2.05-4.36c-1.85-3.93-3.67-7.79-5.41-11.59-4.12-9-9.09-17.21-14-25.29-3.23-5.27-6.36-10.43-9.14-15.7a4.09,4.09,0,0,0-.24-.4,83.05,83.05,0,0,1-6.31-11.51c-.77-1.58-1.56-3.22-2.42-4.92-6.93-13.65-20.08-19.28-40.45-17.14-3.75.65-7.72,1.29-12.17,1.89-2.13.41-4.22.84-6.21,1.28a7.9,7.9,0,0,1-3.33,0,3.39,3.39,0,0,0-1.21-.06c-1.15.14-2.24.25-3.41.35-10,.85-20.36-.26-30.39-1.33-8.78-1-17.89-2-27.18-1.79-6.52.08-13.93,1.12-21.11,2.13-10,1.44-22.71,3.33-36.17,2.6-9.89-.49-20.08-1.52-28.74-2.47a2.91,2.91,0,0,0-.58,0c-8.74.46-19.73,2-27.15,9.68s-6.35,19.59-4.86,30.46c.1.46.2.9.31,1.34l.27,1.2c1.75,8.2,3.94,18.4,2.93,30.57a54.2,54.2,0,0,1-1.48,8.75l-.33,1.1c-.35,1.18-.69,2.35-1.15,3.49l-1.93,4.39a58,58,0,0,1-10,14.39,60.08,60.08,0,0,1-29.8,17.14,67,67,0,0,1-8.39,1.42l-4.27.25-1.2,0a34,34,0,0,1-4.13-.22,45.1,45.1,0,0,1-18.29-6.14,76.88,76.88,0,0,1-13-9.75c-3.79-3.43-7.14-6.86-10-9.82-2-2-4.27-4.16-6.77-6.49-2.71-2.52-5.78-5.38-8.82-8.48a3.53,3.53,0,0,0-.45-.39c-5.12-3.72-11.09-7.61-16.59-8.26-7.12-.83-16.86,2.09-22.77,20.79a3.62,3.62,0,0,0-.15.74c-.06.6-.1,1.18-.14,1.76s-.07,1-.12,1.57a228.73,228.73,0,0,0-.44,33.21c.33,5.51.81,11.17,1.42,16.79s1.35,10.84,2.35,16.32a314.31,314.31,0,0,0,19.75,64.1c2.25,5.2,4.58,10.43,7,15.62l3.8,8.71c1.18,3,2.29,5.86,3.32,8.72l1.79,5c3.37,9.4,6.56,18.28,10.6,25.81,2,3.84,4.8,8.5,8.43,14.24l9.4,14.61c3.43,5.31,6.51,10.12,9.6,15.24l1,1.69c1.23,2,2.2,3.64,3.36,5.44,1.47,2.27,3,4.51,4.63,6.83,2,2.8,4,5.64,6.13,8.56,4.81,6.64,9.78,13.51,14.4,21l20,35.36c4.94,8.75,10.05,17.79,14.57,27l16.15,31.83c3.4,6.75,6.64,13.66,9.77,20.34,1.81,3.85,3.61,7.71,5.43,11.5,1.66,3.59,3.34,7.11,5,10.65,3.32,7,6.76,14.2,10,21.84l13.44,32.61,3.44,7.79c1.28,2.86,2.47,5.69,3.64,8.49,2.3,5.64,4.46,11.26,6.56,16.75l2,5c1.45,3.75,2.88,7.45,4.37,11.09l3.24,7.72c1.1,2.51,2.18,4.76,3.39,7.07,2.45,4.76,5.32,9.61,8.35,14.75s6,10.18,9,15.77a140.34,140.34,0,0,1,7.93,17.76c2.38,6.44,4.32,12.77,5.75,17.58l1.24,4.12c1.28,4.28,2.53,8.4,3.84,12.28.84,2.62,1.76,5.12,2.72,7.68l22.94,57c2,5.19,4.08,10.74,6.29,17l2.57,7.24c3.14,8.86,6.1,17.23,9.31,25,2.84,6.82,6.54,13.75,10.44,21.1,1.61,3,3.27,6.15,4.93,9.36,3.35,6.57,5.93,12.23,7.92,17.34l19.61,49.13,19.19,49.3c2,5.15,4,11.26,5.9,17.67,1.45,4.92,2.74,9.78,4,14.47,1.78,6.7,3.45,13,5.41,18.82,1.74,4.93,3.88,10.36,6,15.25,1.64,3.83,3.43,7.66,5.25,11.56a3.46,3.46,0,0,0,.33.56c4.72,6.64,11.54,14.74,22.51,18.4,5.41,1.8,11.5,2.64,19.12,2.64a7.48,7.48,0,0,0,1,0c4.49-.51,8.37-1,12.26-1.69,4.63-.82,9.57-1.93,16-3.61,5.88-1.57,11.09-3.1,16-4.7l5.82-2a3.62,3.62,0,0,0,.51-.22c8.55-4.54,14.09-8.68,17.95-13.41,6.5-7.95,7.41-18.34,7.54-25.46a3.64,3.64,0,0,0-.1-.92l-5.63-23c-.24-1-.47-1.91-.77-3.28-.41-1.68-.72-3.3-1-4.91-1.24-7.29-1.9-13.93-2.55-20.35-.53-5.23-1-10.17-1.79-15-.4-2.51-.89-5.45-1.52-8.32a3.42,3.42,0,0,0-.33-.86c0-.16,0-.32,0-.48a3.86,3.86,0,0,0-.07-.49c-.35-1.63-.79-3.27-1.33-4.94a162.23,162.23,0,0,0-5.65-15.28l-1.33-3.26c-1.79-4.36-3.63-8.88-5.35-13.69-1.14-3.08-2.16-6.17-3-9.21s-1.73-6.32-2.39-9.47c-1.69-7.63-2.87-14.94-4-22-.73-4.49-1.44-8.86-2.25-13.14l-.38-1.89c-.42-2.08-.83-4.14-1.31-6.18l-2-8.47c-1.45-6.25-2.56-12.3-3.58-18l-.62-3.51c-.83-4.63-1.62-9.13-2.54-13.72-.54-2.7-1.08-5.39-1.7-7.87-.66-3-1.44-5.85-2-7.73-1.8-6.16-4.39-12.67-7.13-19.57-1.58-4-3.23-8.13-4.84-12.49a156.74,156.74,0,0,1-5.69-18.53c-1.55-6.61-2.59-13-3.46-18.42l-.84-5.47c-.61-4-1.2-7.89-1.87-11.56a143.71,143.71,0,0,0-3.46-15.39c-1.84-6.15-4.83-12.82-8-19.88-1.6-3.58-3.28-7.32-4.93-11.27-1.17-2.79-2.33-5.84-3.44-9l-.34-1c-.42-1.23-.84-2.47-1.2-3.79l-14.42-55.68-14.12-50.86c-1.68-6.23-3.14-12.43-4.34-17.68l-.83-3.68c-2.33-10.36-4.54-20.13-7.26-29.7l-13.64-51c-1.75-6.1-3.32-12.24-4.63-17.45l-1.73-6.89c-2.31-9.22-4.49-17.92-7-26.48l-14.11-50.74c-1.4-4.86-3-10-5.18-16.18-1-2.8-1.94-5.63-2.95-8.5-2.86-8.19-5.82-16.66-8.31-25.3-2.12-7.42-5.1-14.95-8.26-22.92-1.17-3-2.37-6-3.55-9.07-1.94-5.09-4.19-11.16-6-17.5l-6.69-23.92c-2.46-8.79-5-17.87-7.3-26.67a3.39,3.39,0,0,0-.08-.42,9,9,0,0,1,17.17-5.57c3.57,9.1,7,18.42,10.39,27.44l8.2,22c1.74,4.72,3.8,9.59,6.46,15.32q1.45,3.18,3,6.44a281.14,281.14,0,0,1,11.36,26.87c2.7,7.67,5.61,15.18,8.69,23.13q1.77,4.59,3.59,9.31c1.92,5,4.14,11,6.14,17.07l15.18,50.76c2.88,9.44,5.34,18.93,7.72,28.11l1.68,6.44c1.45,5.6,2.95,11.12,4.5,16.47l14.08,50.94c2.94,10,5.28,20,7.54,29.63l1.23,5.25c1.28,5.35,2.66,11,4.19,16.48l14.15,50.77,5,19.41a3.69,3.69,0,0,0,.47,1.07c2.61,4,5.79,8.61,10.52,12.06,5.47,4,16.34,8.31,27.67-7.23a3.58,3.58,0,0,0,.5-1l.29-.83c.38-1.11.76-2.21,1.08-3.23l1.45-4.13q2-5.83,4.07-11.62l1.06-1a3.61,3.61,0,0,0,.94-1.43c1.33-3.74,2.57-7.55,3.8-11.3l1.11-3.41c2.14-6.54,4.34-13.31,6.84-19.82,2.35-6.06,4.83-11.9,7.23-17.55l1-2.25c3.71-8.7,7.21-16.91,9.83-25,3.51-10.57,5.81-21.73,7.66-30.67l.54-2.5c.94-4.41,1.9-8.91,3-13.3,3.75-15.38,7.51-31.57,8.65-45.63A196.15,196.15,0,0,0,1875.49,1836.19Z"/><path class="cls-3" d="M1807.35,1133.42c-.43-3.68-2.5-6.84-4.32-9.63a29.19,29.19,0,0,1-2.51-4.31,29.66,29.66,0,0,1-1.22-3.67,3.6,3.6,0,0,0-.4-.93c-2.61-4.32-5.3-8.68-8.16-13.2l-.94-1.5c-1.9-3-3.83-6.14-5.73-9.36l-6.23-10.72c-3.76-6.35-7.92-13.07-12.72-20.58l-7.33-11.35c-2.05-3.18-3.88-6-5.83-8.82a210.84,210.84,0,0,0-14.26-18.13c-4.45-5.09-9.48-10.42-16.3-17.29a166.18,166.18,0,0,0-16.85-15l-.34-.26-.13-.1a167.21,167.21,0,0,0-18.52-12.35c-3.88-2.23-8.37-4.65-12.89-7.08-2.83-1.53-5.68-3.06-8.45-4.58l-.9-.47c-1-.51-1.92-1-2.9-1.55a3.59,3.59,0,0,0-.61-.27c-1-.33-2-.69-3-1.12-1.16-.5-2.49-1.2-3.9-2-5.41-2.86-12.14-6.41-18.18-4.06-4.78,1.83-7.92,7.27-10.69,12.07a49.82,49.82,0,0,1-2.76,4.45c-.08.12-.18.22-.27.32l-.43.51a4,4,0,0,0-.3.44c-15.22,26.12-43.1,62.58-89.48,87.93a10.94,10.94,0,0,1-10,.21c-2.83-1.38-70.05-34.64-129.92-103.19a3.73,3.73,0,0,0-.47-.45,35.31,35.31,0,0,0-13.92-7.24c-6.4-1.46-13.31-.74-22,2.37A254.23,254.23,0,0,0,1317,973.91c-11.43,7.67-22.22,17.8-35,32.8a321,321,0,0,0-29.36,40.36l-6.49,10.62c-2,3.54-4,7.22-6.09,11l-1.3,2.42c-3.64,6.77-7.41,13.77-11.52,20.84a264.77,264.77,0,0,1-15.05,23.07l-3,4.13c-4.17,5.77-8.11,11.21-11.76,16.74l-3.29,5.12-8.31,14a3.61,3.61,0,0,0-.48,1.43c-.89,8,2.71,11.25,5.92,12.63a21.74,21.74,0,0,0,7.67,1.22,23.64,23.64,0,0,1,4,.34,21.41,21.41,0,0,1,2.64.77,3.64,3.64,0,0,0,1,.22,95.69,95.69,0,0,1,33.41,8.19,102.59,102.59,0,0,1,42.38,35.59,3.62,3.62,0,0,0,1.14,1.06,9.26,9.26,0,0,1,1.66,1.24c5.34,5.2,15.27,14.89,26.2,7,1-.75,1.93-1.49,2.79-2.24l.3-.29c6.13-6.67,11.38-12.08,16.52-17,7.7-7.49,14.19-13.47,20.4-18.79,7.8-6.52,14.38-11.94,22.14-17.37a9.06,9.06,0,0,1,11.44,14l-.38.38c-6.53,6.25-12.86,12.68-18.28,18.57-1.11,1.19-2.21,2.39-3.3,3.59l-1.53,1.68a3.59,3.59,0,0,0-.38.5,104.11,104.11,0,0,0-15.88,66.25,3.65,3.65,0,0,0,.08.52c2.2,9.13,4.33,18.26,6.31,27a3.67,3.67,0,0,0,.39,1,8.58,8.58,0,0,1,.74,1.71l.4,1.43c5.18,18.46,11,39.38,26.83,53,.75.67,1.49,1.31,2.24,1.94a3.45,3.45,0,0,0,.37.27c1.6,1,3.13,2.16,4.54,3.2,2.44,1.88,4.84,3.84,7.48,6.11a98,98,0,0,1,9.21,7.89l3.55,2.86a172,172,0,0,1,20.82,19.44c2.88,3.14,5.83,6.55,8.95,10.32l.61.8a3.51,3.51,0,0,0,.49.52,176.57,176.57,0,0,0,17.61,13.8,3.77,3.77,0,0,0,.36.21c7.73,3.94,15.84,7.67,23.85,11a4.11,4.11,0,0,0,.68.27h0c.54.18,1.11.33,1.89.54l.45.09c7.82,1,15.79,2,24.38,2.9,3.57.38,7.1.78,10.59,1.16l8.8,1c12.68,1.43,24.66,2.78,36,3.33,1.45.07,2.91.11,4.36.11,8.7,0,17.41-1.21,25.89-2.39l.43-.06c8.13-1.14,16.53-2.32,24.81-2.42a256.18,256.18,0,0,1,30.16,1.89l.38,0c9.52,1,17.75,1.92,24.8,1.31,7.5-.64,14.82-1.6,23-3l.4-.09c9.54-2.77,19.39-6.15,25.86-14.17a40.4,40.4,0,0,0,6.57-12.84,3.46,3.46,0,0,0,.16-.76,238.69,238.69,0,0,0,1.28-25.69c0-3.67,0-7.49.07-11.31.07-3.28.07-6.59.07-9.87a3.57,3.57,0,0,0-.12-.91,66.47,66.47,0,0,0-14.79-27.48c-1.73-2-3.47-4-5.2-5.9-6.72-7.55-13.07-14.69-17.92-23.16a3.77,3.77,0,0,0-.62-.8c-1.33-1.29-2.72-2.57-4.14-3.88-4.35-3.95-9.1-7.86-14.13-12l-4.26-3.52c-3.29-2.7-6.76-5.68-9.79-8.4-2.64-2.36-5.55-4.75-8.63-7.11a207.75,207.75,0,0,0-19.12-12.91l-10.4-6.12c-3.48-2.07-6.67-4.13-9.69-6.08l-1.4-.91c-6.65-4.38-13.09-8.52-19-11a39.73,39.73,0,0,0-8.45-2.51,65.84,65.84,0,0,0-10.08-.93,124.19,124.19,0,0,0-22,1.74l-11.94,1.95-12.77,1.87c-4.93.64-9.94,1.38-15.08,2.14-3,.44-6.09.9-9.18,1.33l-1.58.21c-7.93,1-16.14,2.13-25.67,1.86a56.59,56.59,0,0,1-16.62-2.75,39.48,39.48,0,0,1-16.39-10.68,47.74,47.74,0,0,1-9.27-15.1,76.06,76.06,0,0,1-4.11-14.84,117.87,117.87,0,0,1-1.64-13.94l-.11-2c-.09-1.59-.18-3.17-.18-4.73l0-1.88c0-1.57,0-3.17.08-5.36a58.86,58.86,0,0,1,3-16.29,54.81,54.81,0,0,1,8-15c5.89-7.8,13.79-14.21,24.08-19.57l6.83-3.18c2.66-1.06,5-1.89,7.11-2.54a101.37,101.37,0,0,1,14-3.21,189.49,189.49,0,0,1,26.65-2.16c8.3-.14,16.34-.15,25.3,0,10,.13,18.21.5,25.77,1.18,3.67.31,7.84.83,11.14,1.24l1.51.19c3.87.47,7.85.84,11.91,1.2l4.47.42a201,201,0,0,1,21.67,2.81,63.48,63.48,0,0,1,15.18,4.93,118.85,118.85,0,0,1,12.28,7.33c3.3,2.2,6.41,4.38,9.43,6.49,3.68,2.57,7.23,5,10.81,7.38,3.12,2,6.48,4.19,9.8,6.09a94.35,94.35,0,0,0,9.66,4.89c3.62,1.67,7.46,3.27,11.53,5,3.56,1.48,7.27,3,11.08,4.72,2.72,1.2,5.53,2.53,8.35,4a3.61,3.61,0,0,0,.45.19,8.14,8.14,0,0,1,2,1l.67.45a3.93,3.93,0,0,0,.62.34,127.67,127.67,0,0,1,10.93,6.86,3.79,3.79,0,0,0,.43.26c8.78,4.39,16.47,4.53,23.49.44,2.69-1.56,5.05-3.24,7.33-4.87a57.93,57.93,0,0,1,8.71-5.48,3.58,3.58,0,0,0,.59-.35,156.87,156.87,0,0,1,20.74-12.89C1799.39,1150.75,1808.51,1144,1807.35,1133.42Z"/><path class="cls-4" d="M1049.39,355.73a3.6,3.6,0,0,0-.23-.64,116,116,0,0,0-13.24-21.42c-15-19.36-32.22-31.72-51.24-36.74-17-4.46-37.39-4.52-67.32,0-18.77,2.89-43.3,7.58-66.66,18.28a288.82,288.82,0,0,0-110.2,85.18c-15.66,19.24-26.06,41.17-34.17,60.09-11.1,25.84-16.45,47.13-16.38,65.09.11,22.45,7.2,43.88,20,60.36a91.63,91.63,0,0,0,16.93,16.66c10,6.64,22.45,12,37,15.85a186.09,186.09,0,0,0,42.69,6.37,196.59,196.59,0,0,0,24.15-2.17c16.36-2.5,33.26-10.5,51.27-19l2.8-1.32c3.3-1.55,6.63-3.12,10-4.66l7.58-3.44c18.21-8.27,37-16.81,53.38-29.45,6.27-4.85,12-9.54,17.54-14.33a4,4,0,0,0,.32-.32c6.27-7,12.05-14.54,17.86-22.12,3.49-4.58,7.26-9.47,11.1-14.22,16.61-20.34,28.49-39.11,36.3-57.35,9.71-22.62,14.39-43.52,14.32-63.89C1053.12,382.11,1052.66,368.54,1049.39,355.73ZM975.65,465.52c-11.39,22.57-33.15,41.26-52.95,56.56-23.45,18.17-46.52,29.79-68.59,34.57-2.6.59-5.37,1.09-8.94,1.62a13.74,13.74,0,0,1-2.31.31,108,108,0,0,1-14.34,1c-23.31,0-42-8.2-54-23.72-16.24-21-16.28-50.22-.1-82.25,11.34-22.43,28.46-42.89,49.51-59.17,21.48-16.62,45.56-28.18,69.64-33.41a141.44,141.44,0,0,1,29.56-3.39c24.09,0,42.63,7.51,53.63,21.73C992.6,399.82,992.16,432.82,975.65,465.52Z"/><path class="cls-5" d="M2418.11,643.86c-.49-6.31-2.57-13.51-6.17-21.42a3.62,3.62,0,0,0-1.07-1.36l-.21-.16a3.62,3.62,0,0,0-.34-2,203.55,203.55,0,0,0-11.88-20.72c-7.74-12.12-19.62-29.11-33.34-36.77-15.33-8.6-32-10.27-41.56-4.16-13.95,8.94-21,13.64-27.86,18.26-6.47,4.35-13.79,9.29-28.41,18.67-13.69,8.74-20.11,13.44-27,18.53s-13.95,10.22-28.5,19.53c-13.56,8.67-20.1,13.07-27.87,18.33l-.4.27c-6.87,4.62-14,9.39-28,18.37-13.1,8.37-19.88,12.92-26.44,17.32l-2.83,1.9c-6.39,4.3-13.63,9.16-27,17.72a276.51,276.51,0,0,1-30.68,17.36c-5.41,2.65-10.49,5.2-17.82,9.53a3.63,3.63,0,0,0-.83.68c-3.84,4.21-11.82,13-2.6,22.83,1.24,1.32,2.5,2.57,3.76,3.81l1.45,1.44a3.31,3.31,0,0,0,.4.35,139.45,139.45,0,0,1,33.63,35.84c8.27,12.91,14,28.3,17,45.76a3.57,3.57,0,0,0,.3.95c1.39,2.91,4.94,10.33,13.75,10.33a16.55,16.55,0,0,0,1.76-.1,25.79,25.79,0,0,0,7.83-2.56,23.37,23.37,0,0,1,5.13-1.89,3.65,3.65,0,0,0,1.38-.45c5.38-3.08,9.69-5.34,14.52-7.8a287.09,287.09,0,0,0,28-16.08c14.26-9.13,21.89-13.35,29.27-17.43l.78-.43c7.32-4.06,14.23-7.89,27.82-16.59,13.29-8.5,19.52-13.21,26.12-18.2l.88-.67c6.78-5.14,13.79-10.45,28.22-19.69A320.28,320.28,0,0,0,2316,734.38a344.6,344.6,0,0,1,28.3-19.87,179.89,179.89,0,0,1,32.19-16.87,151.61,151.61,0,0,0,27.63-14.5C2413.84,676.94,2419.45,661.16,2418.11,643.86Z"/><path class="cls-6" d="M2537.11,1779.55c-1.11-3.9-3.1-6.66-5.92-8.2-4.2-2.29-9-1.25-12.23-.27a3.46,3.46,0,0,0-.84.38c-1.87,1.14-3.8,2.33-6,3.63a193.32,193.32,0,0,1-32.33,15.9,163.49,163.49,0,0,0-27.74,13.67,183.65,183.65,0,0,0-25.92,18.23,212.7,212.7,0,0,1-28.79,20.19,178,178,0,0,1-32.7,15.78,146.13,146.13,0,0,0-27.62,13.39,297,297,0,0,0-26.73,17.71,325.58,325.58,0,0,1-28.93,19.16c-13.86,8.33-21.22,12.4-28.33,16.35l-1.9,1c-6.92,3.83-14.07,7.79-27.56,15.89-14.35,8.6-21.09,12.83-28.22,17.32-6.47,4.07-13.81,8.68-28.63,17.56-7.34,4.38-10.84,13-12.49,19.49a265.63,265.63,0,0,1-10,31.89l-.39,1a240.84,240.84,0,0,0-9,28.8c-4,15.57-5.52,23.29-7,30.75s-3.21,15.85-7.41,32.25a220.12,220.12,0,0,0-5.79,30.09,247.09,247.09,0,0,1-6.46,33.45,164.74,164.74,0,0,1-11.78,33.06,139,139,0,0,0-10,28,.65.65,0,0,0,0,.09,4,4,0,0,0-.13,1v.07c-.14.34-.27.71-.39,1.09,0,.07,0,.14-.06.22l0,.11-.49,2a3.56,3.56,0,0,0-.12,1c0,1.92,0,3.86,0,5.83l-.06,3.23c-.11,3.94-.31,10.52,4.56,13a7.42,7.42,0,0,0,3.41.77c3.76,0,8.06-2.2,11.69-4.05,1-.5,1.81-.93,2.43-1.19a46.37,46.37,0,0,1,4.82-1.64,3.56,3.56,0,0,0,.5-.19,12.11,12.11,0,0,0,1.34-.74,305.36,305.36,0,0,1,29.66-14.88,274.64,274.64,0,0,0,27.16-13.67c13-7.33,19.27-11.27,25.9-15.44l.73-.46c6.22-4,13.27-8.47,27.88-16.7,13.51-7.61,19.85-11.65,26.76-16.06,6.71-4.28,13.66-8.71,27.71-16.61,12.73-7.19,19.54-11.14,25.89-14.82l3.49-2c6.28-3.66,13.12-7.63,25.69-14.7a274.28,274.28,0,0,1,29.81-14.8,250.11,250.11,0,0,0,27.11-13.5c13.59-7.64,20.66-11.47,27.49-15.17l.66-.36c7.1-3.82,13.81-7.43,27.44-15.09a173.64,173.64,0,0,0,24.74-16.49c3.32-2.59,7-5.4,11.7-8.64a3.57,3.57,0,0,0,.57-.48,87.59,87.59,0,0,0,13.93-19c1.52-2.76,2.7-5.51,3.83-8.16l.86-2a3.91,3.91,0,0,0,.21-.63c1-4.14,1.88-7.6,2.78-11l.32-1.22a238.78,238.78,0,0,0,6.52-30.28c2.55-16.07,4.21-24.28,5.82-32.21l.07-.38c1.79-8.8,3.25-16.2,5.67-31.38a240.25,240.25,0,0,0,3.16-31,278,278,0,0,1,3.49-33.69c2.49-15.71,3.21-23.3,4-31.37.29-3.29.61-6.65,1.07-10.55a3.62,3.62,0,0,0-.4-2.14,27.34,27.34,0,0,0-1.73-2.79c1.11-2,2.21-4,3.26-6a3.6,3.6,0,0,0,.37-1.18l.72-5c0-.09,0-.18,0-.27C2538.48,1790.95,2538.71,1785.09,2537.11,1779.55Z"/><path class="cls-7" d="M1311.87,1520.47a76.85,76.85,0,0,1-2-18.59c0-22.45-17.14-42.14-36.68-42.14-13.06,0-19.36.12-25.14.25s-11.93.22-23,.22a15.12,15.12,0,0,0-1.54.16c-5.61,1-11.41,1.94-17.84,2.59-2.38.25-4.8.42-7.06.54l-3.8.07-3.64,0c-4.51-.1-9.08-.38-14-.87-4.39-.44-8.65-1-12.23-1.58a7,7,0,0,0-1.41-.07,119.49,119.49,0,0,0-15.42,1.75,145.8,145.8,0,0,1-27,2.21c-12.65,0-19.15-.4-25.44-.78l-1.15-.07c-6.23-.36-12.12-.71-24.12-.71-13.21,0-19.59-.12-25.5-.25-6.28-.11-12.57-.22-25.14-.22a154.94,154.94,0,0,1-27.27-2.12,129.28,129.28,0,0,0-23.4-1.82,110.45,110.45,0,0,0-23.43,2.14,135,135,0,0,1-27.25,2.42c-13.3,0-19.85-.5-26.2-1l-.5,0c-6.2-.47-12.06-.92-24-.92-12.67,0-19.3-.4-26.09-.89l-.58,0c-6.21-.4-12.07-.77-24-.77-12.72,0-19.09-.07-25.47-.14l-3.29,0c-5.37-.07-11.47-.14-21.91-.14-12.75,0-19.13-.07-25.47-.14s-12.6-.18-25.21-.18l-17,0h-8.32c-6.33,0-12.67,0-25.3,0a155.76,155.76,0,0,0-23.95,1.54,181.48,181.48,0,0,1-26.72,1.72c-11.95,0-17.83.38-24.08.78l-.54,0c-6,.4-12.81.85-26.05.85a43.12,43.12,0,0,0-22.88,6.89,7.15,7.15,0,0,0-1.74,1.57c-4.95,6.19-6.91,12.07-6,18,2.55,16.76,21.81,16.53,31.17,16.42H565c1,0,1.84,0,2.66,0,8.64.12,17.31.21,26,.3l6.37.05c2.35-.11,4.67-.21,6.94-.25l3.66,0c6.66,0,12.95-.06,19.81.27,4.11.22,8.24.58,11.93,1l11.29,1.45a178.72,178.72,0,0,0,22,1,212.77,212.77,0,0,0,22.25-1.09,209,209,0,0,1,23.47-1.15l45.89.29,11.61.22c4,.07,8,.29,11.8.65,3.52.34,7.48.9,11.8,1.67l1.66.29c3.33.59,6.3,1.11,9.37,1.49a189.66,189.66,0,0,0,22.11,1.1,203.23,203.23,0,0,0,22.68-1.19,193.11,193.11,0,0,1,23.26-.62,3.6,3.6,0,0,1,3.53,3.68,3.66,3.66,0,0,1-3.54,3.54,193.11,193.11,0,0,0-22.55,1.7,204.59,204.59,0,0,1-23.07,2.39,171.69,171.69,0,0,1-23.48-.23c-3.62-.31-7.37-.84-10.39-1.26l-1.25-.17c-4.18-.61-7.59-1-11.08-1.15-4.1-.22-7.61-.28-11.08-.23l-57.07,1.12a194.3,194.3,0,0,0-22.27,1.69,207.09,207.09,0,0,1-23.44,1.71,200.65,200.65,0,0,1-23.63-.74l-11.64-1.39c-3.92-.4-7.37-.64-10.84-.75-6-.24-12.6-.16-19,0-13.8.85-30.07,2.17-46.1,5.44l-1.39.28c-9,1.8-24,4.82-29,15.67-2.64,5.72-2.23,12.19,1.17,18.69a7.29,7.29,0,0,0,1.36,1.83c7.78,7.59,17.36,11.77,27,11.77,12.41,0,18.46-.14,25.07-.32,5.93-.17,12.35-.32,25.64-.32a183.15,183.15,0,0,0,24.2-1.34,212.71,212.71,0,0,1,26.51-1.4c13.13,0,19.78.26,25.73.5,6.11.28,12.21.51,24.95.51,12.47,0,18.74-.07,25.17-.14l3.28,0c5.44-.07,11.64-.14,22.22-.14a190.23,190.23,0,0,1,26.81,1.67,169.44,169.44,0,0,0,23.83,1.44c12.72,0,19.06,0,25.47.11l4.75,0c5,0,11,.08,20.48.08,12.44,0,18.54-.47,24.48-.92l.43,0c6.37-.49,13-1,25.73-1,11.9,0,17.91-.42,24.52-1,6.32-.52,12.85-1.06,26.15-1.06a233.84,233.84,0,0,1,26.4,1.27l.52,0a230.27,230.27,0,0,0,23.75,1.07c11.74,0,18.25.15,24,.29l2.09,0c6.31.14,12.27.28,24.59.28a102.7,102.7,0,0,0,23.36-2.29,126.26,126.26,0,0,1,27.32-2.63c12.62,0,19.15.4,25.48.78l1.16.07c6.21.4,12.08.77,24,.77,12.64,0,19,0,25.27-.07s12.7-.07,25.4-.07c9.88,0,15.89,0,21.08-.08l4.19,0c6.34-.07,12.68-.11,25.4-.11,19.43,0,40.23-15.09,40.23-37.55A54.86,54.86,0,0,0,1311.87,1520.47Z"/><path class="cls-7" d="M1287.17,2692.93h0c-12.08-4.37-27.28-5.5-45.4-3.34l-5,.95a119.12,119.12,0,0,1-19,2.1c-6.92.22-13.19.07-18.38-.11-6.05-.25-12.5-.79-18.17-1.53-5.06-.63-10.6-1.26-16.74-1.54-5.09-.26-10.79-.4-17-.4-5.87,0-11.36.2-16.82.63-5,.42-11.57.93-17.89,1-6,.14-11.76.08-18.16-.18a120.09,120.09,0,0,1-18.73-2.21c-2.91-.6-5.54-1.25-8-1.87-3.05-.76-5.94-1.48-8.75-1.94a126.4,126.4,0,0,0-16.54-1.72,7.14,7.14,0,0,1-5-2.36,7.24,7.24,0,0,1-1.87-5.22,7.36,7.36,0,0,1,7-6.88,123.46,123.46,0,0,1,18.6.53c3.82.38,7.45,1,11,1.65,2.37.42,4.6.82,6.59,1.08a104.91,104.91,0,0,0,16.17,1c4.16-.06,10.46-.23,16.87-.7,4.08-.29,8-.76,12.17-1.26l4.78-.56c5.63-.64,11.94-1.09,18.23-1.32s12.19-.27,18.12-.18c5.33.06,11.44.41,18.2,1,6.3.55,11.3.92,16.7,1,6.34.17,12,.11,16.68-.15a97.86,97.86,0,0,0,15.86-2c4.28-.93,9.62-2.09,15-2.75a3.51,3.51,0,0,0,.91-.23,47.92,47.92,0,0,1,6.87-2.23,84,84,0,0,1,9.81-1.54c5.3-.63,10.79-1.27,16-3.35,6.53-2.62,10.48-7,11.13-12.28.67-5.46-2.37-11-8.34-15.34a34.17,34.17,0,0,0-5-2.88,3.66,3.66,0,0,0-1-.32,31.11,31.11,0,0,0-4.82-.41c-13.22,0-20-.31-26-.58l-.42,0c-6.29-.29-12.22-.56-24.29-.56-12.64,0-19.21-.36-25.55-.72l-.64,0c-6.49-.41-12.42-.73-24.52-.73a230.74,230.74,0,0,0-24,1.06,249.82,249.82,0,0,1-26.59,1.21c-11.22,0-17.65-.19-23.32-.36l-3.17-.1c-6.27-.21-12.19-.41-24.22-.41a115.88,115.88,0,0,0-22.85,2,141.68,141.68,0,0,1-27.79,2.4c-12.85,0-19.45-.34-26.2-.76l-1.37-.07c-5.78-.3-11.76-.62-23.11-.62-12.77,0-19.34-.37-25.7-.73l-.5,0c-6.52-.41-12.46-.73-24.48-.73-11.52,0-18-.15-23.72-.28l-2,0c-6.51-.19-12.49-.33-25-.33-12.74,0-19.09,0-25.46-.11l-4.1,0c-5.19,0-11.22-.08-21.12-.08a210.47,210.47,0,0,0-23.38,1.12l-.69.07a236.13,236.13,0,0,1-26.6,1.3,145.17,145.17,0,0,1-27.75-2.37,113.16,113.16,0,0,0-22.92-2c-13.18,0-20-.31-26-.58-7-.32-12.81-.55-24.67-.55A185.7,185.7,0,0,0,642,2624.8l-.72.08a206,206,0,0,1-26.82,1.51,121.67,121.67,0,0,0-23.08,1.86,148.86,148.86,0,0,1-27.59,2.26c-19,0-31.77,13-31.77,32.38,0,8.81-.12,13.08-.26,17.06s-.21,7.82-.21,15.54c0,19.17,13.26,32.56,32.24,32.56a122,122,0,0,1,28.44,3,94.5,94.5,0,0,0,22.27,2.29c12.34,0,18.6-.11,25.14-.22,6.38-.11,12.76-.18,25.57-.18l50.67,0c12,0,17.83-.34,24-.71l1-.06c6.36-.39,12.93-.79,25.65-.79a193.14,193.14,0,0,1,27.18,1.68,165.7,165.7,0,0,0,23.46,1.43,210.8,210.8,0,0,0,23.42-1.12l.74-.07a235.55,235.55,0,0,1,26.54-1.3c13.11,0,19.8.19,26.06.37s12.36.36,24.58.36a139.53,139.53,0,0,0,23.34-1.66,174.18,174.18,0,0,1,27.34-1.88,138.52,138.52,0,0,1,27.86,2.44,110.86,110.86,0,0,0,22.81,2,103,103,0,0,0,22.74-2.14,132,132,0,0,1,27.93-2.63c11.21,0,17.18-.21,23-.41l1.83-.06c5.92-.23,12.63-.5,25.88-.5,12.83,0,19.55.47,26.43,1,5.88.45,12,.91,24.2.91,12.76,0,19.15.07,25.55.18l3.23,0c5.36.07,11.47.14,21.89.14a152.15,152.15,0,0,1,27.58,2.16,123.29,123.29,0,0,0,23.09,1.85c7.28,0,14.91-3,21.48-8.54a3.72,3.72,0,0,0,.6-.65c5.48-7.56,7.38-14.28,5.62-20C1299.27,2699.68,1294.65,2695.63,1287.17,2692.93Z"/><path class="cls-8" d="M2173.18,1383.55a18.07,18.07,0,0,0-15,10.86l-92.45,215.1a18.07,18.07,0,0,0,18.49,25.11l219.4-23.06a18.07,18.07,0,0,0,13.19-27.94l-127-192A18.07,18.07,0,0,0,2173.18,1383.55Z"/><path class="cls-8" d="M438.88,2070.43l-156-26.09a18.07,18.07,0,0,0-20,23.93l50.4,140.26a18.07,18.07,0,0,0,30.27,6.16l105.6-114.17a18.07,18.07,0,0,0-10.29-30.1Z"/><path class="cls-8" d="M2364.39,1077.63a18.07,18.07,0,0,0,12.32,13.08l142.6,43.36a18.07,18.07,0,0,0,23-20.6l-28.49-152.89a18.07,18.07,0,0,0-30.28-9.73l-114.11,109.53A18.07,18.07,0,0,0,2364.39,1077.63Z"/><path class="cls-8" d="M2533,2428.88l-123.45,24.8a18.07,18.07,0,0,0-10.16,29.48l77.24,90.07a18.07,18.07,0,0,0,30.48-5l46.21-114.87a18.07,18.07,0,0,0-20.32-24.46Z"/><path class="cls-8" d="M347,1380.43l10.51-83.32A12.05,12.05,0,0,0,341,1284.43l-73.34,29.73a12.05,12.05,0,0,0-3.29,20.34l62.82,53.59a12.05,12.05,0,0,0,19.78-7.66Z"/><path class="cls-8" d="M2712.69,1459l-82.34,16.54a12.05,12.05,0,0,0-6.77,19.66l51.52,60.07a12.05,12.05,0,0,0,20.33-3.35l30.82-76.61a12.05,12.05,0,0,0-13.55-16.32Z"/><path class="cls-8" d="M1346.56,2116l-48.09-68.85a12.05,12.05,0,0,0-20.73,1.66L1243.29,2120a12.05,12.05,0,0,0,11.2,17.29l82.54-2.4a12.05,12.05,0,0,0,9.53-18.95Z"/><path class="cls-8" d="M1375.05,329.33l-58.41,60.34a12.05,12.05,0,0,0,5.58,20l76.51,20.23a12.05,12.05,0,0,0,14.84-14.29l-18.1-80.57a12.05,12.05,0,0,0-20.42-5.74Z"/><path class="cls-8" d="M1819.28,441.37a18.13,18.13,0,0,0,3-.25L1997.69,412A18.07,18.07,0,0,0,2008,381.87L1885.3,249a18.07,18.07,0,0,0-30.46,6.67L1802.1,417.71a18.07,18.07,0,0,0,17.19,23.66Z"/><path class="cls-8" d="M868.22,926.63a18.09,18.09,0,0,0-17.68,5.5L702.46,1097.2a18.07,18.07,0,0,0,9.5,29.7l203.89,45.71a18.07,18.07,0,0,0,21.42-22.26L881.46,939.57A18.07,18.07,0,0,0,868.22,926.63Z"/></g><g id="outline"><path class="cls-9" d="M1956.87,2652.86c-36.47-5.45-59.35-10.09-67.57-27.54L1878.49,2586a11.12,11.12,0,0,0-.57-3.1c-.47-1.36-.95-2.71-1.4-4.06l-1.54-5.62c-.81-4.27-.51-8.43,2.7-12.39,1.26-1.56,2.53-2.95,3.77-4.28.8-.49,1.6-.95,2.37-1.49a34.15,34.15,0,0,0,11.49-14.54,36.31,36.31,0,0,0,2.53-17.08,35.88,35.88,0,0,0-.53-3.9l-.37-1.87-.26-1.07-1-4.28-4.18-17.13-4.18-17.13-2.09-8.57c-.32-1.34-.76-3-1-4.09s-.47-2.27-.68-3.47c-1.68-9.71-2.16-21.79-4.07-34.51a138.87,138.87,0,0,0-4.23-19.74c-2-6.68-4.38-12.54-6.61-18.12s-4.38-10.71-6.13-15.67c-.88-2.48-1.69-4.91-2.37-7.3s-1.27-4.72-1.83-7.35c-2.24-10.29-3.68-21.91-5.93-34.11-.58-3.06-1.17-6.14-1.88-9.28l-2-8.64c-1.18-5.2-2.18-10.68-3.18-16.38-2-11.48-3.89-23.41-7.55-36.42-3.86-13-8.9-24-12.54-34.15-1.07-2.92-2-5.7-2.78-8.46a11.88,11.88,0,0,0-.21-2.85,150.67,150.67,0,0,1,.06-61.2c4.62-6.91,9.28-14.08,13-22.19,4.2-9.2,7.77-18.43,11.21-27.36,2.5-6.47,4.86-12.58,7.39-18.54,4-9.52,7.12-19,10.08-28.07,2.14-6.59,4.17-12.82,6.45-18.74,2.35-6.11,5-12.23,7.49-18.15,3.9-9.13,7.92-18.57,11.07-28.12,3.94-11.93,6.31-23.24,8.61-34.18,1.09-5.2,2.12-10.1,3.26-14.77,4.06-16.63,8.14-34.24,9.49-50.66a230,230,0,0,0-2.69-56.07c-.77-4.68-1.43-9.54-2.1-14.51-1.6-11.8-3.4-25.17-7.06-38.72-2.78-10.28-7.36-19.6-11.8-28.6-3.49-7.09-6.78-13.78-9-20.54-2.11-6.35-3.42-13.55-4.8-21.18-1.8-9.89-3.66-20.13-7.52-30.4-2.18-5.82-4.3-11.69-6.41-17.55-3.77-10.47-7.68-21.29-12-31.8-7.55-18.51-14.21-34.35-20.34-48.46-4.86-11.16-9.83-21.74-14.63-32-2.52-5.35-5-10.59-7.31-15.69-4.92-10.73-10.67-20.21-15.75-28.58-3.77-6.2-7.32-12.06-9.84-17.3-6.37-13.26-7.91-18.63-9.39-23.82a106.91,106.91,0,0,0-4.54-13.25,191.49,191.49,0,0,1-2.87-28.91c2-8.8,6.93-17.21,17.13-15.1,5.22,1.08,10,5.9,14.83,8.16a34.33,34.33,0,0,0,6.19,2.18,97.07,97.07,0,0,0,10.09,3.95,67.87,67.87,0,0,0,16.9,3.19c11.56.66,22.07-1.65,31.17-4.47,4.58-1.43,8.9-3,13-4.67a77.2,77.2,0,0,0,14.61-7.59,60.31,60.31,0,0,0,13.33-12.13,59.62,59.62,0,0,0,9.13-15.74,72.31,72.31,0,0,0,4.21-16.37q.93-6.72,1.43-13.56a180.36,180.36,0,0,0-.1-27.67,176.66,176.66,0,0,0-4.54-27.25c-2.07-8.64-4.49-16.89-6.95-25l-3.72-12c-1.24-4-2.63-8.21-4-12.22-2.79-8.11-5.76-16.05-8.79-23.88l-4.58-11.67-1.22-3c-.5-1.16-1-2.37-1.5-3.49-1-2.28-2.11-4.46-3.21-6.57-4.43-8.41-9.15-15.56-13.09-22.2-2-3.31-3.78-6.48-5.3-9.53a100.36,100.36,0,0,1-4.11-9.55c-2.6-6.85-4.92-14.63-7.95-23-1.52-4.21-3.22-8.58-5.3-13.05-2.2-4.7-4.29-8.43-6.52-12.36-4.42-7.72-9.07-14.91-13.44-21.78-2.18-3.43-4.3-6.79-6.27-10.08l-6.25-10.63c-4.38-7.34-8.91-14.51-13.47-21.54l-6.82-10.44c-2.17-3.3-4.65-7.14-7.26-10.81a244.31,244.31,0,0,0-16.64-20.94c-5.84-6.62-11.92-12.84-17.83-18.75a198.6,198.6,0,0,0-43.06-32.95c-8.06-4.55-14.78-8-22.26-12s-15-7.89-23.06-11.57c-6.2-2.91-13.08-5.57-19.38-7.85a40.92,40.92,0,0,1-11.45-9.12c-7.68-9.31-5.37-19.42-1.14-29.35a245.6,245.6,0,0,0,9.72-22.64c2.87-7.82,5.31-15.76,7.39-23.77,0-.11.1-.2.14-.32,5.52-16.65,11.43-30.68,27.68-39.12,9.91-5.14,19.86-9,28.83-15.13,3.65-2,7.28-4.14,10.84-6.44,16.27-10.48,33.31-22.2,46.91-40,12.19-15.95,19.74-35.43,27-54.27,6.56-16.92,13.12-35.52,16.64-56.86A18.07,18.07,0,0,0,1777,598.44a156.32,156.32,0,0,1-43.37,7.2c-19.08.4-32.51-.88-43.59-4.1-13.2-3.84-25.42-10.93-37.24-17.78l-3.2-1.85a416.52,416.52,0,0,1-39.16-26.13c-16.14-11.94-35.49-24.65-56.59-28.39-25.44-4.52-47.83,5.55-64.53,14.82a218.82,218.82,0,0,0-24.82,15.72c-7.36,4.31-13.86,10.21-21.95,15.49-6.25,4.08-13.27,5.23-20.39,6.17a100,100,0,0,0-38.55,9.36c-22.11,10.31-37.52,24.58-45.82,42.44-8.45,18.19-9.33,39.28-2.6,62.68,6.28,21.85,15.71,37.75,28.83,48.62a80.61,80.61,0,0,0,9.58,6.73,10.92,10.92,0,0,0,2.14,1.32,79.92,79.92,0,0,0,19,7.68,27.84,27.84,0,0,1,10.63,10.19,38.67,38.67,0,0,1,4.35,12.73l-.53,30.2A279.18,279.18,0,0,1,1402,860a176.92,176.92,0,0,1-6.42,22.66c-2.52,6.7-5.6,12-9.4,15.86-3.63,3.79-9.21,7.25-16.19,10.51s-14.88,6.32-23.3,9.85a285.06,285.06,0,0,0-48.87,26.75,173.2,173.2,0,0,0-22.78,18.24,277.17,277.17,0,0,0-19.21,20.36,361.28,361.28,0,0,0-32.6,44.17l-3.59,5.7-3.64,6c-2.35,4-4.55,8-6.68,11.85-4.26,7.76-8.23,15.23-12.37,22.33a217.13,217.13,0,0,1-13.26,20.29c-5,6.89-10.32,14.14-15.47,21.89l-3.82,5.91-1.86,3-1.67,2.84-6.7,11.37-13.39,22.75-13,22.4c-4.38,7.5-8.88,15.19-13.23,23.22-2.21,4.12-4.21,7.83-6.49,12.71-2.14,4.63-3.93,9.21-5.52,13.66-3.19,8.9-5.65,17.3-8.32,24.8-4.77,14.24-13.64,28.36-21.16,47-.91,2.35-1.79,4.76-2.6,7.26l-1.12,3.68-.91,3.17c-1.22,4.24-2.43,8.55-3.6,13a225.28,225.28,0,0,0-5.84,28,120.09,120.09,0,0,0-.85,22.12,11.71,11.71,0,0,0-.9,3.31c-.68,6.11.2,11.7,1.66,17.65s5.34,13.59,2.69,19.79-8.91,9.09-15.82,10.23h-.36c-6.41-.11-12.82-.22-25.65-.22a123.78,123.78,0,0,1-22.56-1.75,159.4,159.4,0,0,0-28.11-2.18,140.75,140.75,0,0,0-28.53,2.56,105.52,105.52,0,0,1-22.14,2c-12,0-17.79-.45-23.94-.92-6.57-.51-13.36-1-26.72-1-12.06,0-17.91-.4-24.12-.81-6.53-.44-13.27-.89-26.55-.89-12.56,0-18.84-.08-25.12-.15s-12.78-.16-25.55-.16c-12.54,0-18.81-.09-25.08-.17s-12.79-.18-25.58-.18c-12.64,0-19,0-25.27,0s-12.69,0-25.39,0a188.51,188.51,0,0,0-27.64,1.78,153.45,153.45,0,0,1-23,1.48c-13.27,0-20,.45-26.53.88-6.21.41-12.07.8-24.14.8-38.29,0-69.44,29.9-69.44,66.65,0,8.37.1,12.55.2,16.73.1,4,.19,7.93.19,15.86,0,28,17.9,53.33,42.22,64.48,11.63,10.94,10.52,29.37,10,44.21a10.3,10.3,0,0,0,1.21,5.34,188.08,188.08,0,0,1-1.43,21.26,228,228,0,0,0-1.69,29.85,243.51,243.51,0,0,1-1.2,26.15,278,278,0,0,0-1.35,29.46c0,16.11,4.87,30.93,9.16,44,1.75,5.32,3.39,10.33,4.67,15.21,4.54,17.37,10.28,37.46,20.93,56.24,9.06,16,20.85,31,37.13,47.39a216.73,216.73,0,0,0,47.71,36.76,161.77,161.77,0,0,1,23.92,16,197.1,197.1,0,0,0,28.47,19c13.9,7.82,21.07,11.61,28,15.27s13.68,7.23,27.15,14.81c17.73,10,29,20,35.58,31.54,6.36,11.22,9.2,25.78,9.2,47.19,0,17.16-3.78,32.16-11.55,45.86s-17.46,28.55-31.29,36.33c-13.38,7.53-20,10.94-27,14.55s-14.29,7.34-28.29,15.22c-14.16,8-21.11,12.44-27.84,16.77-6.57,4.23-12.78,8.22-26,15.66-2.48,1.4-5,2.77-7.47,4.14-14.82,8.17-30.15,16.61-43,29.57-12.49,12.56-20.56,27.29-28.35,41.53-1.66,3-3.31,6.06-5,9-8,14.11-17.92,33.13-23.68,55.13-4.64,17.73-9.9,37.84-9.9,59.6a207.17,207.17,0,0,0,2,30.72,173.8,173.8,0,0,1,1.68,26.1c0,14.07-.11,21.1-.22,28.13s-.22,14.34-.22,28.69c0,11,.12,17.83.27,23.61a30.48,30.48,0,0,1-3.74,9.91c-6.75,11.15-17.87,16.57-25.59,25.76-12.29,11.6-19.67,28.34-19.67,47.94,0,7.88-.11,11.7-.23,15.76s-.25,8.42-.25,16.84c0,37.11,27.85,65.09,64.79,65.09a90.5,90.5,0,0,1,21.7,2.24,125.4,125.4,0,0,0,29,3c12.81,0,19.22-.1,25.63-.2s12.53-.19,25.07-.19h50.66c13.22,0,19.94-.41,26.44-.81,6.23-.38,12.12-.74,24.24-.74a163.33,163.33,0,0,1,23.15,1.41,198.78,198.78,0,0,0,27.51,1.67,240.37,240.37,0,0,0,27.1-1.32,206.22,206.22,0,0,1,23.58-1.15c12.42,0,18.45.17,24.83.35s12.92.36,25.84.36a175.42,175.42,0,0,0,27.83-1.94,139.2,139.2,0,0,1,22.83-1.6,107.57,107.57,0,0,1,22.19,2,143,143,0,0,0,28.47,2.51,134.69,134.69,0,0,0,28.69-2.71,99.77,99.77,0,0,1,22-2.08c13,0,19.62-.25,26-.5s12.32-.47,24.64-.47c12,0,17.78.45,23.94.92,6.57.51,13.36,1,26.72,1,12.54,0,18.81.08,25.08.17s12.79.17,25.58.17a120.8,120.8,0,0,1,22.5,1.79,157,157,0,0,0,28.16,2.23c36.72,0,68.94-33.25,68.94-71.15a67.67,67.67,0,0,0-3.08-21.34,32.66,32.66,0,0,1-1.65-11.26c0-22-9.3-41.15-24-53.56-3.72-4.81-8-9-12.53-14-6.62-7.21-6-17.69-6.81-27.53.07-3.48.12-7.42.12-12.17a295.26,295.26,0,0,0-1.32-30,260.55,260.55,0,0,1-1.18-26.83,210.17,210.17,0,0,0-1.94-30.69,177,177,0,0,1-1.66-26.14c0-21.23-.41-40.37-5.48-59.74-5.43-20.75-10.74-39.37-20.73-57-10.89-19.2-23.14-35.7-36.41-49-12.67-12.74-28.82-24.56-49.36-36.11a256.77,256.77,0,0,0-30.07-14.75,222,222,0,0,1-26.42-13,232.12,232.12,0,0,1-24.89-15.84,266.35,266.35,0,0,0-28.19-17.94c-16.78-9.44-29.14-20.61-35.74-32.31-7.16-12.67-7.15-29.57-7.14-45.92v-6.28c-.06-15.63-.13-31.78,6.56-43.62,7.46-13.2,22.83-23.07,36.89-31a228.87,228.87,0,0,0,28.31-18.41,195.88,195.88,0,0,1,24.47-15.9,255.14,255.14,0,0,1,26.54-13.25,290,290,0,0,0,29.73-14.85c16.28-9.16,32-21.44,48-37.53,13-13.11,21.55-28.38,29.78-43.15q1.92-3.44,3.86-6.89c2.62-4.62,5.76-9.29,9.09-14.23,7.57-11.23,16.14-24,20.15-39.26,4.09-15.6,3.49-31.13,2.91-46.15-.2-5.12-.38-10-.38-14.74a144.29,144.29,0,0,1,2-25.7,180.81,180.81,0,0,0,2.36-31.12,176.29,176.29,0,0,0-2.44-31.2,139.57,139.57,0,0,1-2-25.62v-.09c3.83-11.44,8.92-24.35,15.43-21.25,6,2.87,7.32,13.92,9.19,19.51.18.55.4,1.05.59,1.59.17,1,.31,2,.49,3a328,328,0,0,0,9,36.11,333.7,333.7,0,0,0,12.83,34.85c2.39,5.61,4.87,11.13,7.39,16.56l1.68,3.69,1.51,3.57c1,2.44,2,5,2.92,7.63,3.88,10.56,7.74,22.65,14.18,34.85,3.22,6,6.34,11.08,9.62,16.32l9.65,15c3.15,4.87,6.22,9.66,9.11,14.42,1.31,2.17,3.15,5.28,4.89,7.94s3.53,5.33,5.31,7.85c7.11,10.1,14,19,19.48,28l2,3.41,2.13,3.8,4.27,7.59,8.54,15.18c5.69,10.12,11.51,20.19,16.56,30.57l15.71,30.92c5.2,10.34,10,21,15,31.55s10.22,21.25,14.49,31.25l13.41,32.53,3.66,8.34c1.12,2.47,2.19,5,3.25,7.58,2.12,5.16,4.17,10.49,6.26,15.95s4.21,11.05,6.52,16.73c.29.71.61,1.43.9,2.14a232.75,232.75,0,0,1,5.54,93.93c-2.85,7.8-4.52,12.64-6.13,17.3-2,5.83-3.91,11.35-8.08,22.6-4.29,11.57-6.35,17.38-8.42,23.2s-4,11.39-8.25,22.73a101.52,101.52,0,0,1-9.17,19.26,136.54,136.54,0,0,0-11.92,25,235,235,0,0,0-7.92,25,201.25,201.25,0,0,1-6.87,21.66,155,155,0,0,0-7.49,26.24,119.62,119.62,0,0,1-6,20.91c-4.11,11.09-6.34,16.39-8.7,22s-4.89,11.64-9.28,23.46c-5.26,14.18-2,28.68,7.74,38.14,1.94,5.31,2.7,10.84.81,16.89-.45,1.43-.92,2.81-1.41,4.18L1439,2551.32c-4.08,3.95-6.51,9.22-10.48,14.46a30.3,30.3,0,0,1-5.58,5.52c-20.09,8.48-37.33,21.17-52.37,35.22q-1.74,1.62-3.42,3.29c-.92.85-2.75,2.77-4.26,4.55a48.56,48.56,0,0,0-10.29,40,49.36,49.36,0,0,0,4.67,13.42l1.72,3.05,1.14,1.86,2.28,3.71,9.13,14.85,18.26,29.7,9.13,14.85,2.28,3.71.75,1.18.95,1.43c.62,1,1.35,1.85,2,2.77a51.49,51.49,0,0,0,35.06,19.44c1.14.1,2.27.25,3.41.26l1.71,0h1.37l4.36,0,8.72-.05,34.86-.22,69.73-.43q17.43-.07,34.86-.34l4.36-.06c.3,0,2.46-.05,4.09-.22a31.83,31.83,0,0,0,5.07-1,30.52,30.52,0,0,0,22-31.23,31,31,0,0,0-.76-5.08l-.71-2.43c-.12-.35-.28-.91-.37-1.09l-.27-.62-2.2-4.91a87.7,87.7,0,0,0-26.4-33.42,97.35,97.35,0,0,0-28.77-15c-4.74-2-9.9-3.52-14.89-6a59.3,59.3,0,0,1-20.31-16.81l-3.16-7.28a63.17,63.17,0,0,1,2.82-38.7l4.46-8.24a10.94,10.94,0,0,0,2.69-3.2c5.18-9.24,9.64-17.27,21-18.32q1.8-.17,3.54-.42c1.26.11,2.52.23,3.78.23,11.55,0,22.84-4.63,29.32-15.25,3.33-5.46,6.67-12.05,10.55-19.69,4.72-9.3,10.07-19.84,16.88-31.32,4.63-7.81,8.65-16.15,12.91-25,3.45-7.17,7-14.53,11-21.85,3.68-3.75,8.26-6,14.15-5a21,21,0,0,1,11.06,6l2,5.15c2,5.17,3.57,10,5.14,15.4,3.15,10.6,5.6,22,9.8,34.62,2.22,6.37,4.47,11.93,7,17.72s5.06,11.27,7.63,16.62,5.11,10.55,7,15.13c.48,1.14.89,2.2,1.27,3.22a43.32,43.32,0,0,0,3.21,7,32,32,0,0,0,30.93,16.41c2.73.18,5.56.44,7.69,1.66a6.59,6.59,0,0,1,2.24,2.09l2.25,8.18c0,.14,0,.28.07.41a42.24,42.24,0,0,0,2.2,7.85l5.36,19.48a70.27,70.27,0,0,1-7.88,33c-13.61,19.27-20.45,40-23.87,56.09a38.19,38.19,0,0,0,37.33,46.17h263.43a32.11,32.11,0,0,0,29.8-44.17C2051.9,2667.07,1999.21,2659.19,1956.87,2652.86ZM1816.16,1180.75c7.83,2,11.45,10.86,15.72,17,1.43,2.06,2.92,4,4.46,5.77,1.9,3.16,3.68,6.18,5.2,9.09q1.21,2.32,2.22,4.53c.36.75.62,1.46.94,2.19l1.09,2.7,4.45,11.34c2.91,7.54,5.71,15,8.27,22.52,1.3,3.77,2.47,7.37,3.69,11.26l3.62,11.65c4.68,15.43,8.85,30.27,9.9,44.13a141.8,141.8,0,0,1,.05,21.72q-.39,5.49-1.16,11a33.69,33.69,0,0,1-1.9,7.52,20.52,20.52,0,0,1-8.1,10,38.69,38.69,0,0,1-7.32,3.73c-3.52,1.41-6.94,2.65-10.23,3.67-6.6,2.05-12.52,3.09-17.46,2.77a28.73,28.73,0,0,1-7.31-1.41,62.2,62.2,0,0,1-8.7-3.59A109.44,109.44,0,0,1,1796,1367c-2.9-2.24-5.88-4.68-8.7-7.12s-5.43-4.9-8.12-7.56c-5.4-5.33-10.77-11.17-16.24-17.2-1.2-1.31-2.41-2.67-3.61-4a18.07,18.07,0,0,0-5.38-6c-2.52-2.83-5-5.68-7.49-8.5L1730,1298.09l-8.31-9.36c-3.29-3.52-6.67-6.76-10-9.79-6.75-6.06-13.45-11.33-19.6-16.4-3.14-2.58-5.88-4.9-8.91-7.59-3.47-3.06-7-6-10.66-8.72a249,249,0,0,0-22.22-14.9l-2.1-1.24a31.17,31.17,0,0,1-6.18-6.87,15.53,15.53,0,0,1-2.38-9.07,106.57,106.57,0,0,0,8.66-28.92q1.79-3.4,3.84-6.66c.08,0,.14-.1.22-.14a14.6,14.6,0,0,1,6.55-.76l1.11.64a129,129,0,0,0,12.78,6.25c8.38,3.49,16.19,6.14,23.25,9,3.53,1.42,6.87,2.88,10,4.43s6.14,3.26,9.38,5.25c6.43,3.94,12.88,8.55,19.73,13.29,3.44,2.36,7,4.78,10.68,7.17s7.84,4.86,11.5,6.85,7.67,4.09,11.75,6,8.44,3.79,12.32,5.22,7,2.65,10.36,4.25,6.82,3.35,10.29,5.21l.19.1a12.67,12.67,0,0,0,13.33-21.49c-3-2.16-6.15-4.3-9.41-6.39-5.65-7-10.16-15.37-9.49-24.58C1797.37,1188.93,1804.84,1177.85,1816.16,1180.75ZM1459.33,914.42a135.57,135.57,0,0,0,11.91,14.88,139.52,139.52,0,0,0,13.81,13.29c2.51,2.08,4.82,4,7.67,6a68.41,68.41,0,0,0,9.93,5.83,64.36,64.36,0,0,0,22.36,6,66.18,66.18,0,0,0,41.8-10.58c14.22-5.79,31.22-10.35,30.44,4-.45,8.27-6.57,15.78-10.06,23-.21.43-.36.86-.55,1.29a208.67,208.67,0,0,1-49.07,48.7,29.81,29.81,0,0,1-18.54,4.26,459,459,0,0,1-97.59-77.46c-1.73-2.64-3.47-5.29-5.14-8.09-5.4-9-4.11-16.65-.42-24.6a84.47,84.47,0,0,0,14.3-25.3,210.88,210.88,0,0,0,7.71-27.53,316.24,316.24,0,0,0,7.77-54.67l.1-8.37a11.85,11.85,0,0,0,.27-2.6c-.08-13.78.49-40.28,13.4-50.07,2.44-1,4.86-2.11,7.24-3.3a23,23,0,0,1,7.51-.28,32.16,32.16,0,0,1,12.15,4.39c11.94,11.13,27.59,21.06,46.68,29.58a168.51,168.51,0,0,0,21.08,7.71c12.18,4.81,28.07,5.71,37.56,14,15.49,13.55,8.42,37,.69,52.45a12.05,12.05,0,0,0-.91,2.46q-2.68,5.53-5.54,10.94a205.1,205.1,0,0,1-17.45,26.47c-1.5,2.18-3.35,4.07-5,6.11s-3.35,4.09-5.2,6l-5.55,5.65c-.89.89-1.92,2-2.7,2.72s-1.36,1.25-2.1,1.81a33.28,33.28,0,0,1-20.89,7.24,34.87,34.87,0,0,1-16.85-4.36c-2-1.15-4.44-2.63-6.59-4q-6.58-4.32-12.83-9.24c-4.13-3.31-8.07-6.88-12-10.57l-.2-.19a12.71,12.71,0,0,0-19.23,16.4Zm-270.39,242.42,5.07-8.63,1.63-2.78,1.56-2.53,3.26-5c4.47-6.75,9.44-13.49,14.64-20.72a257.92,257.92,0,0,0,15.25-23.39c4.62-7.93,8.82-15.82,12.87-23.34,2-3.76,4-7.41,6.06-10.92l3.08-5.16,3.33-5.36a322.39,322.39,0,0,1,29-39.91c10.86-12.79,21.58-23.66,34.26-32.15a253.78,253.78,0,0,1,37-21.12c6.46-2.26,13.22-3.62,19.76-2.11a31.57,31.57,0,0,1,12.46,6.51c60.1,68.83,127.89,102.52,131.06,104.08a14.46,14.46,0,0,0,13.28-.3c46.58-25.44,74.88-61.81,90.88-89.28.27-.34.56-.65.82-1,3.15-4.23,6.68-13.25,11.78-15.23,5.93-2.3,14.13,3.75,19.36,6,1.11.47,2.18.86,3.26,1.24,1.3.69,2.58,1.36,3.89,2.06,7,3.84,14.92,8,21.19,11.58a161.31,161.31,0,0,1,35.07,27.14c5.72,5.77,11.12,11.38,16.15,17.15a206.55,206.55,0,0,1,14,17.82c2.15,3.05,4.13,6.16,6.46,9.75l6.64,10.3c4.37,6.83,8.6,13.61,12.64,20.45l6.22,10.71c2.25,3.79,4.51,7.42,6.73,10.95,2.84,4.52,5.54,8.86,8.14,13.15a29.22,29.22,0,0,0,1.37,4.13c1.77,4.21,6,8.36,6.56,13,.92,8.28-6.62,14-13.17,17.95a160.09,160.09,0,0,0-21,13.09c-5.92,2.82-10.39,7.06-16.3,10.5-6.94,4-13.7,2.61-20.07-.56-3.48-2.38-7.16-4.8-11.23-7l-.37-.19-.63-.43a11.07,11.07,0,0,0-2.86-1.37c-2.88-1.46-5.74-2.83-8.54-4.08-8.11-3.59-15.82-6.51-22.55-9.62a94.27,94.27,0,0,1-9.35-4.75c-3.23-1.85-6.44-3.9-9.67-6-6.49-4.22-12.88-8.95-20.2-13.84a115.73,115.73,0,0,0-12.67-7.53,66.39,66.39,0,0,0-16.06-5.26c-9.88-2-18.38-2.48-26.52-3.27-4.06-.37-8-.75-11.83-1.2-3.49-.43-8.49-1.09-12.79-1.45-8.87-.78-17.53-1.08-26-1.21s-16.68-.11-25.38,0a193.78,193.78,0,0,0-27.19,2.2,109.13,109.13,0,0,0-14.49,3.34c-2.46.76-4.92,1.64-7.39,2.64l-3.68,1.62-3.38,1.67c-8.92,4.64-18.15,11.07-25.4,20.65a58,58,0,0,0-8.53,16,62.15,62.15,0,0,0-3.19,17.32c-.17,3.07-.06,5.1,0,7.42s.17,4.61.28,6.93a125,125,0,0,0,1.68,14.42,82.19,82.19,0,0,0,4.31,15.49,51.74,51.74,0,0,0,10,16.25,43,43,0,0,0,17.91,11.66,61,61,0,0,0,17.62,2.93c10.52.29,19.3-1,27.83-2.09s16.47-2.48,24.28-3.48l6.44-.87,6.43-1,12-1.94a122.83,122.83,0,0,1,21.35-1.73,61.85,61.85,0,0,1,9.49.89,34.62,34.62,0,0,1,7.76,2.3c5.4,2.23,11.45,6.08,18.34,10.61,3.46,2.26,7.16,4.68,11.25,7.08l5.34,3.11,5,3a211,211,0,0,1,18.77,12.69q4.39,3.36,8.44,7c3.12,2.79,6.65,5.82,9.87,8.48,6.55,5.43,12.77,10.4,18.26,15.39q2.1,1.91,4,3.81c6.32,11,15.1,19.91,23.55,29.61a62.85,62.85,0,0,1,14,26c0,3.27,0,6.55-.07,9.8-.05,3.89-.1,7.7-.08,11.4a242.76,242.76,0,0,1-1.27,25.33,36.49,36.49,0,0,1-6,11.7c-5.87,7.33-15.19,10.39-24,12.95-6.76,1.17-14.28,2.23-22.72,3-6.65.59-14.74-.28-24.11-1.28a259.54,259.54,0,0,0-31-2c-8.48.1-17,1.3-25.25,2.46-9.86,1.39-20.08,2.82-30,2.32-11.88-.6-24.62-2-38.1-3.58-5.59-.64-11.28-1.28-17.06-1.89-7.75-.81-15.82-1.77-24.27-2.87a82.85,82.85,0,0,1-19.79-7.87c-8.4-4.81-15.89-10.86-23.15-17.21l-.62-.77c-2.9-3.51-5.93-7.05-9.13-10.55a173.61,173.61,0,0,0-21.26-19.85l-2.37-1.87-1.14-.94a95.49,95.49,0,0,0-9.3-8c-2.36-2-4.81-4-7.49-6.08-1.51-1.16-3.11-2.29-4.74-3.4-.73-.6-1.46-1.21-2.19-1.85-15.38-13.35-20.85-33.87-26.17-52.77a11.66,11.66,0,0,0-1.06-2.54c-2-8.73-4.14-17.9-6.32-27a100.9,100.9,0,0,1,15.31-63.94c1.6-1.75,3.19-3.51,4.79-5.25,5.89-6.36,12.28-12.78,18.15-18.45l.45-.43a12.66,12.66,0,0,0-16-19.49c-8.19,5.71-15.17,11.49-22.42,17.55-7.09,6.09-13.91,12.47-20.6,19-5.73,5.55-11.26,11.3-16.66,17.18-.79.69-1.63,1.38-2.56,2-8.14,5.85-15.75-1-21.53-6.67a11.58,11.58,0,0,0-2.38-1.76,106,106,0,0,0-43.86-36.85,99.15,99.15,0,0,0-34.67-8.48,24.32,24.32,0,0,0-3-.91c-3.37-.76-7.91,0-11.07-1.38C1189.13,1164.21,1188.49,1160.68,1188.95,1156.84Zm409.34,34.9a39.29,39.29,0,0,1-16.33,7.82c-2.65-.24-5.28-.37-7.88-.43a159.63,159.63,0,0,0-27.86,2.27l-12.42,2.07-5.78.93-5.81.81c-8.54,1.13-16.78,2.5-24.65,3.64s-15.41,2-21.39,1.85a26,26,0,0,1-6.71-.89,5.44,5.44,0,0,1-2.6-1.65c-1.73-1.58-4-6.77-5.06-13a88.14,88.14,0,0,1-1.2-10.12c-.09-1.8-.24-3.55-.24-5.41s-.1-3.89,0-4.94a21.28,21.28,0,0,1,4.24-12.68c2.69-3.65,7.14-7.15,12.78-10.1l2.16-1.08,2-.88c1.36-.54,2.77-1.07,4.25-1.53a72.5,72.5,0,0,1,9.57-2.23,158.27,158.27,0,0,1,22-1.82c7.77-.17,16.15-.2,24.06-.14s15.79.33,23.34,1c3.91.32,7.08.73,11.77,1.29,1.52.17,3,.28,4.46.43,7.64,2.15,15.4,5.31,20.12,11.2C1603.89,1166.16,1602.9,1180.48,1598.28,1191.74Zm-275,131.93a28.86,28.86,0,0,1-1.3,9.89c-2.85,8-13.48,7-20.38,6.88h-.11c-4-.62-8.07-.94-12.22-2.27-8-2.56-7.26-10.34-4.85-17.17l.18-.34c2-3.81,4.34-7.5,6.5-11.25,2.94-5.46,6.28-10.69,9.57-16,4.17-4.45,9.08-7.12,13.15-1.65a52.14,52.14,0,0,1,3.32,5.13C1319.36,1306.28,1321.44,1315.37,1323.32,1323.67Zm-50.14,1307.1a26.74,26.74,0,0,1,4.26.38,27.87,27.87,0,0,1,4.45,2.55c9.65,6.95,9.44,16.75-2,21.33-7.95,3.18-17.07,2.75-25.32,4.72a51.49,51.49,0,0,0-7.36,2.4c-5.56.7-11.07,1.88-15.4,2.8a94.49,94.49,0,0,1-15.19,1.94c-5.16.26-10.9.26-16.4.14s-10.71-.52-16.48-1-12.32-1-18.47-1.07-12.19,0-18.29.19-12.41.64-18.48,1.33-11.33,1.42-16.83,1.8-11.29.64-16.65.69a102.48,102.48,0,0,1-15.61-.93c-5-.64-11.14-2.09-17.73-2.76a126,126,0,0,0-19.07-.51,10.85,10.85,0,0,0-.15,21.68h.15a124.42,124.42,0,0,1,15.9,1.64c5,.84,10.17,2.46,16.7,3.82a120.19,120.19,0,0,0,19.27,2.24c6.32.26,12.14.33,18.41.2s12.55-.59,18.11-1.06,10.91-.61,16.52-.62,11.28.11,16.76.4,10.7.81,16.48,1.53,12.34,1.29,18.48,1.53,12.13.34,18.66.13a124.82,124.82,0,0,0,19.59-2.17l4.95-1c14.59-1.71,30.39-1.55,43.5,3.19,16,5.8,13.61,16.6,6.42,26.51-5.6,4.7-12.35,7.68-19.17,7.68a120.79,120.79,0,0,1-22.5-1.79,157,157,0,0,0-28.16-2.23c-12.54,0-18.81-.08-25.08-.17s-12.79-.17-25.58-.17c-12,0-17.78-.45-23.94-.92-6.57-.51-13.36-1-26.72-1-13,0-19.62.25-26,.5s-12.32.47-24.64.47a134.71,134.71,0,0,0-28.69,2.71,99.76,99.76,0,0,1-22,2.08,107.57,107.57,0,0,1-22.19-2,143,143,0,0,0-28.47-2.51,175.42,175.42,0,0,0-27.83,1.94,139.2,139.2,0,0,1-22.83,1.6c-12.42,0-18.45-.17-24.83-.35s-12.92-.36-25.83-.36a240.39,240.39,0,0,0-27.1,1.32,206.21,206.21,0,0,1-23.58,1.15,163.39,163.39,0,0,1-23.15-1.41,198.72,198.72,0,0,0-27.51-1.67c-13.22,0-19.95.41-26.45.81-6.23.38-12.12.74-24.23.74H665.18c-12.82,0-19.22.1-25.63.2s-12.53.19-25.07.19a90.5,90.5,0,0,1-21.7-2.24,125.4,125.4,0,0,0-29-3c-17.13,0-28.64-11.63-28.64-28.95,0-7.88.11-11.71.23-15.76s.25-8.42.25-16.84c0-17.49,11.05-28.8,28.16-28.8a153.65,153.65,0,0,0,28.23-2.29,117.61,117.61,0,0,1,22.44-1.82,211.76,211.76,0,0,0,27.34-1.53,177.73,177.73,0,0,1,23.31-1.31c12.27,0,18.22.26,24.53.54s13.06.58,26.13.58a110.9,110.9,0,0,1,22.28,1.91,146.47,146.47,0,0,0,28.39,2.43,238.14,238.14,0,0,0,27.1-1.33,205.84,205.84,0,0,1,23.57-1.16c12.59,0,18.88.05,25.18.11s12.74.11,25.48.11c12.44,0,18.48.15,24.88.31s12.89.32,25.79.32c12.13,0,18,.35,24.26.72,6.49.39,13.2.79,26.41.79,12.16,0,18.06.34,24.32.69,6.48.37,13.18.74,26.36.74a145.44,145.44,0,0,0,28.4-2.45,110.33,110.33,0,0,1,22.26-1.92c12.37,0,18.38.2,24.74.41s13,.43,25.94.43a259,259,0,0,0,26.95-1.21,226.15,226.15,0,0,1,23.72-1.06c12.14,0,18,.35,24.28.72,6.49.38,13.21.78,26.42.78,12.26,0,18.22.27,24.53.56S1260.09,2630.77,1273.18,2630.77Zm-17.44-906.68a180.9,180.9,0,0,0-2.36,31.13c0,5.47.21,10.89.41,16.14.5,12.95,1,25.18-1.76,35.6-2.45,9.35-8.62,18.52-15.16,28.22-3.56,5.29-7.25,10.76-10.55,16.59-1.34,2.37-2.67,4.75-4,7.13-7.36,13.2-14.31,25.68-23.83,35.26-13.62,13.7-26.73,24-40.08,31.52a255.31,255.31,0,0,1-26.54,13.25,290.42,290.42,0,0,0-29.73,14.85,228.87,228.87,0,0,0-28.31,18.41,196,196,0,0,1-24.46,15.9c-18.4,10.36-38.81,23.76-50.64,44.7-11.4,20.18-11.31,43.11-11.23,61.54v6.11c0,19.05,0,42.77,11.81,63.72,10,17.69,26.64,33.18,49.49,46a232.12,232.12,0,0,1,24.89,15.84,266.59,266.59,0,0,0,28.18,17.94,256.29,256.29,0,0,0,30.08,14.76,222,222,0,0,1,26.41,13c17.6,9.91,31.16,19.75,41.46,30.11,11,11.05,21.29,25,30.59,41.38,7.83,13.8,12.42,30,17.2,48.29,4,15.23,4.3,31.23,4.3,50.58a210.17,210.17,0,0,0,1.94,30.69,177,177,0,0,1,1.66,26.14c0,1,0,1.87,0,2.8a12.26,12.26,0,0,0-.27,2.83c.51,20.62,4.74,53.53-7.73,70.88-9.88,13.74-26.5,17.15-42.85,17.74-2.29-.11-4.38-.23-6.49-.35-6.49-.38-13.21-.78-26.42-.78a259,259,0,0,0-26.95,1.21,226.12,226.12,0,0,1-23.72,1.06c-12.37,0-18.38-.2-24.74-.41s-13-.43-25.94-.43a145.43,145.43,0,0,0-28.4,2.45,110.35,110.35,0,0,1-22.26,1.92c-12.16,0-18.06-.34-24.32-.69-6.48-.37-13.18-.74-26.36-.74-12.13,0-18-.35-24.26-.72-6.49-.39-13.21-.79-26.41-.79-12.44,0-18.48-.15-24.88-.31s-12.89-.32-25.79-.32c-12.59,0-18.88-.05-25.18-.11s-12.74-.11-25.48-.11a238.14,238.14,0,0,0-27.1,1.33,205.84,205.84,0,0,1-23.57,1.16,110.9,110.9,0,0,1-22.28-1.91,146.47,146.47,0,0,0-28.39-2.43c-12.27,0-18.23-.26-24.54-.54s-13.06-.58-26.12-.58a211.76,211.76,0,0,0-27.34,1.53l-4.14.45c-7.42-1.27-15-1.57-23-2.38-22.23-2.27-25.64-19.23-26.26-38.23,0-11.86.12-18.38.22-24.83.11-7.17.22-14.34.22-28.69a207.17,207.17,0,0,0-2-30.72,173.8,173.8,0,0,1-1.68-26.1c0-17.11,4.64-34.82,8.73-50.44,4.7-18,13.24-34.25,20.16-46.45,1.79-3.15,3.53-6.34,5.27-9.52,6.89-12.59,13.39-24.47,22.27-33.4,9.24-9.29,21.69-16.15,34.86-23.41,2.59-1.43,5.18-2.85,7.76-4.3,14.15-8,21.1-12.43,27.83-16.76,6.57-4.23,12.78-8.22,26-15.67,13.4-7.54,20-11,27.08-14.57s14.28-7.34,28.26-15.2c21.54-12.12,34.84-32.08,45-50,10.78-19,16.25-40.44,16.25-63.69,0-18.86-1.58-43.29-13.91-65-9.93-17.5-25.59-31.86-49.29-45.21-13.9-7.82-21.07-11.61-28-15.27s-13.68-7.22-27.15-14.81a162.12,162.12,0,0,1-23.92-16,197.08,197.08,0,0,0-28.47-19,181.13,181.13,0,0,1-39.82-30.75c-13.94-14-23.89-26.64-31.31-39.73-8.5-15-13.44-32.41-17.41-47.56-1.56-5.95-3.46-11.74-5.3-17.33-3.78-11.52-7.36-22.4-7.36-32.73a243.54,243.54,0,0,1,1.2-26.16,277.93,277.93,0,0,0,1.35-29.46c0-4.14.08-7.55.2-10.55a12,12,0,0,0,.35-2.57q.08-2.84.18-5.75c.22-2.43.47-4.66.72-6.9.57-5,1.14-10.16,1.45-17.62,3.42-20.83,12.09-39.54,35.7-45.81,16-4.25,32.79-6.75,49.62-8.87,9.49.05,14.77.27,20.31.5,6.41.26,13,.54,26.08.54,12.79,0,19.18-.08,25.58-.17s12.55-.17,25.1-.17a162.45,162.45,0,0,1,23.14,1.42,198.06,198.06,0,0,0,27.52,1.68c12.59,0,18.89.05,25.18.11s12.75.11,25.49.11c13.36,0,20.14-.52,26.71-1,6.16-.47,12-.91,24-.91,13.39,0,20.19-.54,26.77-1.07,6.14-.49,11.95-1,23.89-1a213.75,213.75,0,0,1,23.63,1.12,248.51,248.51,0,0,0,27,1.27c12.45,0,18.5.14,24.9.3s12.88.31,25.77.31a131.56,131.56,0,0,0,28.78-2.8,96.56,96.56,0,0,1,21.88-2.13c12.09,0,18,.38,24.17.78,6.51.42,13.24.85,26.48.85,11,0,17.29,0,22.91-.06,21.18,1.84,43.55,6,51.69,23.17,3.43,7.23,5.32,14.8,6.85,22.45a171.59,171.59,0,0,0,2.38,25.95,139.57,139.57,0,0,1,2,25.62A144,144,0,0,1,1255.74,1724.09Zm17.44-159.32c-12.74,0-19.12.06-25.49.11s-12.59.11-25.18.11-19.07,0-25.43.07-12.61.07-25.23.07c-12.09,0-18-.38-24.17-.77-6.51-.42-13.24-.85-26.48-.85a131.56,131.56,0,0,0-28.78,2.8,96.56,96.56,0,0,1-21.88,2.13c-12.45,0-18.5-.14-24.9-.3s-12.88-.31-25.77-.31a213.75,213.75,0,0,1-23.63-1.12,248.51,248.51,0,0,0-27-1.27c-13.39,0-20.19.54-26.77,1.07-6.14.49-11.95,1-23.89,1-13.36,0-20.15.52-26.71,1-6.16.47-12,.91-24,.91-12.59,0-18.89-.05-25.19-.11s-12.75-.11-25.49-.11a162.46,162.46,0,0,1-23.14-1.42,198,198,0,0,0-27.52-1.68c-12.79,0-19.18.08-25.58.17s-12.55.17-25.1.17c-12.29,0-18.27-.25-24.59-.51s-13-.54-26.08-.54a218.24,218.24,0,0,0-27.3,1.48,184.87,184.87,0,0,1-23.4,1.27c-12.92,0-19.49.18-25.84.35s-12.43.34-24.86.34c-8.08,0-15.93-3.84-21.95-9.74-2.07-3.95-2.93-8.18-1-12.33,3.66-8,17.83-10.35,25.24-11.88,14.84-3.05,30-4.38,45.09-5.31,6.24-.12,12.52-.2,18.28,0,3.53.12,6.88.36,10.38.75l11.55,1.35a211.53,211.53,0,0,0,24.58.82,216.87,216.87,0,0,0,24.27-1.8,188.49,188.49,0,0,1,21.47-1.61l22.92-.39,22.85-.5,11.3-.21c3.61-.07,7.11,0,10.55.21s6.73.56,10.4,1.08,7.85,1.14,12.05,1.49a183.36,183.36,0,0,0,24.47.26,221.13,221.13,0,0,0,23.81-2.45,188.13,188.13,0,0,1,21.65-1.66h.05a10.85,10.85,0,0,0-.05-21.68,211,211,0,0,0-24.14.65,197.42,197.42,0,0,1-21.89,1.18,184.11,184.11,0,0,1-21.34-1.07c-3.4-.41-6.76-1-10.65-1.73s-8.17-1.35-12.35-1.73-8.33-.63-12.35-.71l-11.63-.21-23-.1-22.94-.19a217.93,217.93,0,0,0-24.29,1.2,189.62,189.62,0,0,1-21.48,1.06,182.89,182.89,0,0,1-21.22-.95l-11.21-1.45c-4.1-.51-8.37-.87-12.48-1.07-8.37-.4-16-.31-23.87-.25-2.44,0-4.83.14-7.24.23-10.64-.11-21.29-.2-31.93-.36-8.09-.12-25.53,1.85-27.39-10.24-.68-4.4,1.47-8.6,4.49-12.39a35.65,35.65,0,0,1,19-5.73c13.26,0,20-.45,26.53-.88,6.21-.41,12.07-.8,24.14-.8a188.82,188.82,0,0,0,27.64-1.78,152.91,152.91,0,0,1,23-1.49c12.63,0,19,0,25.27,0s12.69,0,25.39,0c12.54,0,18.81.09,25.08.17s12.79.18,25.58.18c12.56,0,18.84.08,25.12.15s12.78.16,25.55.16c12.06,0,17.91.4,24.12.81,6.53.44,13.27.9,26.55.9,12,0,17.79.45,23.94.92,6.57.5,13.36,1,26.72,1a140.75,140.75,0,0,0,28.53-2.56,105.4,105.4,0,0,1,22.14-2,123.62,123.62,0,0,1,22.56,1.75,159.58,159.58,0,0,0,28.11,2.18c12.51,0,18.76.11,25,.22,6.41.11,12.82.22,25.64.22,12.12,0,18,.36,24.24.74,6.5.4,13.22.81,26.44.81a152.83,152.83,0,0,0,28.24-2.3,114.94,114.94,0,0,1,14.56-1.66c4.1.61,8.28,1.18,12.57,1.61,4.74.49,9.6.81,14.54.92l3.74,0,4-.09c2.62-.12,5.17-.31,7.66-.56,6.7-.7,12.86-1.74,18.65-2.71,11.11,0,17.22-.13,23.08-.24,6.25-.12,12.51-.24,25-.24,15.69,0,29.45,16.31,29.45,34.9a83.53,83.53,0,0,0,2.19,20.15,48.13,48.13,0,0,1,1.36,12.45C1306.19,1552.59,1289.12,1564.76,1273.18,1564.76Zm68.14-123.53a110.89,110.89,0,0,0-30.06-9.14c-1.25-.23-2.48-.4-3.72-.56l-3.5-.47-6.34-.82-13.1-1.7c-8.9-1.09-18.12-2-27.62-2.4-2.38-.08-4.77-.14-7.18-.15s-5.27.05-7.77.22c-5.14.32-10,.93-14.59,1.6-9.07,1.34-17.26,2.91-24.59,3.64l-6.17.14-7.16.16c-3-.13-6-.34-9.11-.65-7.82-.79-15.92-2.14-24.5-3.61-4.25-.73-8.82-1.5-13.26-2.16q-6.11-.91-11.79-2.07c-7.52-1.52-14.5-3.65-19-6.22a15.14,15.14,0,0,1-4.58-3.6,27.2,27.2,0,0,1-2.07-3.08,42.17,42.17,0,0,1-2.22-4.13c-5.53-11.59-7.46-26.09-5.53-40a188.32,188.32,0,0,1,4.86-23.07l3.38-12.19,1.67-5.66c.53-1.63,1.14-3.31,1.79-5,5.3-13.73,15-29.41,21.56-48.16,3.14-8.9,5.57-17.21,8.26-24.68.57-1.64,1.16-3.16,1.75-4.66a11.38,11.38,0,0,0,2-3.5,75,75,0,0,1,6.29-13.57l.48-.86a75,75,0,0,1,18.62-20.68c20.23-9.47,41.85-10.1,61.56-1.3,15.66,7,28.35,19.29,36.76,34.8a11.72,11.72,0,0,0,1.14,2.44c.51.83.94,1.66,1.35,2.49s.71,1.63,1.06,2.45c4.1,10.6,1.34,21.79-3,32.33-2.81,4.28-5.55,8.61-8.1,13.06-2,3.54-4.1,7-6.07,10.6-2.35,3.44-4.6,7.15-7.17,10.94-10.48,15.47-26.67,24.28-44.85,27.21a9.42,9.42,0,0,0-5.54,2.76,12.72,12.72,0,0,0,4.55,23.81c18.16,2.19,36.13,1.36,51.34,2.88a235.15,235.15,0,0,1,23.59,3.87c8.2,1.66,16.82,3.6,26.7,4.92s19.48,1.22,28,1.32,15.92.34,20.46,2a56.16,56.16,0,0,1,17.37,9.45c2.89,2.2,5.84,4.74,9.06,7.57l5.11,4.45,2.84,2.37,2.74,2.19a136.8,136.8,0,0,1,16.75,15.81c2.65,2.93,5.27,6,7.9,9.21l8.26,10.27c6.53,7.75,12.81,13.82,18.3,19.84,2.75,3,5.3,5.91,7.58,8.8a86.65,86.65,0,0,1,6.16,8.9,112.14,112.14,0,0,1,9.52,20.2q1.94,5.37,3.44,11c1,3.8,2.07,8,2.9,11.82,1.71,7.66,2.69,15,2.17,20.09a20.2,20.2,0,0,1-.57,3.32,11.52,11.52,0,0,1-.43,1.27l-.21.58-.41.81a24.75,24.75,0,0,1-4.24,6c-6.41,7.31-20.26,10.38-24.44,6.28a43.11,43.11,0,0,1-7.16-5.54c-2.66-2.43-5.38-5.22-8.43-8.38-7.2-7.31-13.48-12.51-18.12-17.77a50.15,50.15,0,0,1-5.68-7.5c-.35-.67-.64-1.06-1.08-1.95l-1.26-2.44c-.81-1.71-1.64-3.4-2.44-5.23-3.22-7.19-6.38-15.59-10.6-24.42A119.46,119.46,0,0,0,1370,1464a18,18,0,0,0-11.05-12.28c-.48-.18-1-.25-1.46-.39-.56-.45-1.12-.93-1.69-1.36A84.12,84.12,0,0,0,1341.32,1441.24ZM1468,2573.8l14.21-26.27c4-5.25,9.12-9.89,15.22-8.86,2.28,1.26,4.79,2.61,7.67,4.12,2.44,1.28,4.62,2.37,6.68,3.38,4.86,4.48,7.16,9.22,5.55,17.48-.12.61-.24,1.2-.36,1.8l-14.26,26.37c-5.86,6.73-14.22,10.16-23.26,10.15a26.51,26.51,0,0,1-3-1.22,25.46,25.46,0,0,1-5.65-3.83C1465.61,2590.24,1466,2581.7,1468,2573.8Zm90.53,122.29a65.57,65.57,0,0,1,29,17.6,21.72,21.72,0,0,1,1.68,7.1c.15,3.78-1.46,5.85-3.88,7-7-.08-14.06-.18-21.09-.2l-69.73-.43-34.86-.22-8.72-.05-4.36,0H1446l-.26,0-.47,0c-.31,0-.62-.08-.93-.09a14,14,0,0,1-6.79-2.8,14.46,14.46,0,0,1-2.64-2.57c-.17-.26-.4-.47-.55-.74l-.26-.39-.14-.2-.29-.46-2.29-3.71-9.16-14.83-18.32-29.66-9.16-14.83-2.29-3.71-1.14-1.85c-.17-.33-.26-.5-.41-.75a11.47,11.47,0,0,1-1-3,11.17,11.17,0,0,1,.59-6.25,10.67,10.67,0,0,1,1.57-2.77c.21-.32,2.76-3,4.51-4.61a165.82,165.82,0,0,1,24-19.49c4-1.5,8.11-2.29,12.11-.93a36.46,36.46,0,0,1,7.15,3.54,62.55,62.55,0,0,0,20.79,16.48,65.88,65.88,0,0,0,24.62,6.44,25.93,25.93,0,0,1,9.75,4.45c10.43,8.19,8,21.19.41,29.75-2.35,1.21-4.66,2.5-6.91,3.95a12.66,12.66,0,0,0,12.42,22l.34-.16C1518.34,2691.3,1540,2690.59,1558.5,2696.1Zm68.92-262.87-.44.74c-5.8,10-10.63,20-14.89,28.89-3.9,8.11-7.59,15.77-11.43,22.23s-7.12,12.43-10.14,18.11a11.26,11.26,0,0,0-3.19,4.51,30.17,30.17,0,0,1-26.86,19.78c-6.85-3.2-11.76-5-16.21-6.71a165.77,165.77,0,0,1-22.41-10c-4.13-2.16-7.44-4-10.25-5.58a11.05,11.05,0,0,0-3.7-4.24c-8.56-5.89-18.31-12.24-21.74-22.55-1.77-5.32-1.63-10.89-.56-16.42,2.34-5.57,4.81-11.47,9.07-23a155.32,155.32,0,0,0,7.49-26.24,119.45,119.45,0,0,1,6-20.92,234.55,234.55,0,0,0,7.91-25,202,202,0,0,1,6.87-21.66,101.52,101.52,0,0,1,9.17-19.26,136.52,136.52,0,0,0,11.92-25c4.29-11.57,6.35-17.38,8.42-23.2.92-2.6,1.86-5.24,3-8.38,8.2-16.59,18.79-32.08,36-15,5.08,5,9,10.94,12.67,17,1.58,4.13,3.14,8.27,4.67,12.57,3.93,11,7.64,22.06,12.55,34,3.83,9,8.22,17.18,12.28,24.8A153.36,153.36,0,0,1,1627.41,2433.23Zm136.5,111.55c-9.25-3.07-15.41-9.57-20.71-17.06-1.82-3.86-3.58-7.67-5.22-11.47-2.15-5-4.28-10.32-5.92-15-3.26-9.66-5.83-21.21-9.32-33.11-1.71-5.89-3.76-12.2-6-18l-6.4-16.43-12.8-32.87-13.1-32.75-6.55-16.37a186.27,186.27,0,0,0-8-17.67c-5.68-11-11.3-20.78-15.26-30.21-4.05-9.79-7.83-20.93-11.81-32.07-2-5.6-4.09-11.3-6.34-17l-6.65-16.56-13.18-32.74-3.11-7.75c-.91-2.42-1.81-4.86-2.65-7.46-1.71-5.13-3.31-10.63-5-16.33s-3.58-11.69-5.83-17.79a148.57,148.57,0,0,0-8.15-18.2c-6.06-11.43-12.54-21.2-17.31-30.48-1.23-2.33-2.27-4.56-3.3-6.87l-3.22-7.66c-2.11-5.19-4.16-10.57-6.26-16.05s-4.26-11.12-6.6-16.81c-1.18-2.85-2.39-5.71-3.69-8.59l-3.42-7.77-13.42-32.54c-5-11.57-10.13-21.85-15.11-32.6s-9.91-21.36-15.25-32l-16.18-31.83c-5.22-10.72-11.15-21-17-31.3l-8.71-15.49-4.36-7.75-2.18-3.87-2.47-4.15c-6.82-11.07-14.31-20.71-20.68-29.8-1.6-2.28-3.11-4.51-4.55-6.73s-2.61-4.2-4.33-7.05c-3.2-5.27-6.46-10.36-9.68-15.34l-9.39-14.59c-3-4.7-6-9.66-8.27-14-4.58-8.57-8-18.89-12.17-30.35-1.05-2.87-2.15-5.8-3.37-8.8l-1.91-4.54-2-4.32q-3.62-7.81-6.95-15.57a297.39,297.39,0,0,1-11.49-31.17,292.28,292.28,0,0,1-8-32.15c-1-5.36-1.75-10.6-2.32-16.06s-1.08-11.14-1.39-16.63a223,223,0,0,1,.42-32.67c.09-1.11.16-2.17.24-3.27,3.36-10.64,9.09-19.44,18.93-18.29,4.57.53,10,4.06,14.89,7.6,5.8,5.91,11.46,10.72,15.58,15,3,3.08,6.35,6.52,10.13,9.95a79.54,79.54,0,0,0,13.59,10.19,48.92,48.92,0,0,0,19.79,6.65,50.86,50.86,0,0,0,5.59.23l4.55-.26a73,73,0,0,0,9-1.49,63.57,63.57,0,0,0,31.58-18.19,62.14,62.14,0,0,0,10.61-15.29l1-2.13,1-2.46a48.77,48.77,0,0,0,1.59-4.92,57.47,57.47,0,0,0,1.66-9.52c1-12.26-1-22.34-3-31.62-.2-.87-.4-1.68-.6-2.52-1.34-9.79-2.19-20.78,4-27.21s15.62-8.11,24.69-8.58c9.92,1.08,19.52,2,29,2.49,2,.11,4,.15,6,.15,11.11,0,21.5-1.46,30.84-2.78,7.44-1,14.47-2,20.62-2.1,9.12-.16,18.1.85,26.76,1.77,10.77,1.14,20.94,2.21,31.05,1.34,1.22-.11,2.37-.24,3.56-.36a11.3,11.3,0,0,0,4.84,0c2-.42,4.06-.85,6.15-1.26,4.29-.58,8.29-1.22,12.08-1.88,14.63-1.52,29.14.47,36.62,15.22,3.26,6.43,5.63,12.12,9,16.88,2.79,5.26,5.93,10.46,9.22,15.89,4.79,7.9,9.75,16.06,13.79,24.89,2.39,5.21,4.89,10.54,7.45,16,4.7,10,9.56,20.35,14.21,31,6,13.85,12.57,29.45,20,47.7,4,9.82,7.78,20.28,11.43,30.4,2.17,6,4.34,12,6.58,18,2.72,7.23,4.21,15.45,5.79,24.15,1.55,8.53,3.15,17.35,6.07,26.12,3,9.11,7,17.24,10.9,25.11s7.47,15.17,9.33,22.06c3,11.28,4.61,22.9,6.13,34.13.72,5.33,1.43,10.53,2.25,15.55a193.84,193.84,0,0,1,2.33,47.23c-1.13,13.8-4.86,29.82-8.58,45-1.28,5.24-2.42,10.67-3.52,15.92-2.09,10-4.25,20.27-7.55,30.28-2.67,8.1-6.23,16.43-10,25.26-2.65,6.21-5.39,12.64-8,19.34s-4.9,13.8-7.09,20.55c-2.72,8.38-5.54,17-9,25.11-1.56,3.68-3.05,7.4-4.52,11.11-5.88,8.12-13.58,13.19-22.73,6.55-4.12-3-6.93-7-9.62-11.09l-5-19.43-9.42-34-4.73-16.85c-1.48-5.26-2.82-10.74-4.15-16.34-2.64-11.18-5.33-23.15-8.82-35.05l-9.38-34-4.69-16.92c-1.57-5.33-3-10.82-4.5-16.42-2.9-11.17-5.83-22.92-9.42-34.69l-10.06-33.8-5.09-16.94c-2-5.94-4.08-11.7-6.23-17.3-4.31-11.25-8.55-21.75-12.25-32.34-4.33-12.42-9.76-23.34-14.49-33.61-2.37-5.15-4.5-10.11-6.33-15.08l-6.16-16.55c-4.1-11-8.17-22.07-12.47-33a12.66,12.66,0,0,0-24,7.82l.06.24c3,11.35,6.15,22.63,9.31,33.91l4.73,16.92c1.82,6.18,4,12.16,6.15,17.82,4.33,11.36,8.86,21.74,11.73,31.68,3.39,11.78,7.61,23.17,11.31,34,1.86,5.43,3.61,10.75,5.14,16l4.68,16.87,9.39,33.84c3.18,10.7,5.84,21.74,8.75,33.3,1.45,5.77,3,11.63,4.67,17.56l4.58,17,9.07,33.93c3,10.65,5.41,21.59,8.07,33.27,1.34,5.82,2.73,11.75,4.38,17.8l4.69,17.06,9.42,33.84,8.77,34,4.37,17,.55,2.13.73,2.53c.48,1.72,1,3.32,1.58,5,1.13,3.2,2.31,6.34,3.55,9.28,4.95,11.83,10.11,21.86,12.79,30.79a137.86,137.86,0,0,1,3.39,15c1,5.36,1.77,11,2.7,17s2,12.22,3.5,18.69a164.43,164.43,0,0,0,5.81,18.94c4.37,11.87,9.13,22.33,11.91,31.83.66,2.27,1.32,4.8,1.92,7.46s1.17,5.3,1.72,8c1.08,5.47,2.06,11.1,3.11,17s2.17,11.91,3.61,18.15l2,8.49c.6,2.59,1.13,5.27,1.65,8,2.08,10.86,3.53,22.56,6.29,35.2.67,3.11,1.5,6.43,2.46,9.71s2,6.38,3.09,9.43c2.19,6.09,4.56,11.73,6.75,17.08s4.17,10.33,5.54,14.9a103.84,103.84,0,0,1,3.15,14.64c1.69,10.47,2.08,21.93,4.35,35.36.3,1.69.63,3.4,1,5.16s.71,3,1.07,4.47l2.08,8.53,3.25,13.32c-.14,8.44-1.51,16.9-6.71,23.25-4.14,5.06-10.31,9-16.86,12.49l-5.8,2c-5.1,1.69-10.34,3.2-15.78,4.63s-10.61,2.66-15.69,3.56c-3.8.7-7.62,1.13-12,1.65A57.58,57.58,0,0,1,1763.91,2544.78Zm86,73.48a37.75,37.75,0,0,1-5.34,18.41,28.81,28.81,0,0,1-8,4.09,29.14,29.14,0,0,1-16.2.07,15.26,15.26,0,0,1-6.83-7.24L1802.92,2595c-.33-4.41.17-8.85,3.4-11.89a23.39,23.39,0,0,1,4.56-3.23,12,12,0,0,0,1.92-.27c6.71-1.64,15.3-4.39,21.61-.21,3.33,2.21,5.63,6,7.49,9.86Zm180.65,105.22c-1.5,2.21-4.23,3.43-7.12,4.23H1792.11c-2.94-.66-6.95-.83-9.48-2.38-2.09-1.27-2.82-3.54-2.95-6.05a114,114,0,0,1,16.19-36.19,29,29,0,0,1,19.42-6.3,69.31,69.31,0,0,0,7.09,1l.62.14a10.67,10.67,0,0,0,5.21.18h.36a61.92,61.92,0,0,0,15.41-2,11.57,11.57,0,0,0,4.16-1c.47-.22,1-.45,1.45-.7a64.61,64.61,0,0,0,13.6-6.77c5.5-2.19,11-3.12,15.46,0,4.72,3.3,9.14,5.87,14,6.79,18,8,39.08,11.2,58.83,14.15,32.15,4.81,62.78,9.44,80,30.5A6.73,6.73,0,0,1,2030.53,2723.48Z"/><path class="cls-9" d="M1178.88,1831.61a18.76,18.76,0,0,0-1.49-1.92c-.5-.57-1.18-1.28-1.25-1.34l-1.25-1.25-2.57-2.51A180.63,180.63,0,0,0,1149.7,1806a191.18,191.18,0,0,0-52.62-25q-7-2.12-14.08-3.72a95.44,95.44,0,0,0-15.59-2.21c-10.17-.63-19.59-.13-28.58.26l-6.67.29-6.29.19c-4,0-8.31-.15-12.84-.32-9.06-.34-19.08-.65-29.55.85a93.11,93.11,0,0,0-15.5,3.59c-4.92,1.58-9.52,3.42-13.91,5.31-8.78,3.8-16.8,7.79-24.65,11.2l-6.22,2.67c-2.22,1-4.42,2-6.57,3-1.76.85-3.43,1.76-5.16,2.63-2.94,1.22-5.94,2.4-9.13,3.4-12.18,3.8-24.23,3.18-36-.3-7.36-3.14-15-6.43-23-9.39a150.51,150.51,0,0,0-28.7-7.73,192.8,192.8,0,0,0-58-.75,204.66,204.66,0,0,0-55.37,15.77,146.1,146.1,0,0,0-25.1,15.23c-7.51,5.49-14.59,10.94-21.6,16.21l-.06,0a10.86,10.86,0,0,0,12,18.06c15.94-9.29,30.63-20,44.92-25.47a198.22,198.22,0,0,1,48.76-11.72,177,177,0,0,1,49.62,1.35c15.59,2.47,30.76,9.36,47.52,16.69,4.36,1.88,8,3.45,11.94,5.32,3.12,1.47,6.24,3,9.36,4.62a14.42,14.42,0,0,0,4.19,2.13c7.14,3.7,14.32,7.56,21.62,11.5,4.11,2.2,7.67,4.13,11.44,6.32l11.35,6.75c7.67,4.63,15.59,9.48,24.14,14,4.21,2.22,8.84,4.45,13.42,6.34s9.18,3.56,13.76,5c9.15,3,18.18,5.28,26.86,7.54,17,4.36,36,10.15,57.15,9.61,21.45-.73,40.37-8,57.51-16.07l6.38-3.17c2.1-1.06,4.48-2.36,6.62-3.6,4.36-2.54,8.49-5.26,12.44-8.06,7.89-5.62,15.13-11.56,22.14-17.46l5.22-4.43,1.3-1.11a27.72,27.72,0,0,0,2.68-2.65,23.92,23.92,0,0,0,4.41-7.29,21.56,21.56,0,0,0,1.32-9.93A21.23,21.23,0,0,0,1178.88,1831.61Z"/><path class="cls-9" d="M885.56,2204.57A10.85,10.85,0,0,0,874.31,2215v.11a253.62,253.62,0,0,1-2.16,26.46c-.6,4.49-1.25,9.39-1.66,14.26s-.63,9.7-.77,14.47c-.24,9.42-.47,18.26-1,27.35s-1.05,18.73-1.21,28.05l-.14,6.86c0,2-.19,4-.37,6a60.21,60.21,0,0,1-2.08,11.06c-2.06,7.1-5.06,11.5-10.85,17.65-5.26,5.57-11.28,10.12-17.11,12.36a61.32,61.32,0,0,1-10.65,2.72c-4.14.78-8.64,1.45-13.38,2.25s-9.68,1.73-14.74,3c-2.52.62-5.09,1.36-7.65,2.2s-5.23,1.84-7.49,2.75c-9.37,3.82-17.88,8.27-26.15,12.51l-12.18,6.26-6.23,3.19c-2.35,1.21-4.58,2.49-6.78,3.79-8.74,5.22-16.41,10.79-23.83,15.83-3.68,2.48-7.37,5-10.83,7.11s-7.06,4-11,6c-7.92,4-16.92,8.08-25.79,14-2.18,1.47-4.47,3.14-6.49,4.75s-3.8,3.07-5.63,4.66q-5.5,4.76-10.69,9.68c-6.82,6.67-13.44,13.32-19.69,20.19a10.88,10.88,0,0,0,14.76,15.89c7.27-5.7,14.24-11.56,21.41-17,3.53-2.75,7.08-5.42,10.66-8l5.36-3.77c1.68-1.14,3.22-2.07,4.94-3.06,6.84-3.86,14.86-7.14,23.63-11,4.37-2,8.93-4.12,13.57-6.73s8.56-5.07,12.57-7.7c7.95-5.21,15.34-10.33,22.55-14.45,1.8-1,3.59-2,5.36-2.87l6.14-3,12.44-6.42c8.13-4.24,16-8.25,23.74-11.53,7.17-3.17,14.62-5,23.42-6.69,4.35-.84,9-1.63,13.88-2.66a87.57,87.57,0,0,0,16-4.65c11.31-4.81,20-12.18,27.2-20.14a86.29,86.29,0,0,0,10-13.46,64.91,64.91,0,0,0,6.56-16.32,88,88,0,0,0,2.54-16.21c.16-2.65.26-5.28.24-7.88l-.08-7c-.1-9.15,0-17.93.15-27.32s0-19-.21-28a254.63,254.63,0,0,1,.87-26.54c.36-4.67.65-9.64.73-14.47s0-9.62-.16-14.37A10.88,10.88,0,0,0,885.56,2204.57Z"/><path class="cls-9" d="M878.75,2157.79a9.94,9.94,0,0,0,12.44-6.54,69.38,69.38,0,0,0,2.53-13.16,114,114,0,0,0,.62-13.16,123.23,123.23,0,0,0-.74-13.16,76.57,76.57,0,0,0-2.41-13.16,10,10,0,0,0-6.75-6.75,9.88,9.88,0,0,0-12.23,6.75,76.57,76.57,0,0,0-2.41,13.16,123.23,123.23,0,0,0-.74,13.16,114,114,0,0,0,.62,13.16,69.37,69.37,0,0,0,2.53,13.16A10,10,0,0,0,878.75,2157.79Z"/><path class="cls-9" d="M978.25,2361.14c-4.4-5.47-7.18-13.42-8.19-22a66,66,0,0,1-.48-6.59l-.12-7.74-.22-15.82-.47-31.57c-.15-10.4-.38-21.75-1.65-32.71-.6-5.48-1.23-10.42-1.62-15.37s-.62-10-.75-15.09a249.93,249.93,0,0,1,.74-30.23c.46-5.15.93-10.81,1.1-16.34s.17-11,.07-16.41a10.84,10.84,0,0,0-21.68-.08v.08c-.13,5.12-.33,10.2-.72,15.17s-1,9.81-1.68,15.13a257.54,257.54,0,0,0-2.17,32.85c-.05,5.42,0,10.92.27,16.49s.78,11.1,1.15,16.1a302.21,302.21,0,0,1,.49,30.41L942,2309l-.18,15.77-.08,8.06q0,4.55.43,9.18c1.18,12.23,4.71,25.24,13.17,36.61a56.59,56.59,0,0,0,15.7,14.06,93.43,93.43,0,0,0,16.93,8c2.73,1,5.58,1.93,8.09,2.74,2.3.73,4.62,1.55,7,2.39,4.68,1.7,9.41,3.56,14.19,5.51,9.48,3.85,19.48,8.14,29.1,11.95a580,580,0,0,1,55.76,25.75c9.11,4.9,17.85,9.76,27.16,15.14s18.7,10,27.26,15.12c4.24,2.46,8.6,5.18,12.2,7.74a88.64,88.64,0,0,1,10.51,8.95c7.14,6.75,14.28,15,23.32,22.44a10.86,10.86,0,0,0,14.9-15.74l-.14-.15c-6.38-7-12.38-15.25-19.64-23.86a109.72,109.72,0,0,0-12.55-12.6c-4.73-3.88-9.14-7-13.8-10.2-9.25-6.18-18.5-11.59-27.2-16.92s-18.2-11.25-27.59-16.4-19.11-10.27-29-14.92-19.82-8.75-29.72-12.75-19.44-7.68-29.54-11.6c-5-1.92-10.13-3.82-15.38-5.61-2.64-.89-5.3-1.76-8-2.58-2.52-.76-4.7-1.41-6.92-2.19C989.05,2370,982.06,2366.06,978.25,2361.14Z"/><path class="cls-9" d="M1064.82,1507.32a208.37,208.37,0,0,0-24.1-2.79c-8-.58-16.06-.74-24.1-.81s-16.06.2-24.1.77a199.47,199.47,0,0,0-24.1,2.84,11,11,0,0,0,0,21.69,199.47,199.47,0,0,0,24.1,2.84c8,.57,16.06.73,24.1.77s16.06-.24,24.1-.81a208.42,208.42,0,0,0,24.1-2.79,11,11,0,0,0,0-21.69Z"/><path class="cls-9" d="M982.9,2668.24c-12.35-1.51-24.7-2.3-37-2.83s-24.7-.73-37-.78-24.7.23-37,.81-24.7,1.31-37,2.8a10.92,10.92,0,0,0,0,21.69c12.35,1.49,24.7,2.27,37,2.8s24.7.74,37,.81,24.7-.21,37-.78,24.7-1.32,37-2.83a10.92,10.92,0,0,0,0-21.69Z"/><path class="cls-9" d="M717.85,2668.24a133.82,133.82,0,0,0-19.28-2.8q-9.64-.8-19.28-.81c-6.43,0-12.85.26-19.28.78a130.24,130.24,0,0,0-19.28,2.83,11.14,11.14,0,0,0,0,21.69,130.24,130.24,0,0,0,19.28,2.83c6.43.52,12.85.81,19.28.78s12.85-.28,19.28-.81a133.82,133.82,0,0,0,19.28-2.8,11.13,11.13,0,0,0,0-21.69Z"/><path class="cls-9" d="M1710.05,2259.85c-2.14-7.19-4.43-14.33-7-21.38s-5.56-13.92-8.59-20.79a114,114,0,0,0-11.12-19.79,11.21,11.21,0,0,0-20.24,7.56l0,.29a113.21,113.21,0,0,0,4.53,22.08c2.19,7.09,4.38,14.18,7.06,21.09s5.59,13.73,8.67,20.49a137.75,137.75,0,0,0,10.91,19.73l.28.42a11.11,11.11,0,0,0,20.19-7.55A137.63,137.63,0,0,0,1710.05,2259.85Z"/><path class="cls-9" d="M1640,2089.53c-3.5-8.78-6.88-17.61-10.5-26.34l-5.36-13.13c-1.75-4.25-3.3-8.33-4.88-12.69-3.16-8.63-6.13-17.68-9.74-26.82-1.8-4.56-3.68-9.16-5.92-13.9s-4.52-9.06-6.82-13.3c-4.61-8.49-9.1-16.43-12.78-24.2-3.59-7.52-6.31-15.73-9.33-24.79a206.64,206.64,0,0,0-11.2-28.18c-4.75-9.35-10-17.59-14.79-25.41-2.39-3.9-4.64-7.71-6.65-11.48a111.73,111.73,0,0,1-5.34-11.39c-3.26-8-6.08-17-9.84-26.39a147.7,147.7,0,0,0-6.52-14.22c-2.47-4.69-5.19-9-7.91-13.17-5.43-8.25-10.88-15.69-15.47-23-1.15-1.86-2.16-3.6-3.27-5.56l-3.5-6.18-7-12.34c-4.79-8.17-9.47-16.39-14.38-24.49a10.86,10.86,0,0,0-19.2,10.08l0,0c3.86,8.59,7.95,17.06,11.92,25.58l6.13,12.7,3.08,6.34c1.07,2.22,2.28,4.64,3.47,6.87,4.81,9,10.16,17.06,14.78,24.75a124.06,124.06,0,0,1,11.13,22.94c3,8.22,5.71,17.27,9.34,26.81a142.1,142.1,0,0,0,6.38,14.32c2.34,4.59,4.82,8.94,7.27,13.13,4.91,8.36,9.78,16,13.49,23.55,3.67,7.32,6.46,15.54,9.51,24.4s6.26,18.51,10.86,28c4.43,9.26,9.45,17.62,14,25.62,2.27,4,4.4,7.9,6.3,11.74s3.64,7.84,5.37,12l10.35,26c1.78,4.45,3.74,9.12,5.73,13.52l5.76,12.87c3.79,8.6,7.83,17.1,11.75,25.65,7.78,17.12,15.48,34.29,23.55,51.31l.11.24a10.85,10.85,0,0,0,20-8.37C1653.42,2124.89,1646.91,2107.12,1640,2089.53Z"/><path class="cls-9" d="M828.52,563.21a115.67,115.67,0,0,0,14.82-1,18,18,0,0,0,2.62-.37c2.94-.44,5.91-1,9-1.61,22.55-4.9,46.1-16.76,70-35.25,20.11-15.56,42.24-34.59,54-57.78,17.15-34,17.46-68.45.8-90h0c-16.21-21-47.86-28.12-86.83-19.66-24.6,5.34-49.18,17.13-71.09,34.08-21.49,16.62-39,37.52-50.52,60.42-16.84,33.34-16.67,63.91.48,86.07C784.51,554.64,804.2,563.21,828.52,563.21Zm-25-94.89c6.38-12.64,18.57-31.25,40.38-48.12,17.68-13.68,37.27-23.14,56.64-27.35a109.76,109.76,0,0,1,23-2.7c12,0,21.33,2.72,26.35,7.89a37.13,37.13,0,0,1,3.88,10.23c2,11.06-5.82,18.9-13.4,25.35-2.4,2-4.79,4-7.16,5.93-16.75,8-32.93,19.86-49.24,32.49s-33.84,27.45-46.42,44.48c-14.62,10.18-29.73,8.55-40.21-5.54C791.15,497.05,798.24,478.72,803.49,468.31Z"/><path class="cls-9" d="M683.4,606.42a310.34,310.34,0,0,0,29.42,33.5,276.11,276.11,0,0,1,26.47,30.14c20.16,26.05,42.23,42,67.46,48.62a175.75,175.75,0,0,0,44.65,5.38,237.69,237.69,0,0,0,35.89-2.82c23.3-3.57,48.36-11.45,74.48-23.42,22.39-10.26,42.38-25.15,64.32-42.12q4.2-3.25,8.4-6.45c17.51-13.39,35.63-27.24,49.58-44.37,17.38-21.33,31.62-44.4,41.2-66.69,12.52-29.13,13.85-59,13.77-79-.15-34.59-7.64-61-22.9-80.72-13-16.78-19.58-25.11-26.17-33.43s-13.05-16.48-25.91-33.09l0,0a17.94,17.94,0,0,0-9-6.2c-18-20.59-38.82-34.12-62-40.24-21.33-5.63-46.93-5.85-80.56-.7-20.86,3.2-48.28,8.46-75.32,20.85a321.73,321.73,0,0,0-121.84,94.22c-18.14,22.28-29.82,46.76-38.85,67.78-12.88,30-19.1,55.51-19,78.06.12,27.35,8.28,53.76,23.08,75.09A17.92,17.92,0,0,0,683.4,606.42ZM1070.5,470a321.43,321.43,0,0,0,13.22-35.56c4.07-6,9.61-8.3,15.78,2.27.91,1.56,1.7,3.17,2.45,4.79a176.26,176.26,0,0,1,.93,17.84c.08,18.13-1.08,41.86-10.83,64.55-8.27,19.26-20.73,39.37-36,58.14-11.26,13.83-26.92,25.8-43.51,38.48q-4.28,3.27-8.57,6.58c-20.14,15.58-38.36,29.19-57.26,37.85-23.08,10.58-44.91,17.49-64.9,20.55-24.46,3.75-47.23,3.13-65.84-1.78a69.48,69.48,0,0,1-17.3-7.21c-5.76-6.32-10.89-14.54,0-17.4,2.39-.63,4.79-1.2,7.2-1.78h.72a169.93,169.93,0,0,0,29.11-1.83c22.42-3.44,44-13.45,64.9-23.14q4.13-1.92,8.29-3.83t8.45-3.83c18.86-8.51,40.24-18.15,59.29-32.88a156.15,156.15,0,0,0,19.54-18.26,299.66,299.66,0,0,0,35.42-36.12C1050.24,514.55,1062.18,489.39,1070.5,470Zm-360.86-8.11c8-18.72,18.34-40.4,33.67-59.23a285.73,285.73,0,0,1,108.87-84.19c23-10.53,47.2-15.13,65.73-18a251.38,251.38,0,0,1,37.69-3.3,110.17,110.17,0,0,1,28.17,3.22c18.2,4.8,34.78,16.74,49.26,35.46a112.37,112.37,0,0,1,12.86,20.73c3,11.61,3.59,24.18,3.64,35.88.09,19.89-4.5,40.32-14,62.48-7.68,17.89-19.38,36.37-35.77,56.49-3.82,4.69-7.56,9.58-11.18,14.31-5.66,7.4-11.44,14.91-17.69,21.9-5.42,4.68-11.17,9.4-17.37,14.2-16,12.4-34.7,20.86-52.76,29l-7.49,3.41c-4.32,2-8.6,4-12.84,6-17.69,8.38-34.4,16.29-50.26,18.72a190.07,190.07,0,0,1-23.69,2.11,182.06,182.06,0,0,1-41.7-6.27c-14.27-3.77-26.23-8.92-35.9-15.33a87.14,87.14,0,0,1-16.09-15.89c-12.28-15.87-19.09-36.52-19.19-58.15C693.5,508.05,698.76,487.24,709.64,461.91Z"/><path class="cls-9" d="M2635.45,1799a144.84,144.84,0,0,0-16.07-23.52,109.66,109.66,0,0,1-12.59-18.41c-6.28-11.14-9.53-16.67-12.77-22.18s-6.33-10.78-12.47-21.68a18,18,0,0,0-31.47.1c-13.1,7.87-20.06,12.31-26.72,16.55-7.13,4.55-13.86,8.84-28,17.29a158.63,158.63,0,0,1-27.38,13.47,194.37,194.37,0,0,0-32.69,16.09,215.73,215.73,0,0,0-29.51,20.72,182,182,0,0,1-25.23,17.73,143.93,143.93,0,0,1-27.27,13.17,180,180,0,0,0-33,16,331.46,331.46,0,0,0-29.19,19.35,297,297,0,0,1-26.45,17.53c-14,8.41-21,12.25-28.36,16.32s-14.88,8.23-29.46,17-21.76,13.25-28.79,17.67c-6.85,4.31-13.95,8.76-28.06,17.22-13.3,8-22.73,21.55-27.27,39.3a238.82,238.82,0,0,1-9.12,29,271.61,271.61,0,0,0-10.3,32.74c-4.12,16.08-5.8,24.36-7.42,32.38s-3.12,15.41-7,30.63a249.46,249.46,0,0,0-6.54,33.89,215.57,215.57,0,0,1-5.72,29.66,135,135,0,0,1-9.79,27.46,171.26,171.26,0,0,0-12,33.66,297.43,297.43,0,0,0-6.81,33.43,262.8,262.8,0,0,1-6.1,29.94,24.09,24.09,0,0,0-.64,4.13,18,18,0,0,0-1,23.64c7.88,9.87,11.81,14.75,15.76,19.67s7.78,9.68,15.5,19.35a160,160,0,0,0,19,20.35,120.37,120.37,0,0,1,12,12.37,18.05,18.05,0,0,0,26.07,10.54c14.31-8,21.38-12.38,28.23-16.65s13.17-8.2,26.7-15.75a268.07,268.07,0,0,1,27-13.4,299.72,299.72,0,0,0,30.15-14.94c14.54-8.1,21.6-12.79,28.44-17.33,6.55-4.34,12.73-8.45,26-15.86,13.73-7.65,20.8-11.39,27.64-15,7-3.71,14.27-7.55,28.38-15.41a264.11,264.11,0,0,0,28.66-18.12,230.16,230.16,0,0,1,25.28-16,180.58,180.58,0,0,1,26.65-12.49,213.34,213.34,0,0,0,31.2-14.63,200.22,200.22,0,0,0,28.92-19.09,167.09,167.09,0,0,1,24.41-16.12,78.62,78.62,0,0,1,20.69-8c11.73-3.07,21.37-6.46,32-18.59a17.8,17.8,0,0,0,11-15.3c10.91-18,11.3-29.13,10.52-43.47a101.72,101.72,0,0,1,.95-24.12c2.66-16.77,4.07-25.14,5.48-33.51s2.86-16.92,5.54-33.87a233.08,233.08,0,0,1,6.87-31.33,267.79,267.79,0,0,0,7.78-35.47,200.84,200.84,0,0,0,2.86-37,168.11,168.11,0,0,1,2.41-31.27c1.13-7.12,2-12.73,2.7-17.52q5.51-22,10.26-44.24A18,18,0,0,0,2635.45,1799Zm-103.94,340.55c-2.41,5.08-8.91,8.49-15.11,11.58a109.28,109.28,0,0,0-17.8,8,202.76,202.76,0,0,0-28.91,19.08,167.25,167.25,0,0,1-24.42,16.12,180.58,180.58,0,0,1-26.65,12.49,213.07,213.07,0,0,0-31.2,14.63,263,263,0,0,0-28.66,18.12,230.81,230.81,0,0,1-25.28,16c-13.77,7.67-20.52,11.25-27.69,15-7,3.71-14.26,7.54-28.34,15.39-14.52,8.1-21.59,12.78-28.42,17.32-6.55,4.35-12.73,8.45-26,15.87a268.07,268.07,0,0,1-27,13.4,299.72,299.72,0,0,0-30.15,14.94c-2.48,1.38-4.68,2.62-6.76,3.81-8.65,3.62-16.49,9-25.32,12-14,4.73-23.31-4.88-31.66-14.78-.74-.9-1.51-1.84-2.34-2.87l-5.45-6.82a33.48,33.48,0,0,1-2.49-11.65c.09-9.23,6.76-14.55,13.8-19.2l1.59-1c5.67-2.8,12.4-6.27,22.54-12a271,271,0,0,1,26.88-13.51,305,305,0,0,0,29.92-15c14.23-8,21.25-12.47,28-16.78s13-8.26,26.46-15.83c14.25-8,21.27-12.51,28.07-16.84s13-8.28,26.39-15.84c13.93-7.85,20.84-11.87,27.75-15.89s13.61-7.92,27.32-15.65a246.84,246.84,0,0,1,26.78-13.31,278.82,278.82,0,0,0,30.15-15c13.65-7.69,20.67-11.47,27.45-15.13,7-3.74,14.14-7.61,28.14-15.51a200.5,200.5,0,0,0,24.28-15.71c6.29-3.77,13.21-6.46,20-4.67,5.05,1.33,8.86,4.7,11.87,8.89,1.38,2.47,3,5.32,4.87,8.68q.62,1.36,1.18,2.7C2528.44,2119.7,2535.29,2131.62,2531.51,2139.58Zm3-343.36c-2,13.07-2.67,20.59-3.35,27.87-.75,8-1.46,15.63-3.91,31.11a274.37,274.37,0,0,0-3.54,34.32,240.37,240.37,0,0,1-3.14,30.43c-2.48,15.67-4,23.23-5.63,31.23s-3.3,16.32-5.9,32.75a237.91,237.91,0,0,1-6.43,29.88c-1,3.77-2.08,7.63-3.17,12.31-1.38,3.23-2.74,6.59-4.52,9.87a84.33,84.33,0,0,1-13.39,18.26c-4.76,3.24-8.39,6-11.91,8.79a167.8,167.8,0,0,1-24.27,16.17c-13.7,7.72-20.42,11.34-27.53,15.17-6.94,3.74-14.11,7.6-28.07,15.46a244.49,244.49,0,0,1-26.79,13.32,279.9,279.9,0,0,0-30.14,15C2318.88,2146,2312,2150,2305.06,2154s-13.61,7.92-27.32,15.65c-14.26,8-21.29,12.52-28.08,16.85s-13,8.28-26.38,15.83c-14.24,8-21.27,12.48-28.06,16.79s-13,8.26-26.44,15.82a271.12,271.12,0,0,1-26.87,13.51,304.1,304.1,0,0,0-29.93,15.05l-1.1.61a48.39,48.39,0,0,0-5.21,1.76c-3,1.23-11,6.35-14.48,4.6-3.19-1.63-2.63-7.9-2.59-10.74s.09-5.49.08-8.17c.35-1.45.72-2.93,1.13-4.55a135,135,0,0,1,9.79-27.46,171.26,171.26,0,0,0,12-33.66,249.56,249.56,0,0,0,6.54-33.89,215.57,215.57,0,0,1,5.72-29.66c4.12-16.1,5.8-24.39,7.43-32.4s3.12-15.4,7-30.61a238.82,238.82,0,0,1,9.12-29,271.72,271.72,0,0,0,10.3-32.74c1.49-5.8,4.57-13.5,10.83-17.25,14.45-8.65,21.7-13.21,28.72-17.63,7.18-4.51,14-8.78,28.13-17.26s21-12.26,28.37-16.33,14.88-8.22,29.45-17a331.46,331.46,0,0,0,29.19-19.35,297,297,0,0,1,26.45-17.53,143.93,143.93,0,0,1,27.27-13.17,180,180,0,0,0,33-16,215.55,215.55,0,0,0,29.5-20.72,182.53,182.53,0,0,1,25.24-17.73,158.76,158.76,0,0,1,27.39-13.47,194,194,0,0,0,32.69-16.09l6-3.64c5.94-1.82,11.43-1.64,13.62,6C2535.06,1785.51,2534.87,1790.86,2534.5,1796.22Zm57,43.55c-1.14,8.23-2.32,16.73-5,33.41a201.36,201.36,0,0,0-2.86,37,167.87,167.87,0,0,1-2.41,31.28,232.73,232.73,0,0,1-6.87,31.34,267.08,267.08,0,0,0-7.78,35.47c-2.66,16.77-4.07,25.14-5.48,33.51-.63,3.74-1.27,7.52-2,12a30.43,30.43,0,0,1-3.43,5.53,20,20,0,0,1-10.74,6.15c-3.79-2-6-5.4-6.62-10.23-3.43-9.72-2.81-20.95-.85-32,1.78-6.5,3.6-13.27,5.62-24.22.2-.81.4-1.61.6-2.4a11.75,11.75,0,0,0,.32-2.79c.23-1.37.46-2.73.7-4.23,2.48-15.67,4-23.24,5.63-31.24s3.3-16.32,5.9-32.74a274.41,274.41,0,0,0,3.54-34.32,240.27,240.27,0,0,1,3.14-30.42c2.63-16.62,3.43-25.15,4.2-33.4.56-5.95,1.09-11.67,2.33-20.51,1.94-5.84,5.23-10.74,11.28-11.35,12.89-1.29,11.11,14.54,10.82,23.19q-.31,9.24.3,18.34Z"/><path class="cls-9" d="M1958.27,880.18c13.19,20.59,32.81,32.65,50.17,42.34,13.15,7.35,26.26,11,38.67,11a58.29,58.29,0,0,0,26.48-6.27,18,18,0,0,0,5.83-2.38c14.54-9.31,21.7-14.41,28.62-19.34s13.37-9.52,27.18-18.36a281.06,281.06,0,0,1,27.71-15.91,316.79,316.79,0,0,0,30.74-17.65c13.67-8.76,20.59-12.58,27.92-16.62,7.51-4.15,15.28-8.44,29.94-17.83s21.9-14.87,28.79-20.1c6.62-5,12.88-9.77,26.45-18.46,14.82-9.49,21.93-15,28.82-20.26a319.87,319.87,0,0,1,26.28-18.47A150.09,150.09,0,0,1,2389,727.66a186.58,186.58,0,0,0,32.67-17.13c20.11-12.88,31.17-39.4,28.85-69.2-1.73-22.28-14.11-44.12-24.71-60.65-10.48-16.36-25-36.55-44.87-47.62-26.32-14.7-55-15.9-75-3.15-14.33,9.18-21.51,14-28.46,18.68-7.1,4.77-13.81,9.28-27.82,18.26-14.65,9.38-21.8,14.62-28.71,19.68-6.76,5-13.14,9.63-26.84,18.4-14.35,9.19-21.54,14-28.49,18.72s-13.78,9.28-27.77,18.24c-14.35,9.19-21.54,14-28.49,18.69-6.78,4.56-13.8,9.27-27.79,18.24a245.16,245.16,0,0,1-27.6,15.6A280.17,280.17,0,0,0,2023,712c-14.29,9.16-21.48,13.94-28.43,18.57-6.8,4.53-13.84,9.22-27.79,18.16l-.13.08c-19.63,12.58-29.51,37.43-27.1,68.19C1940.81,833.57,1944.16,858.16,1958.27,880.18Zm94.21-143.94c7.28-4.3,12.34-6.82,17.57-9.41a280.17,280.17,0,0,0,31.06-17.56c14.33-9.18,21.51-14,28.46-18.67,7.1-4.77,13.8-9.28,27.82-18.26,14.34-9.18,21.52-14,28.47-18.7s13.79-9.29,27.79-18.26c14.64-9.38,21.79-14.62,28.7-19.68,6.76-5,13.15-9.63,26.85-18.4,14.35-9.19,21.54-14,28.49-18.7,6.78-4.56,13.8-9.28,27.8-18.24,8.28-5.3,23.85-3.55,37.85,4.27,12.95,7.23,24.5,23.76,32.06,35.56h0c8.32,13,18,29.7,19.11,44,1.22,15.75-3.84,30.54-12.31,36A149.78,149.78,0,0,1,2375,694.34a186.79,186.79,0,0,0-32.67,17.13c-14.81,9.49-21.93,15-28.81,20.25a319.25,319.25,0,0,1-26.28,18.47c-14.78,9.46-21.9,14.87-28.8,20.1-6.62,5-12.88,9.77-26.44,18.46s-20.59,12.58-27.92,16.62c-7.51,4.15-15.28,8.44-29.94,17.83a281,281,0,0,1-27.7,15.91c-4.39,2.25-8.92,4.57-14.66,7.86h0c-4.52.78-8.4,3.95-12.9,4.44-6.49.71-9.53-3.36-11.84-8.2-3.1-17.9-8.95-33.7-17.52-47.09A142.64,142.64,0,0,0,2055,759.32c-1.71-1.68-3.43-3.36-5.12-5.16C2043.59,747.44,2047.29,742,2052.48,736.24Zm-66.39,43h0c7.93-5.09,21.46-3.22,36.17,5,12.52,7,24.52,18.81,33.8,33.29s15,30.27,16.06,44.61c.48,6.16.18,13.52-2.39,20.08a28.09,28.09,0,0,1-10.26,11.59c-3.26,2.09-13.2,8.46-33.44-2.83-14.14-7.9-28.67-16.74-37.35-30.28-9.72-15.17-12.17-33.81-13.16-46.51C1974.23,797.39,1978.17,784.34,1986.09,779.25Z"/></g></svg>