<svg xmlns="http://www.w3.org/2000/svg" viewBox="0 0 213.57 162.89"><defs><style>.cls-1{fill:#1b4678;}.cls-2{fill:#c8eafa;}.cls-3{fill:#020202;}.cls-4,.cls-5{fill:none;stroke:#091f2b;stroke-linecap:round;stroke-linejoin:round;}.cls-4{stroke-width:0.62px;}.cls-5{stroke-width:1.24px;}.cls-6{fill:#116e93;}.cls-7{fill:#a7c8db;}</style></defs><title>资源 4</title><g id="图层_2" data-name="图层 2"><g id="图层_5" data-name="图层 5"><path class="cls-1" d="M142,79.05v0a3.65,3.65,0,0,0-1.68-3.36,3.37,3.37,0,0,0-3.91.26,3.25,3.25,0,0,0-.47,4,3.13,3.13,0,0,0,1.22.83l0,.06c.16-.12.3-.26.44-.39l.35-.34.48-.47a2.41,2.41,0,0,1,1-.56,2.86,2.86,0,0,1,1.32,0l.49.09A1.24,1.24,0,0,0,142,79.05ZM87.74,55.76h0a9.36,9.36,0,0,0,.8-3,18.88,18.88,0,0,0-.7-6.34,4.7,4.7,0,0,1-.22-2A1.55,1.55,0,0,1,89,43.1a2,2,0,0,1,1.18.5,13.59,13.59,0,0,1,3.48,4.54c1.23,2.3,2.28,4.71,3.56,7,9.41,3.41,22.7,3.27,32.6,1.75,2.82-.43,5.82-.9,8.46.19,1.1.45,2.1,1.16,3.24,1.51,2.1.65,4.36,0,6.43-.72,8.12-2.84,16.21-7,24.79-6.36,3.54.27,7,1.37,10.48,1.79,8.26,1,16.64-1.92,24.87-.72a8.07,8.07,0,0,1,4.39,1.73,3.5,3.5,0,0,1,.85,4.32h-.44c-1.39-1.59-4.5-1.56-6.61-1.25-5.71.83-10.72,4.08-15.71,7s-10.5,5.56-16.25,5.06c-3-.26-5.95-1.38-9-1.32-5.06.11-9.49,3.52-12.62,7.49a44.12,44.12,0,0,1-3.88,4.77,18.27,18.27,0,0,1-8.64,4.29l.06.26a11.07,11.07,0,0,1-9.07,4.93c-3.47,0-7-.82-10.4-.38-6.86.88-12.19,6.37-18.7,8.72-5.54,2-11.67,1.61-17.43.4a48.79,48.79,0,0,1-11.75-3.93c-7.4-3.68-13.48-9.67-18.25-16.43S45.4,65.86,42.1,58.28c-1.76-4.06-3.75-12.82-12.29-19h0a7.73,7.73,0,0,0-.54-.62c-6.59-6.84-13.74-3-19.24-6.07C4.81,29.65,1.58,23.89.57,18s0-12,1.54-17.81c2.58,2.55,7.43,3.78,11,4.19,2.79.32,5.62-.08,8.41.21A17.66,17.66,0,0,1,35.79,15.14l.37,0a12.64,12.64,0,0,1,6.53-8.83,16.77,16.77,0,0,1,12.22-1.1,14.86,14.86,0,0,0,4.19.86c2.3-.06,4.27-1.56,6.05-3,0,4.44,0,9-1.46,13.16A21.36,21.36,0,0,1,46.22,30.33a18.5,18.5,0,0,0,4.09,9.76A41.11,41.11,0,0,0,66.44,52C72.62,54.71,81.09,55.76,87.74,55.76Z" transform="translate(-0.15 -0.16)"/><path class="cls-2" d="M35.67,60.93c-.19-4.92-2.33-17-5.86-21.62,8.54,6.15,10.53,14.91,12.29,19,3.3,7.58,7.75,13.15,12.52,19.9S65.47,90.92,72.87,94.61a48.79,48.79,0,0,0,11.75,3.93c5.77,1.21,11.9,1.59,17.43-.4,6.51-2.35,11.84-7.85,18.7-8.72,3.45-.44,6.93.35,10.4.38a11.07,11.07,0,0,0,9.07-4.93l-.06-.26a18.27,18.27,0,0,0,8.64-4.29,44.12,44.12,0,0,0,3.88-4.77c3.13-4,7.57-7.39,12.62-7.49,3-.06,6,1.06,9,1.32,5.75.49,11.25-2.18,16.25-5.06s10-6.13,15.71-7c2.11-.3,5.22-.34,6.61,1.25l.18.23c1.49,2.09-.34,5.26-1.77,7.38-6,8.93-16.52,13.67-24.22,21.2-8.49,8.3-13.56,19.94-22.28,27.74a34,34,0,0,1-3.8,3,54.64,54.64,0,0,1-8.5,4.45l-.88.39c-10.37,4.6-21.6,10-40.35,7.9,1.11-.93,2.27-1.8,3.47-2.62,5.08-3.44,11.37-6.16,13.7-11.84.59-1.42.91-3,1.9-4.19,1.77-2.07,5-2.13,7.15-3.84,2.39-1.92,2.77-5.69,1.26-8.35a9.87,9.87,0,0,0-7.58-4.56,19.22,19.22,0,0,0-9,1.57,7.11,7.11,0,0,0-2.79,1.7,2.82,2.82,0,0,0-.63,2.85c-8.49,8.56-15.73,18.24-23.31,27.63C81.15,125.88,65.33,113,59.36,99.56c-1.26-2.82-2.24-5.77-3.74-8.48a25.32,25.32,0,0,0-6.28-7.47c-2.48-2-5.76-4.9-8.24-6.87-2.68-2.12-6.45-9.49-5.42-15.8Z" transform="translate(-0.15 -0.16)"/><path class="cls-1" d="M194.21,158.62c.54,1.24,1,2.9-.08,3.78a2.79,2.79,0,0,1-2.13.45c-3.92-.43-7-3.5-9.25-6.76s-3.91-6.93-6.74-9.68c-1.9-1.85-4.22-3.21-6.17-5-3.2-2.94-5.24-6.9-7.75-10.45s-6.23-7.27-10.51-8l.88-.39a54.64,54.64,0,0,0,8.5-4.45,34,34,0,0,0,3.8-3l.24.27c4.21,4.57,6.51,12.47,10,17.62,2.21,3.25,5.24,5.84,8,8.69A57.78,57.78,0,0,1,194.21,158.62Z" transform="translate(-0.15 -0.16)"/><path class="cls-2" d="M142,79v0a1.24,1.24,0,0,1-.7,0V79a2.78,2.78,0,0,0-1.24-2.4,2.27,2.27,0,0,0-2.63.17,2.18,2.18,0,0,0-.31,2.67,2.08,2.08,0,0,0,.82.56l0,0-.35.34c-.14.13-.28.27-.44.39l0-.06a3.13,3.13,0,0,1-1.22-.83,3.25,3.25,0,0,1,.47-4,3.37,3.37,0,0,1,3.91-.26A3.65,3.65,0,0,1,142,79Z" transform="translate(-0.15 -0.16)"/><path class="cls-3" d="M140,76.61a2.78,2.78,0,0,1,1.24,2.4v.06l-.49-.09a2.86,2.86,0,0,0-1.32,0,2.41,2.41,0,0,0-1,.56l-.48.47,0,0a2.08,2.08,0,0,1-.82-.56,2.18,2.18,0,0,1,.31-2.67A2.27,2.27,0,0,1,140,76.61Z" transform="translate(-0.15 -0.16)"/><path class="cls-1" d="M118.75,101.58a2.82,2.82,0,0,1,.63-2.85,7.11,7.11,0,0,1,2.79-1.7,19.22,19.22,0,0,1,9-1.57,9.87,9.87,0,0,1,7.58,4.56c1.51,2.66,1.13,6.43-1.26,8.35-2.13,1.7-5.38,1.77-7.15,3.84-1,1.18-1.31,2.76-1.9,4.19-2.33,5.68-8.62,8.4-13.7,11.84-1.2.82-2.36,1.69-3.47,2.62h0c-11.59,9.63-18.9,24.58-32.41,31.31-1,.49-2.25.9-3.08.19a2.55,2.55,0,0,1-.69-1.19c-1.08-3.3-.17-7,1.58-10s4.27-5.45,6.66-8c4.28-4.48,8.26-9.22,12.14-14C103,119.82,110.26,110.14,118.75,101.58Z" transform="translate(-0.15 -0.16)"/><path class="cls-4" d="M97.18,55.12c.29.51.59,1,.91,1.51a15.29,15.29,0,0,0,7,6.3" transform="translate(-0.15 -0.16)"/><path class="cls-5" d="M213,58.83l-.18-.23c-1.39-1.59-4.5-1.56-6.61-1.25-5.71.83-10.72,4.08-15.71,7s-10.5,5.56-16.25,5.06c-3-.26-5.95-1.38-9-1.32-5.06.11-9.49,3.52-12.62,7.49a44.12,44.12,0,0,1-3.88,4.77,18.27,18.27,0,0,1-8.64,4.29,59.44,59.44,0,0,1-7.73,1.18" transform="translate(-0.15 -0.16)"/><path class="cls-4" d="M135.43,80.36c-.09.49.48.88,1,.81a1.67,1.67,0,0,0,.79-.38c.16-.12.3-.26.44-.39l.35-.34.48-.47a2.41,2.41,0,0,1,1-.56,2.86,2.86,0,0,1,1.32,0l.49.09a1.24,1.24,0,0,0,.7,0l.24-.09a2.07,2.07,0,0,0,1.28-1.5,1.45,1.45,0,0,0-1-1.62" transform="translate(-0.15 -0.16)"/><path class="cls-6" d="M119.25,101.66c3.79-2,11-2.61,14,1.18.3.39.89-.13.57-.51-3.34-3.94-10.67-3.45-14.72-1-.17.1,0,.4.16.31Z" transform="translate(-0.15 -0.16)"/><path class="cls-6" d="M121.44,100.59a305,305,0,0,0-26.51,30.93c-3.77,5-8,9.57-12,14.39-3,3.63-7.34,8.07-8,12.92,0,.18.26.2.29,0,.79-6,7.49-12.26,11.24-16.58,3.39-3.91,6.74-7.82,9.82-12a318.6,318.6,0,0,1,25.34-29.58c.1-.1-.07-.24-.17-.14Z" transform="translate(-0.15 -0.16)"/><path class="cls-6" d="M123,100.76c-7.61,12-17.57,21.47-26.64,32.28-4.75,5.67-9.12,11.65-14.1,17.12-3.09,3.39-6.5,6.39-7,11.19,0,.19.27.2.29,0,.68-6.54,7.54-11.55,11.55-16.42,4.33-5.26,8.41-10.72,13-15.78,8.31-9.17,16.81-17.52,23.07-28.33.05-.09-.1-.18-.15-.09Z" transform="translate(-0.15 -0.16)"/><path class="cls-6" d="M125.51,100.45c-6.49,13.43-18.41,22.92-27.82,34.18-4.3,5.15-8.87,10.07-13.15,15.24-3,3.65-6.65,7.63-7.93,12.31,0,.18.23.27.27.09,1.47-5.48,6.23-10.31,9.82-14.51,4.21-4.93,8.5-9.8,12.71-14.73,9.1-10.66,20.28-19.55,26.36-32.47.08-.17-.18-.28-.26-.11Z" transform="translate(-0.15 -0.16)"/><path class="cls-6" d="M128,101c-1.85,6.39-8,12.12-12.2,17.08-4.66,5.45-9.51,10.73-14.34,16-4,4.38-8,8.75-11.86,13.24-3.23,3.75-8.75,8.53-10.12,13.37-.05.19.24.28.29.09.88-3.15,4-6,6-8.49,2.46-3,5-5.92,7.55-8.82,4.31-4.86,8.74-9.62,13.12-14.42,4.09-4.48,8.13-9,12-13.64,3.57-4.27,8.38-8.86,9.75-14.42,0-.14-.17-.16-.21,0Z" transform="translate(-0.15 -0.16)"/><path class="cls-6" d="M130.9,102.28c-13.54,21.27-34.47,36.26-48.28,57.26a.18.18,0,0,0,.3.2c13.79-21,35.67-35.48,48.17-57.35.06-.11-.12-.22-.19-.11Z" transform="translate(-0.15 -0.16)"/><path class="cls-6" d="M133.82,104c-1.94,6.15-7.32,8.11-10.69,13-1.61,2.35-2.41,4.83-4.54,6.83a62.06,62.06,0,0,1-5.33,4.12c-9.48,7.11-16.93,16-23.71,25.71-.08.12.1.24.19.12,4.39-5.77,8.68-11.61,13.73-16.84,4-4.18,8.67-7.51,13.23-11.07,3.94-3.08,5.06-7.28,8.46-10.72,3.69-3.73,7.42-5.75,8.9-11.11,0-.14-.2-.21-.24-.07Z" transform="translate(-0.15 -0.16)"/><path class="cls-6" d="M121.17,99.39c2.86-1.58,7.71-1.77,10.56-.15.2.11.4-.19.2-.3-2.84-1.58-8.17-1.68-10.85.32-.08.06,0,.18.09.13Z" transform="translate(-0.15 -0.16)"/><path class="cls-6" d="M154.5,122.46c5.41,3.5,8.23,7.46,11.21,13,1.76,3.29,4.35,5.58,7.31,7.77a43.07,43.07,0,0,1,5.92,4.75c2,2.1,3.11,4.67,4.66,7.06a24.22,24.22,0,0,0,8.65,7.94c.3.17.6-.28.3-.45-5.68-3.21-7.86-7.67-11.44-12.74-2.2-3.11-5.4-5.12-8.38-7.38-7.6-5.78-9.12-15.75-18.16-20.08-.07,0-.13.07-.07.11Z" transform="translate(-0.15 -0.16)"/><path class="cls-6" d="M157.26,121.38c5.41,2.12,7.72,8.16,10.34,12.84,2.09,3.73,5.27,6.17,8.28,9.13a80.61,80.61,0,0,1,9.47,11.52c2.16,3.1,4.16,5.8,7.54,7.57.31.16.61-.29.3-.45-4.78-2.48-7.12-7.29-10.27-11.4a90.85,90.85,0,0,0-10.43-11c-5.49-5.14-7.34-16-15.13-18.45-.16-.05-.27.18-.11.24Z" transform="translate(-0.15 -0.16)"/><path class="cls-6" d="M160.66,119.74c5,3.23,6.41,8.53,9.31,13.38,2,3.4,4.93,6,7.65,8.85,6,6.26,9.24,14,16.16,19.64.27.22.57-.24.3-.46-7.52-6.08-11.56-14.86-18.29-21.69a45.19,45.19,0,0,1-8.17-12c-1.68-3.32-3.5-6.12-6.86-7.85-.1-.05-.2.11-.1.17Z" transform="translate(-0.15 -0.16)"/><path class="cls-6" d="M163.06,118.22c7.31,5.34,7.65,14.3,13.52,20.65,6.18,6.68,12.43,13,17.1,20.89.18.31.68.06.49-.25-4.69-7.93-11-14.27-17.2-21-5.84-6.34-6.12-15.62-13.77-20.49-.13-.08-.27.09-.15.19Z" transform="translate(-0.15 -0.16)"/><path class="cls-7" d="M211.61,58.74c-7.58-1.88-16,5-21.91,8.84-4.71,3.06-9.83,5.34-15.58,4.95-4-.27-7.93-2-12-.92-8.86,2.48-12.41,13-19.87,17.5-4.45,2.67-9.94,3.1-15,3.81s-10.33,1.46-15.5.92c-.29,0-.31.42,0,.45,8,.84,17.66-.57,25.41-2.71,8.6-2.37,12.57-10.19,18.87-15.83,5.28-4.72,10-4,16.49-3.14a21.17,21.17,0,0,0,11.3-1.46c8.77-3.64,17.39-14,27.72-12.24.11,0,.13-.14,0-.17Z" transform="translate(-0.15 -0.16)"/><path class="cls-7" d="M131.72,95.33a34.49,34.49,0,0,0,18-8.39c2.51-2.24,4.42-5,6.83-7.31,4.16-4,8.41-4.68,13.91-3.92,16.31,2.23,26.05-14.17,41.47-16,.3,0,.2-.5-.1-.46-7.83.89-14.09,5.47-20.6,9.56a57.82,57.82,0,0,1-9.3,5.27c-5.07,2-9.52,1.18-14.7.67-5.81-.57-9.17,2.41-12.94,6.52-6.5,7.09-12.91,11.81-22.6,13.76-.17,0-.15.29,0,.27Z" transform="translate(-0.15 -0.16)"/><path class="cls-7" d="M213,61.24c-5.47,9.72-16.15,14.86-24.27,22-7.41,6.55-11.52,15.36-18.23,22.45-14.07,14.85-34.38,24.17-55,22.92a.22.22,0,0,0,0,.44c20.17,1.22,40-7.62,54.09-21.82,7.48-7.52,11.91-17.18,20-24.2,7.74-6.7,19.19-12,23.53-21.76,0-.1-.1-.16-.15-.07Z" transform="translate(-0.15 -0.16)"/><path class="cls-7" d="M120.41,126.07c18.58-.1,35.94-10,47.14-24.45,7.22-9.35,14.16-18.87,24.7-24.76,3.93-2.19,8.08-3.48,11.62-6.36a55.23,55.23,0,0,0,8.88-9.68c.21-.28-.24-.58-.45-.3a51.08,51.08,0,0,1-9.4,10c-4,3-8.81,4.4-13,7.06-7.36,4.65-13.33,11.16-18.54,18.06-6.37,8.43-12.69,16.07-21.92,21.52-9,5.29-18.73,7.82-29,8.6-.17,0-.14.26,0,.26Z" transform="translate(-0.15 -0.16)"/><path class="cls-7" d="M127.64,120.55c8.32-1.45,16.79-3.7,24-8.18,6.92-4.28,11.53-10.73,16.54-17,6.23-7.77,13-15.18,21.71-20.13,4.33-2.44,9.06-4.21,13.25-6.88,3.34-2.13,6.11-5,8.86-7.86.22-.23-.1-.59-.33-.37-3.39,3.43-6.72,6.63-11,9s-8.56,4.06-12.62,6.53A69.14,69.14,0,0,0,172,90c-5.66,6.55-10.38,14.32-17.28,19.68-7.86,6.11-17.6,8.49-27.14,10.55-.22,0-.19.39,0,.35Z" transform="translate(-0.15 -0.16)"/><path class="cls-7" d="M211.33,60c-13.65,7.54-29.18,14.65-40.68,25.37-2.94,2.74-5.23,6-8,8.91a84.94,84.94,0,0,1-8.88,7.68c-7.42,5.87-15.06,11.36-24.48,13.39a.22.22,0,0,0,.09.42c14.21-3.1,27.7-14.27,36.93-25.11,11.95-14,29.87-20.84,45.12-30.5.11-.07,0-.23-.12-.17Z" transform="translate(-0.15 -0.16)"/><path class="cls-7" d="M140.31,105.31c2.79-.83,5.09-2.92,7.35-4.68q5.49-4.25,10.54-9c3.18-3,6.09-6.37,9.55-9.05,3.94-3.06,8.71-4.55,12.88-7.24.25-.16,0-.58-.21-.42-3.72,2.4-8,3.79-11.64,6.31a55.28,55.28,0,0,0-7.25,6.49c-2.85,2.83-5.74,5.59-8.79,8.21-3.61,3.11-8,7.56-12.52,9.16-.16.06-.07.29.09.25Z" transform="translate(-0.15 -0.16)"/><path class="cls-7" d="M139.14,98.5C145.7,98,151.51,91,156.18,87a50.19,50.19,0,0,1,24.39-11.71c.31-.05.2-.51-.1-.47a44.4,44.4,0,0,0-18.56,7.06c-7.06,4.86-14.07,14.85-22.8,16.32a.13.13,0,0,0,0,.26Z" transform="translate(-0.15 -0.16)"/><path class="cls-7" d="M33,44.38c3.47,4.2,4.86,9.68,6.87,14.66a92,92,0,0,0,6.35,13.21C50.78,79.87,57.41,86,64.28,91.59c6.53,5.27,13.89,9.71,22.23,11.29a69.65,69.65,0,0,0,15.12.75c4.38-.14,8.63-.18,12.66-2.1.39-.19.09-.78-.3-.6-5.11,2.41-11.25,2.12-16.8,2.12a50.83,50.83,0,0,1-13.85-1.59c-9-2.55-16.69-8.38-23.56-14.56s-12.31-12.69-16.31-21c-3.38-7-5.06-15.8-10.25-21.71-.12-.14-.35,0-.23.17Z" transform="translate(-0.15 -0.16)"/><path class="cls-7" d="M36.34,54.64c1.71,9,4.84,16.91,10.74,24a151.53,151.53,0,0,0,20.12,20c11.47,9.48,30.88,14.52,44.76,7.59a.34.34,0,0,0-.31-.61C96.92,112.7,78.23,106.7,66.24,97A142.33,142.33,0,0,1,48.62,79.48c-6.57-7.59-9.3-15.4-12-24.89,0-.14-.27-.08-.24.06Z" transform="translate(-0.15 -0.16)"/><path class="cls-7" d="M36.19,62.55a29,29,0,0,0,7.64,14.86.22.22,0,0,0,.32-.29,38.63,38.63,0,0,1-7.85-14.6.06.06,0,0,0-.12,0Z" transform="translate(-0.15 -0.16)"/><path class="cls-7" d="M59.26,95.73c5,9.28,13.68,13.27,23.42,16.14a54.91,54.91,0,0,0,16.86,2.34c2.63-.06,6.56,0,8.74-1.77.33-.27-.1-.73-.44-.49-3.38,2.45-9.63,1.74-13.49,1.44a58.42,58.42,0,0,1-13.12-2.66c-9-2.86-16.67-6.77-21.71-15.15-.09-.15-.36,0-.27.15Z" transform="translate(-0.15 -0.16)"/><path class="cls-7" d="M66.54,109.35c10,8.54,23.9,11.72,36.73,9.3.39-.07.25-.65-.13-.59-13.42,2-25.36-1.25-36.47-8.88a.11.11,0,0,0-.14.17Z" transform="translate(-0.15 -0.16)"/><path class="cls-7" d="M75.58,117.53c6.89,4.34,15.81,7.51,24,5.87a.26.26,0,0,0-.11-.5c-8.35,1.51-16.49-1.83-23.77-5.57-.12-.06-.23.13-.12.2Z" transform="translate(-0.15 -0.16)"/><path class="cls-7" d="M106.63,98.28c4.26.34,8.45.58,12.57-.76.28-.09.19-.55-.1-.45-4.05,1.32-8.21,1.09-12.39.76-.3,0-.37.43-.07.46Z" transform="translate(-0.15 -0.16)"/><path class="cls-7" d="M86.51,125.45a27.41,27.41,0,0,0,9.88.91c.3,0,.19-.48-.1-.45a27.16,27.16,0,0,1-9.71-.92c-.29-.08-.36.38-.07.46Z" transform="translate(-0.15 -0.16)"/><path class="cls-6" d="M44.23,30.91a1.31,1.31,0,0,0-2.13-.56,1.78,1.78,0,0,0-.19,2.25,1.42,1.42,0,0,0,2.12.46,1.76,1.76,0,0,0,.5-2.13.84.84,0,0,0-1.3-.25.86.86,0,0,0,.17,1.37l-.28-.31q0-.17,0-.05a.29.29,0,0,1-.08.16q.08-.11.24,0t0-.1a.72.72,0,0,1-.05-.19q0-.17,0,0c-.2,0,.18.17.22.19a.68.68,0,0,0,.87-.79Z" transform="translate(-0.15 -0.16)"/><path class="cls-6" d="M45.86,40.72c1,0,1.12-1.62.07-1.62s-1.12,1.62-.07,1.62Z" transform="translate(-0.15 -0.16)"/><path class="cls-6" d="M44.31,43.73c-1,.81,0,2.27,1.15,2a1.3,1.3,0,0,0,.16-2.47c-.66-.21-1.31.66-.78,1.19.35.35-.05-.11.25-.15s.18.23.23-.14a.61.61,0,0,0-1-.48Z" transform="translate(-0.15 -0.16)"/><path class="cls-6" d="M51,47.54c.88,0,.74-1.36-.14-1.36s-.74,1.36.14,1.36Z" transform="translate(-0.15 -0.16)"/><path class="cls-6" d="M54.41,48.16A1.52,1.52,0,0,0,53,49.58a1.58,1.58,0,0,0,1.58,1.58,1.7,1.7,0,0,0,1.77-1.52,1.8,1.8,0,0,0-1.47-2,.88.88,0,0,0-.69,1.46l.37.35s0-.07.06-.07c-.34-.06.12.12,0,.14s0-.16,0-.16c.48-.3.45-1.28-.27-1.23Z" transform="translate(-0.15 -0.16)"/><path class="cls-6" d="M58.3,53c.93,0,.78-1.44-.14-1.44S57.38,53,58.3,53Z" transform="translate(-0.15 -0.16)"/><path class="cls-6" d="M53.07,54.44a1.15,1.15,0,0,0,.39,1.61,1.46,1.46,0,0,0,1.93-.61,1.57,1.57,0,0,0-.38-2,1.37,1.37,0,0,0-1.9.36c-.65.9.92,1.89,1.41.93-.1.18-.42,0-.46,0s0,0,0,0,0,.2,0,0a.53.53,0,0,0-1-.31Z" transform="translate(-0.15 -0.16)"/><path class="cls-6" d="M59.24,57.06a.77.77,0,0,0,.69-.84.78.78,0,0,0-.84-.69.77.77,0,0,0-.69.84.78.78,0,0,0,.84.69Z" transform="translate(-0.15 -0.16)"/><path class="cls-6" d="M64.43,55.12a1.43,1.43,0,0,0-1,1.84,1.66,1.66,0,0,0,2.15,1,1.87,1.87,0,0,0,.92-2.38c-.29-.89-1.62-1.69-2.38-.81a.81.81,0,0,0,1.08,1.21c.07,0-.14,0-.17,0s0,.27,0,.33,0,.23-.14.26c-.35.08-.24-.73-.11-.9a.35.35,0,0,0-.39-.53Z" transform="translate(-0.15 -0.16)"/><path class="cls-6" d="M69.37,57.75c.2.55.91.31,1.14,0a.74.74,0,0,0,.15-.52.73.73,0,0,0-.78-.64l.78.82a.71.71,0,0,0-.87-.8c-.59.14-.58.66-.42,1.11Z" transform="translate(-0.15 -0.16)"/><path class="cls-6" d="M69.18,59.12c-1-.16-1.43,1-1.05,1.78a1.77,1.77,0,0,0,2.05.91,1.41,1.41,0,0,0,.7-1.94,1.65,1.65,0,0,0-2.16-.67c-1,.45-.34,1.72.58,1.62a.84.84,0,0,0,.17,0l-.07-.05q-.21-.25.13-.35c.11-.08.32-.21,0-.25-.11,0-.15.39.06.22.53-.43.12-1.15-.44-1.24Z" transform="translate(-0.15 -0.16)"/><path class="cls-6" d="M75,58.12a1,1,0,0,0-.52,1.17,1.17,1.17,0,0,0,1.14.82A1.14,1.14,0,0,0,76.32,58c-.75-.51-1.53.67-.78,1.18q.17-.78.31-.38a.58.58,0,0,0-.8-.68Z" transform="translate(-0.15 -0.16)"/><path class="cls-6" d="M77.71,60.81a1.13,1.13,0,0,0-.45,1.46,1.22,1.22,0,0,0,1.5.58,1.31,1.31,0,0,0-.5-2.54.83.83,0,1,0,.14,1.64q-.5-.48-.15-.53a.21.21,0,0,1,.22,0l0,.08a.21.21,0,0,1,0-.2.56.56,0,0,0-.8-.52Z" transform="translate(-0.15 -0.16)"/><path class="cls-6" d="M82.72,60.82c.86,0,.72-1.34-.13-1.34s-.72,1.34.13,1.34Z" transform="translate(-0.15 -0.16)"/><path class="cls-6" d="M87.9,61.5c.54,0,.45-.83-.08-.83s-.45.83.08.83Z" transform="translate(-0.15 -0.16)"/><path class="cls-6" d="M81.53,57.62c.93,0,1-1.46.07-1.46s-1,1.46-.07,1.46Z" transform="translate(-0.15 -0.16)"/></g></g></svg>