<?xml version="1.0" encoding="UTF-8"?>
<svg width="809px" height="840px" viewBox="0 0 809 840" version="1.1" xmlns="http://www.w3.org/2000/svg" xmlns:xlink="http://www.w3.org/1999/xlink">
    <!-- Generator: Sketch 63 (92445) - https://sketch.com -->
    <title>icon05</title>
    <desc>Created with Sketch.</desc>
    <g id="icon05" stroke="none" stroke-width="1" fill="none" fill-rule="evenodd" transform="translate(0.000000, 1.000000)">
        <g id="编组-5" transform="translate(277.893674, 571.653693)" fill="#FF5059" fill-opacity="0.623579545" stroke="#781E21" stroke-width="0.96">
            <path d="M60.5797183,2.02982197 C62.4705413,-2.66038648 93.3796836,0.777478239 153.307145,12.3434161 L153.307145,12.3434178 C157.471835,13.1471988 160.196391,17.1749408 159.39261,21.3396315 C159.086786,22.9242181 158.289564,24.3722001 157.114129,25.4780004 C154.820804,27.6354634 153.661417,29.1111226 153.635968,29.9049782 C153.4657,35.2162843 156.190419,39.3806584 157.573468,47.701072 C172.738468,51.563572 180.086593,63.211072 179.617843,82.643572 C178.914718,111.792322 186.135343,218.995447 157.573468,251.686072 C138.937843,265.748572 22.9878433,251.686072 7.18388442,235.783538 C-13.3381636,215.133486 15.9115933,80.599822 22.9878433,61.116697 C27.7053433,48.127947 37.938937,39.936697 53.6886245,36.542947 C60.1860704,23.189021 63.3249767,15.6305835 63.1053433,13.8676345 C62.335187,7.68575947 57.5009683,9.66669697 60.5797183,2.02982197 Z" id="矩形"></path>
        </g>
        <path d="M25.1287042,53.9318179 C83.2068292,14.9349429 381.472454,401.903693 351.47995,561.253693 C333.394329,316.425568 -32.9494208,92.9286929 25.1287042,53.9318179 Z" id="矩形" fill="#DE323B"></path>
        <path d="M135.783903,254.611074 C171.491654,230.634909 181.822818,475.811374 336.432067,566.524095 C171.491654,510.055124 100.076151,278.587239 135.783903,254.611074 Z" id="矩形备份-6" fill="#FFCC00"></path>
        <path d="M404.976043,241.778693 C445.63073,214.48088 634.667449,289.859943 790.001928,566.853693 C643.688543,393.241414 364.321355,269.076505 404.976043,241.778693 Z" id="矩形备份-12" fill="#A258BA" transform="translate(595.489873, 401.700939) scale(-1, 1) translate(-595.489873, -401.700939) "></path>
        <path d="M426.053423,216.52838 C466.70811,189.230568 455.005722,498.814536 654.499295,571.653693 C415.599472,524.414536 385.398735,243.826193 426.053423,216.52838 Z" id="矩形备份-5" fill="#5CACC9" transform="translate(532.709281, 393.241414) scale(-1, 1) translate(-532.709281, -393.241414) "></path>
        <path d="M337.826957,392.648029 C362.219769,376.269341 385.548005,486.673528 286.317283,571.653693 C354.948005,453.575568 313.434144,409.026716 337.826957,392.648029 Z" id="矩形备份-26" fill="#FCC7D8" transform="translate(322.687564, 481.335589) scale(-1, 1) translate(-322.687564, -481.335589) "></path>
        <path d="M262.757474,301.554331 C290.797538,282.746498 434.799902,469.377962 420.319549,546.231 C411.587828,428.15265 234.71741,320.362165 262.757474,301.554331 Z" id="矩形" fill="#12680A" transform="translate(340.543561, 423.231000) rotate(13.000000) translate(-340.543561, -423.231000) "></path>
        <path d="M374.037526,9.79431789 C414.692213,-17.5034946 654.268538,394.091037 616.423254,573.629279 C596.341222,393.241414 333.382838,37.0921304 374.037526,9.79431789 Z" id="矩形备份-5" fill="#DE323B" transform="translate(495.117678, 291.064639) scale(-1, 1) translate(-495.117678, -291.064639) "></path>
    </g>
</svg>