<svg viewBox="0 0 1208.58 1202.58" xmlns="http://www.w3.org/2000/svg" id="图层_1"><defs><style>.cls-1{fill:#fff;}.cls-2{fill:#060001;}.cls-3{fill:#7bceff;}.cls-4{fill:#040000;}.cls-5{fill:#3991ff;}</style></defs><title>星球</title><circle r="600.65" cy="601.34" cx="601.93" class="cls-1"></circle><path transform="translate(1.29 1.29)" d="M600,1201.29A601.45,601.45,0,0,1,366,46,601.45,601.45,0,0,1,834.05,1154,597.62,597.62,0,0,1,600,1201.29ZM600,4.71a595.45,595.45,0,0,0-231.71,1143.8,595.44,595.44,0,0,0,463.42-1097A591.58,591.58,0,0,0,600,4.71Z" class="cls-2"></path><path transform="translate(1.29 1.29)" d="M914.33,600c0,5.49-.14,10.83-.42,16.17A314.08,314.08,0,0,1,651.4,910h-.14a306.86,306.86,0,0,1-51.18,4.22A315.35,315.35,0,0,1,509.53,901a311.84,311.84,0,0,1-101.1-51.88C333.77,791.65,285.68,701.52,285.68,600a315,315,0,0,1,6.61-64.54A316.22,316.22,0,0,1,507,299.67a317.27,317.27,0,0,1,93.09-13.92,311.45,311.45,0,0,1,147.77,37C847,375.59,914.33,479.92,914.33,600Z" class="cls-3"></path><path transform="translate(1.29 1.29)" d="M600.08,919.17a320.74,320.74,0,0,1-92-13.41,316.46,316.46,0,0,1-102.69-52.7C326.2,792,280.76,699.8,280.76,600a321.19,321.19,0,0,1,6.7-65.55A321.28,321.28,0,0,1,505.53,295c80.67-24.71,170.83-16.2,244.66,23.43A318.63,318.63,0,0,1,919.25,600c0,5.57-.14,11-.43,16.43A319.07,319.07,0,0,1,600.08,919.17Zm0-628.5a312.76,312.76,0,0,0-91.65,13.7A308.85,308.85,0,0,0,290.6,600c0,96.72,44,186.12,120.83,245.26a307,307,0,0,0,99.5,51.08c45.32,13.51,94.75,16.44,139.5,8.86A309.12,309.12,0,0,0,909,615.91c.29-5.26.43-10.51.43-15.91A309.51,309.51,0,0,0,600.08,290.67Z" class="cls-4"></path><path transform="translate(1.29 1.29)" d="M849.51,791.23A314.26,314.26,0,0,1,651.4,910c43.59-90,21-195.58-43.59-267.85-70-78.32-110.24-162.27-100.82-342.52a317.27,317.27,0,0,1,93.09-13.92c-9,131.18,34.45,196.28,145.67,310.6C806.35,658.64,835.59,734.85,849.51,791.23Z" class="cls-5"></path><path transform="translate(1.29 1.29)" d="M651.4,915A4.92,4.92,0,0,1,647,907.9c40.93-84.47,24.11-187.48-42.82-262.43-70.08-78.38-111.6-163.61-102.06-346.06a4.92,4.92,0,0,1,3.47-4.45,322.42,322.42,0,0,1,94.53-14.13,4.91,4.91,0,0,1,4.9,5.25c-8.62,125.73,30.31,189.69,144.29,306.83,62.42,64.16,91.56,142.62,105,197.14a4.91,4.91,0,0,1-.88,4.17A318.05,318.05,0,0,1,652.19,914.9,5.25,5.25,0,0,1,651.4,915ZM511.73,303.38c-8.66,176.69,31.78,259.51,99.75,335.53,67.34,75.41,85.82,178.26,48.32,264.62A308.18,308.18,0,0,0,844.15,790.1c-13.4-53.22-41.92-128.63-101.94-190.32C627.57,482,587.39,416.67,594.83,290.71A313.15,313.15,0,0,0,511.73,303.38Z"></path><path transform="translate(1.29 1.29)" d="M509.53,901a311.84,311.84,0,0,1-101.1-51.88c3.23-40.64-5.2-97-51.89-160.43C319.85,639,301.29,584,292.29,535.46A311.2,311.2,0,0,1,361,396.12c-5.62,137.66,15,227.36,98.15,307.23C510.79,753.12,515.85,835.8,509.53,901Z" class="cls-5"></path><path transform="translate(1.29 1.29)" d="M509.53,906a4.81,4.81,0,0,1-1.41-.2,316.46,316.46,0,0,1-102.69-52.7,5,5,0,0,1-1.91-4.29c4.13-51.91-13.48-106.25-50.94-157.14-32.21-43.67-54.12-95.91-65.14-155.27a5.11,5.11,0,0,1,0-1.91,317.23,317.23,0,0,1,69.86-141.54,4.92,4.92,0,0,1,8.64,3.41c-6,147.73,20.16,230,96.64,303.48,54,52.05,58,138.43,51.82,201.73a4.9,4.9,0,0,1-4.89,4.43Zm-96-59.09a307.38,307.38,0,0,0,91.64,47.68c5.1-60.48.06-139.94-49.4-187.66C369.21,623.71,352.15,531.17,355.62,410.5a307.48,307.48,0,0,0-58.32,125c10.8,57.47,32.06,108,63.21,150.27C408.48,751,416,808.91,413.53,846.87Z"></path><path transform="translate(1.29 1.29)" d="M914.33,600c0,5.49-.14,10.83-.42,16.17-18-38-46.54-79.3-79.3-115.86-52.87-59.19-76.49-83.66-86.76-177.58C847,375.59,914.33,479.92,914.33,600Z" class="cls-5"></path><path transform="translate(1.29 1.29)" d="M913.91,621.08a4.93,4.93,0,0,1-4.45-2.8c-17.58-37.08-45.46-77.8-78.52-114.69l-3.65-4.09c-50.9-56.95-74.13-82.94-84.32-176.24a4.91,4.91,0,0,1,7.21-4.87A318.62,318.62,0,0,1,919.25,600c0,5.57-.14,11-.43,16.43a4.93,4.93,0,0,1-4,4.57A5.15,5.15,0,0,1,913.91,621.08Zm-160-289.41C764.25,414.21,787,439.6,834.62,492.94l3.66,4.1c28.52,31.81,53.27,66.5,71.11,99.4A308.74,308.74,0,0,0,753.86,331.67Z"></path><path transform="translate(1.29 1.29)" d="M914.33,600c0,5.49-.14,10.83-.42,16.17A314.08,314.08,0,0,1,651.4,910h-.14a306.86,306.86,0,0,1-51.18,4.22A315.35,315.35,0,0,1,509.53,901a311.84,311.84,0,0,1-101.1-51.88C333.77,791.65,285.68,701.52,285.68,600a277.09,277.09,0,0,1,1.4-28.68c8.16,89.43,54,168,121.35,219.91a311.84,311.84,0,0,0,101.1,51.88,315.35,315.35,0,0,0,90.55,13.22,306.86,306.86,0,0,0,51.18-4.22h.14A313.94,313.94,0,0,0,912.93,571.18,281.74,281.74,0,0,1,914.33,600Z"></path><path transform="translate(1.29 1.29)" d="M600.08,919.17a320.74,320.74,0,0,1-92-13.41,316.46,316.46,0,0,1-102.69-52.7C326.2,792,280.76,699.8,280.76,600a279.51,279.51,0,0,1,1.43-29.2,4.92,4.92,0,0,1,4.9-4.41h0a4.93,4.93,0,0,1,4.87,4.48c7.75,85.06,51.29,164,119.44,216.46a307,307,0,0,0,99.5,51.08c45.32,13.52,94.75,16.43,139.5,8.85A309,309,0,0,0,908,570.73a4.92,4.92,0,0,1,4.88-4.47h0a4.93,4.93,0,0,1,4.91,4.42A292.34,292.34,0,0,1,919.25,600c0,5.57-.14,11-.43,16.43A319.07,319.07,0,0,1,600.08,919.17ZM291.54,624.28c6.72,87.29,49.57,166.82,119.89,221a307,307,0,0,0,99.5,51.08c45.32,13.51,94.75,16.44,139.5,8.86a309.14,309.14,0,0,0,258-280.93A318.8,318.8,0,0,1,652.19,857a323.88,323.88,0,0,1-144.07-9.14,316.46,316.46,0,0,1-102.69-52.7A320.42,320.42,0,0,1,291.54,624.28Z" class="cls-4"></path><path transform="translate(1.29 1.29)" d="M1076.17,542.07c0,48.93-65.38,92.66-168.3,121.91-83,23.76-190.39,38-307.79,38s-224.83-14.2-307.79-38c-103.07-29.25-168.45-73-168.45-121.91,0-58.07,92.1-109,230-137.09A291.06,291.06,0,0,0,321,455.46c-62.71,22.78-100.81,53.15-100.81,86.61,0,26.72,24.18,51.32,65.8,71.71,68.34,33.75,183.63,55.82,314.12,55.82,130.34,0,245.5-22.07,313.83-55.82,41.62-20.39,66-45,66-71.71,0-33.46-38.25-63.83-100.68-86.61A310.07,310.07,0,0,0,846.56,405C984.22,433.1,1076.17,484,1076.17,542.07Z" class="cls-1"></path><path transform="translate(1.29 1.29)" d="M600.08,706.86c-113.42,0-223.21-13.54-309.15-38.14-109.31-31-172-77.19-172-126.64,0-59,87.47-112.05,234-141.92a4.93,4.93,0,0,1,4.81,7.93,284.72,284.72,0,0,0-32.35,49.61,4.92,4.92,0,0,1-2.7,2.39c-62.92,22.85-97.57,52-97.57,82,0,23.81,21.8,47.08,63,67.28,70.16,34.64,186.77,55.33,312,55.33,125,0,241.52-20.69,311.64-55.33,41.36-20.25,63.22-43.52,63.22-67.28,0-30-34.61-59.07-97.45-82a5,5,0,0,1-2.69-2.36A305.12,305.12,0,0,0,842.7,408a4.91,4.91,0,0,1-.33-5.63,5,5,0,0,1,5.18-2.25c146.23,29.88,233.54,82.93,233.54,141.92,0,49.44-62.65,95.59-171.88,126.64C823.28,693.32,713.5,706.86,600.08,706.86ZM341.78,412.57c-131.79,28.88-213,78-213,129.51,0,44.72,60.09,87.44,164.87,117.16C378.72,683.62,487.55,697,600.08,697s221.35-13.41,306.43-37.79c104.7-29.74,164.74-72.45,164.74-117.16,0-51.5-81.15-100.67-212.79-129.54a312.61,312.61,0,0,1,24.21,39c65.87,24.37,102.1,56.5,102.1,90.58,0,27.78-23.75,54.1-68.69,76.12-71.4,35.28-189.55,56.33-316,56.33-126.63,0-244.87-21-316.3-56.34-44.84-22-68.55-48.28-68.55-76.11,0-34.15,36.29-66.29,102.24-90.58A295,295,0,0,1,341.78,412.57Z" class="cls-4"></path><circle r="600.65" cy="601.34" cx="607.93" class="cls-1"></circle><path transform="translate(1.29 1.29)" d="M606,1201.29A601.45,601.45,0,0,1,372,46,601.45,601.45,0,0,1,840.05,1154,597.62,597.62,0,0,1,606,1201.29ZM606,4.71a595.45,595.45,0,0,0-231.71,1143.8,595.44,595.44,0,0,0,463.42-1097A591.58,591.58,0,0,0,606,4.71Z" class="cls-2"></path><path transform="translate(1.29 1.29)" d="M920.33,600c0,5.49-.14,10.83-.42,16.17A314.08,314.08,0,0,1,657.4,910h-.14a306.86,306.86,0,0,1-51.18,4.22A315.35,315.35,0,0,1,515.53,901a311.84,311.84,0,0,1-101.1-51.88C339.77,791.65,291.68,701.52,291.68,600a315,315,0,0,1,6.61-64.54A316.22,316.22,0,0,1,513,299.67a317.27,317.27,0,0,1,93.09-13.92,311.45,311.45,0,0,1,147.77,37C853,375.59,920.33,479.92,920.33,600Z" class="cls-3"></path><path transform="translate(1.29 1.29)" d="M606.08,919.17a320.74,320.74,0,0,1-92-13.41,316.46,316.46,0,0,1-102.69-52.7C332.2,792,286.76,699.8,286.76,600a321.19,321.19,0,0,1,6.7-65.55A321.28,321.28,0,0,1,511.53,295c80.67-24.71,170.83-16.2,244.66,23.43A318.63,318.63,0,0,1,925.25,600c0,5.57-.14,11-.43,16.43A319.07,319.07,0,0,1,606.08,919.17Zm0-628.5a312.76,312.76,0,0,0-91.65,13.7A308.85,308.85,0,0,0,296.6,600c0,96.72,44,186.12,120.83,245.26a307,307,0,0,0,99.5,51.08c45.32,13.51,94.75,16.44,139.5,8.86A309.12,309.12,0,0,0,915,615.91c.29-5.26.43-10.51.43-15.91A309.51,309.51,0,0,0,606.08,290.67Z" class="cls-4"></path><path transform="translate(1.29 1.29)" d="M855.51,791.23A314.26,314.26,0,0,1,657.4,910c43.59-90,21-195.58-43.59-267.85-70-78.32-110.24-162.27-100.82-342.52a317.27,317.27,0,0,1,93.09-13.92c-9,131.18,34.45,196.28,145.67,310.6C812.35,658.64,841.59,734.85,855.51,791.23Z" class="cls-5"></path><path transform="translate(1.29 1.29)" d="M657.4,915A4.92,4.92,0,0,1,653,907.9c40.93-84.47,24.11-187.48-42.82-262.43-70.08-78.38-111.6-163.61-102.06-346.06a4.92,4.92,0,0,1,3.47-4.45,322.42,322.42,0,0,1,94.53-14.13,4.91,4.91,0,0,1,4.9,5.25c-8.62,125.73,30.31,189.69,144.29,306.83,62.42,64.16,91.56,142.62,105,197.14a4.91,4.91,0,0,1-.88,4.17A318.05,318.05,0,0,1,658.19,914.9,5.25,5.25,0,0,1,657.4,915ZM517.73,303.38c-8.66,176.69,31.78,259.51,99.75,335.53,67.34,75.41,85.82,178.26,48.32,264.62A308.18,308.18,0,0,0,850.15,790.1c-13.4-53.22-41.92-128.63-101.94-190.32C633.57,482,593.39,416.67,600.83,290.71A313.15,313.15,0,0,0,517.73,303.38Z"></path><path transform="translate(1.29 1.29)" d="M515.53,901a311.84,311.84,0,0,1-101.1-51.88c3.23-40.64-5.2-97-51.89-160.43C325.85,639,307.29,584,298.29,535.46A311.2,311.2,0,0,1,367,396.12c-5.62,137.66,15,227.36,98.15,307.23C516.79,753.12,521.85,835.8,515.53,901Z" class="cls-5"></path><path transform="translate(1.29 1.29)" d="M515.53,906a4.81,4.81,0,0,1-1.41-.2,316.46,316.46,0,0,1-102.69-52.7,5,5,0,0,1-1.91-4.29c4.13-51.91-13.48-106.25-50.94-157.14-32.21-43.67-54.12-95.91-65.14-155.27a5.11,5.11,0,0,1,0-1.91,317.23,317.23,0,0,1,69.86-141.54,4.92,4.92,0,0,1,8.64,3.41c-6,147.73,20.16,230,96.64,303.48,54,52.05,58,138.43,51.82,201.73a4.9,4.9,0,0,1-4.89,4.43Zm-96-59.09a307.38,307.38,0,0,0,91.64,47.68c5.1-60.48.06-139.94-49.4-187.66C375.21,623.71,358.15,531.17,361.62,410.5a307.48,307.48,0,0,0-58.32,125c10.8,57.47,32.06,108,63.21,150.27C414.48,751,422,808.91,419.53,846.87Z"></path><path transform="translate(1.29 1.29)" d="M920.33,600c0,5.49-.14,10.83-.42,16.17-18-38-46.54-79.3-79.3-115.86-52.87-59.19-76.49-83.66-86.76-177.58C853,375.59,920.33,479.92,920.33,600Z" class="cls-5"></path><path transform="translate(1.29 1.29)" d="M919.91,621.08a4.93,4.93,0,0,1-4.45-2.8c-17.58-37.08-45.46-77.8-78.52-114.69l-3.65-4.09c-50.9-56.95-74.13-82.94-84.32-176.24a4.91,4.91,0,0,1,7.21-4.87A318.62,318.62,0,0,1,925.25,600c0,5.57-.14,11-.43,16.43a4.93,4.93,0,0,1-4,4.57A5.15,5.15,0,0,1,919.91,621.08Zm-160-289.41C770.25,414.21,793,439.6,840.62,492.94l3.66,4.1c28.52,31.81,53.27,66.5,71.11,99.4A308.74,308.74,0,0,0,759.86,331.67Z"></path><path transform="translate(1.29 1.29)" d="M920.33,600c0,5.49-.14,10.83-.42,16.17A314.08,314.08,0,0,1,657.4,910h-.14a306.86,306.86,0,0,1-51.18,4.22A315.35,315.35,0,0,1,515.53,901a311.84,311.84,0,0,1-101.1-51.88C339.77,791.65,291.68,701.52,291.68,600a277.09,277.09,0,0,1,1.4-28.68c8.16,89.43,54,168,121.35,219.91a311.84,311.84,0,0,0,101.1,51.88,315.35,315.35,0,0,0,90.55,13.22,306.86,306.86,0,0,0,51.18-4.22h.14A313.94,313.94,0,0,0,918.93,571.18,281.74,281.74,0,0,1,920.33,600Z"></path><path transform="translate(1.29 1.29)" d="M606.08,919.17a320.74,320.74,0,0,1-92-13.41,316.46,316.46,0,0,1-102.69-52.7C332.2,792,286.76,699.8,286.76,600a279.51,279.51,0,0,1,1.43-29.2,4.92,4.92,0,0,1,4.9-4.41h0a4.93,4.93,0,0,1,4.87,4.48c7.75,85.06,51.29,164,119.44,216.46a307,307,0,0,0,99.5,51.08c45.32,13.52,94.75,16.43,139.5,8.85A309,309,0,0,0,914,570.73a4.92,4.92,0,0,1,4.88-4.47h0a4.93,4.93,0,0,1,4.91,4.42A292.34,292.34,0,0,1,925.25,600c0,5.57-.14,11-.43,16.43A319.07,319.07,0,0,1,606.08,919.17ZM297.54,624.28c6.72,87.29,49.57,166.82,119.89,221a307,307,0,0,0,99.5,51.08c45.32,13.51,94.75,16.44,139.5,8.86a309.14,309.14,0,0,0,258-280.93A318.8,318.8,0,0,1,658.19,857a323.88,323.88,0,0,1-144.07-9.14,316.46,316.46,0,0,1-102.69-52.7A320.42,320.42,0,0,1,297.54,624.28Z" class="cls-4"></path><path transform="translate(1.29 1.29)" d="M1082.17,542.07c0,48.93-65.38,92.66-168.3,121.91-83,23.76-190.39,38-307.79,38s-224.83-14.2-307.79-38c-103.07-29.25-168.45-73-168.45-121.91,0-58.07,92.1-109,230-137.09A291.06,291.06,0,0,0,327,455.46c-62.71,22.78-100.81,53.15-100.81,86.61,0,26.72,24.18,51.32,65.8,71.71,68.34,33.75,183.63,55.82,314.12,55.82,130.34,0,245.5-22.07,313.83-55.82,41.62-20.39,66-45,66-71.71,0-33.46-38.25-63.83-100.68-86.61A310.07,310.07,0,0,0,852.56,405C990.22,433.1,1082.17,484,1082.17,542.07Z" class="cls-1"></path><path transform="translate(1.29 1.29)" d="M606.08,706.86c-113.42,0-223.21-13.54-309.15-38.14-109.31-31-172-77.19-172-126.64,0-59,87.47-112.05,234-141.92a4.93,4.93,0,0,1,4.81,7.93,284.72,284.72,0,0,0-32.35,49.61,4.92,4.92,0,0,1-2.7,2.39c-62.92,22.85-97.57,52-97.57,82,0,23.81,21.8,47.08,63,67.28,70.16,34.64,186.77,55.33,312,55.33,125,0,241.52-20.69,311.64-55.33,41.36-20.25,63.22-43.52,63.22-67.28,0-30-34.61-59.07-97.45-82a5,5,0,0,1-2.69-2.36A305.12,305.12,0,0,0,848.7,408a4.91,4.91,0,0,1-.33-5.63,5,5,0,0,1,5.18-2.25c146.23,29.88,233.54,82.93,233.54,141.92,0,49.44-62.65,95.59-171.88,126.64C829.28,693.32,719.5,706.86,606.08,706.86ZM347.78,412.57c-131.79,28.88-213,78-213,129.51,0,44.72,60.09,87.44,164.87,117.16C384.72,683.62,493.55,697,606.08,697s221.35-13.41,306.43-37.79c104.7-29.74,164.74-72.45,164.74-117.16,0-51.5-81.15-100.67-212.79-129.54a312.61,312.61,0,0,1,24.21,39c65.87,24.37,102.1,56.5,102.1,90.58,0,27.78-23.75,54.1-68.69,76.12-71.4,35.28-189.55,56.33-316,56.33-126.63,0-244.87-21-316.3-56.34-44.84-22-68.55-48.28-68.55-76.11,0-34.15,36.29-66.29,102.24-90.58A295,295,0,0,1,347.78,412.57Z" class="cls-4"></path></svg>