<?xml version="1.0" standalone="no"?><!DOCTYPE svg PUBLIC "-//W3C//DTD SVG 1.1//EN" "http://www.w3.org/Graphics/SVG/1.1/DTD/svg11.dtd"><svg t="1640846200476" class="icon" viewBox="0 0 1024 1024" version="1.1" xmlns="http://www.w3.org/2000/svg" p-id="4760" xmlns:xlink="http://www.w3.org/1999/xlink" width="200" height="200"><defs><style type="text/css"></style></defs><path d="M279.313782 931.648071a33.869901 33.869901 0 0 1-33.869901-33.418303l-1.580595-98.90011H171.607497a135.028004 135.028004 0 0 1-134.802205-134.802205v-395.148842A135.028004 135.028004 0 0 1 171.607497 134.576406h680.785006a135.028004 135.028004 0 0 1 134.802205 134.802205v395.148842a135.028004 135.028004 0 0 1-134.802205 134.802205H496.984344l-199.380816 127.125028c-5.644983 3.38699-11.967365 5.193385-18.289746 5.193385zM171.607497 202.090408a67.062404 67.062404 0 0 0-67.062403 67.062403v395.148843a67.062404 67.062404 0 0 0 67.062403 67.062403h105.448291c18.515546 0 33.644101 14.902756 33.869901 33.418302l1.128997 71.80419 156.478941-99.803308c5.419184-3.38699 11.741566-5.419184 18.289747-5.419184h365.569129a67.062404 67.062404 0 0 0 67.062403-67.062403v-395.148843a67.062404 67.062404 0 0 0-67.062403-67.062403H171.607497z" fill="#919191" p-id="4761"></path></svg>