<?xml version="1.0" standalone="no"?><!DOCTYPE svg PUBLIC "-//W3C//DTD SVG 1.1//EN" "http://www.w3.org/Graphics/SVG/1.1/DTD/svg11.dtd"><svg t="1640832052463" class="icon" viewBox="0 0 1024 1024" version="1.1" xmlns="http://www.w3.org/2000/svg" p-id="8986" xmlns:xlink="http://www.w3.org/1999/xlink" width="200" height="200"><defs><style type="text/css"></style></defs><path d="M94.72 845.963636v-1.629091c0-0.465455-0.232727 1.163636 0 1.629091zM93.090909 833.629091v3.956364a64.698182 64.698182 0 0 1 17.687273-46.545455A58.88 58.88 0 0 0 93.090909 833.629091z" fill="#73B4FF" p-id="8987"></path><path d="M94.72 845.963636a50.269091 50.269091 0 0 0 10.938182 24.669091 58.647273 58.647273 0 0 0 50.269091 21.178182h-4.421818a58.181818 58.181818 0 0 1-56.785455-45.847273zM94.254545 844.334545L93.090909 837.818182zM228.770909 837.818182l-36.770909 37.469091a57.483636 57.483636 0 0 1-36.072727 16.523636h391.214545a58.181818 58.181818 0 0 0 0-116.363636h-189.44L318.370909 814.545455z" fill="#87D3FF" p-id="8988"></path><path d="M839.214545 228.072727l-82.152727-82.385454a46.545455 46.545455 0 0 0-65.861818 0L170.123636 666.763636l-23.272727 89.367273L112.174545 791.272727a57.949091 57.949091 0 0 1 40.261819-16.058182h206.196363l481.512728-481.745454a46.545455 46.545455 0 0 0-0.93091-65.396364z" fill="#73B4FF" p-id="8989"></path><path d="M111.243636 791.272727A64.698182 64.698182 0 0 0 93.090909 837.818182v8.378182a58.181818 58.181818 0 0 0 56.785455 46.545454h6.050909a57.483636 57.483636 0 0 0 36.072727-16.523636L228.770909 837.818182l89.6-23.272727 39.330909-39.33091H151.505455a57.949091 57.949091 0 0 0-40.261819 16.058182z" fill="#73B4FF" p-id="8990"></path><path d="M111.243636 791.272727A64.698182 64.698182 0 0 0 93.090909 837.818182v8.378182a58.181818 58.181818 0 0 0 56.785455 46.545454h6.050909a57.483636 57.483636 0 0 0 36.072727-16.523636L228.770909 837.818182l89.6-23.272727 39.330909-39.33091H151.505455a57.949091 57.949091 0 0 0-40.261819 16.058182z" fill="#1474E4" p-id="8991"></path></svg>