<?xml version="1.0" standalone="no"?><!DOCTYPE svg PUBLIC "-//W3C//DTD SVG 1.1//EN" "http://www.w3.org/Graphics/SVG/1.1/DTD/svg11.dtd"><svg t="1638336719472" class="icon" viewBox="0 0 1024 1024" version="1.1" xmlns="http://www.w3.org/2000/svg" p-id="5160" xmlns:xlink="http://www.w3.org/1999/xlink" width="200" height="200"><defs><style type="text/css"></style></defs><path d="M233.7 811.8c-3.8 0-7.6-0.7-11.3-2.1-11.5-4.4-19.2-14.9-20-27.3l-6.3-89c-45.3-7.4-80-47.7-80-96.1V297.4c0-53.7 42.6-97.3 95-97.3h513.2c52.4 0 95 43.7 95 97.3v299.9c0 53.7-42.6 97.3-95 97.3H382.2c-8.5 0-16.7 3.3-23.1 9.4l-103.9 99.1c-6 5.7-13.6 8.7-21.5 8.7z m-22.6-565.6c-27 0-48.9 23-48.9 51.2v299.9c0 28.2 21.9 51.2 48.9 51.2 15.7 0 28.9 12.4 30 28.2l5 71.3 81.1-77.4c15-14.3 34.5-22.1 54.9-22.1h342.2c27 0 48.9-23 48.9-51.2V297.4c0-28.2-21.9-51.2-48.9-51.2H211.1z" p-id="5161"></path><path d="M835.3 850.2c-6.9 0-13.6-2.6-18.9-7.5L754 785c-2.1-2-4.9-3-7.8-3H497.5c-12.7 0-23.1-10.3-23.1-23.1s10.3-23.1 23.1-23.1h248.7c14.5 0 28.4 5.4 39.1 15.3l34.8 32.2 1.6-22.2c1-14.2 13-25.3 27.2-25.3 11.1 0 20.1-9 20.1-20.1V541.3c0-11.1-9-20.1-20.1-20.1h-42.8c-12.7 0-23.1-10.3-23.1-23.1s10.3-23.1 23.1-23.1h42.8c36.5 0 66.3 29.7 66.3 66.3v174.4c0 30.4-20.6 56.1-48.6 63.9l-3.2 44.5c-0.8 10.8-7.6 20-17.7 24-3.4 1.4-6.9 2.1-10.4 2.1z" p-id="5162"></path><path d="M267.7 674.8c-2.1-29.7-27-53-56.6-53-12.3 0-22.2-11-22.2-24.6V297.4c0-13.5 10-24.6 22.2-24.6h513.2c12.3 0 22.2 11 22.2 24.6v299.9c0 13.5-10 24.6-22.2 24.6H382.2c-27.3 0-53.3 10.5-73.3 29.5l-40.1 38.2-1.1-14.8z" fill="#8ED7E8" p-id="5163"></path><path d="M316.3 448.9m-31.1 0a31.1 31.1 0 1 0 62.2 0 31.1 31.1 0 1 0-62.2 0Z" fill="#FFDE55" p-id="5164"></path><path d="M460.2 448.9m-31.1 0a31.1 31.1 0 1 0 62.2 0 31.1 31.1 0 1 0-62.2 0Z" fill="#CCF8FF" p-id="5165"></path><path d="M604.2 448.9m-31.1 0a31.1 31.1 0 1 0 62.2 0 31.1 31.1 0 1 0-62.2 0Z" fill="#FFDE55" p-id="5166"></path></svg>