<?xml version="1.0" standalone="no"?><!DOCTYPE svg PUBLIC "-//W3C//DTD SVG 1.1//EN" "http://www.w3.org/Graphics/SVG/1.1/DTD/svg11.dtd"><svg t="1637220981050" class="icon" viewBox="0 0 1024 1024" version="1.1" xmlns="http://www.w3.org/2000/svg" p-id="1628" xmlns:xlink="http://www.w3.org/1999/xlink" width="200" height="200"><defs><style type="text/css"></style></defs><path d="M595.3 279.25c-193 0-349.5 120-349.5 268 0 131.63 123.75 241.09 286.9 263.71 204.46-8.45 367.62-146.83 367.62-315.72a263.28 263.28 0 0 0-22.15-105.42c-63.53-67.01-166.56-110.57-282.87-110.57z" fill="#BAD4FF" p-id="1629"></path><path d="M317.49 459.23a43.3 43.3 0 1 0 43.3-43.29 43.29 43.29 0 0 0-43.3 43.29zM621.65 459.23A43.3 43.3 0 1 0 665 415.94a43.29 43.29 0 0 0-43.3 43.29z" fill="#3585F9" p-id="1630"></path><path d="M512.86 151.4C284 151.4 97.73 305.64 97.73 495.24a288.58 288.58 0 0 0 11.76 80h0.35a13.63 13.63 0 0 0 13.27 11A13.84 13.84 0 0 0 137 572.4a12.92 12.92 0 0 0-0.33-1.62c0-0.17 0.28-0.35 0.23-0.5a257.29 257.29 0 0 1-11.44-75c0-174.34 173.81-316.15 387.46-316.15s387.4 141.77 387.4 316.11S726.5 811.37 512.87 811.37A464.85 464.85 0 0 1 389 794.57l-123.79 72a21.45 21.45 0 0 1-29.79-26.46L260.65 735c-37.78-26.37-67.92-58-90.42-92.83h-0.11a13.78 13.78 0 0 0-26.25 5.9 13.62 13.62 0 0 0 1.5 6c0 0.06-0.08 0.12 0 0.2 21.48 34.32 49.29 65.29 84.12 92.15l-20.61 86a49.12 49.12 0 0 0 46.78 64.08 50.5 50.5 0 0 0 23.54-6l113.91-66.27A491.76 491.76 0 0 0 512.86 839C741.77 839 928 684.8 928 495.24S741.77 151.4 512.86 151.4z" fill="#3585F9" p-id="1631"></path></svg>