<svg xml:space="preserve" style="enable-background:new 0 0 1200 1200;" viewBox="0 0 1200 1200" y="0px" x="0px" xmlns:xlink="http://www.w3.org/1999/xlink" xmlns="http://www.w3.org/2000/svg" id="图层_1" version="1.1">
<style type="text/css">
	.st0{fill:#FFFFFF;}
	.st1{fill:#76479D;}
	.st2{fill:#FF3956;}
	.st3{fill:#9B75C4;}
	.st4{fill:#FFEA5F;}
	.st5{fill:#66DF97;}
	.st6{fill:#80BAE2;}
	.st7{fill:#040000;}
	.st8{fill:#FF80A6;}
</style>
<g>
	<circle r="600.65" cy="600.05" cx="600.65" class="st0"></circle>
	<g>
		<g>
			<path d="M779.51,391.89l277.71,251.72c14.09,12.77,14.57,34.75,1.06,48.12l-410.66,406.61c-13.16,13.03-34.45,12.75-47.26-0.62
				L329.15,814.77L779.51,391.89z"></path>
		</g>
		<g>
			<path d="M779.51,369.12l277.71,251.72c14.09,12.77,14.57,34.75,1.06,48.12l-410.66,406.61
				c-13.16,13.03-34.45,12.75-47.26-0.62L329.15,792L779.51,369.12z" class="st1"></path>
			<path d="M624.31,1087.83c-0.16,0-0.32,0-0.48,0c-9.67-0.13-18.69-4.04-25.39-11.03L327.23,793.84c-0.49-0.51-0.76-1.2-0.73-1.91
				c0.01-0.71,0.32-1.38,0.84-1.87L777.7,367.18c1.02-0.95,2.56-0.96,3.6-0.03l277.71,251.72c7.36,6.67,11.53,15.82,11.75,25.75
				c0.21,9.93-3.55,19.24-10.61,26.22l-410.67,406.61C642.73,1084.16,633.8,1087.83,624.31,1087.83z M332.92,792.1l269.36,281.02
				c5.7,5.95,13.38,9.28,21.62,9.39c8.21,0.24,16-3.03,21.85-8.82l410.67-406.61c6.01-5.95,9.21-13.88,9.03-22.34
				c-0.19-8.46-3.74-16.25-10.01-21.93l-275.9-250.08L332.92,792.1z"></path>
		</g>
		<g>
			<g>
				<path d="M934.52,619.68l26.86,100.24c0.34,1.26,1.91,1.68,2.83,0.76l73.38-73.38c0.92-0.92,0.5-2.49-0.76-2.83
					l-100.24-26.86C935.33,617.28,934.18,618.43,934.52,619.68z" class="st0"></path>
			</g>
			<g>
				<path d="M972.04,698.56c-1.1,0-2.2-0.14-3.3-0.44c-4.37-1.17-7.68-4.48-8.85-8.85l-11.33-42.29l0,0
					c-1.17-4.37,0.04-8.89,3.24-12.09c3.19-3.2,7.72-4.41,12.09-3.24l42.29,11.33c4.37,1.17,7.68,4.48,8.85,8.85
					c1.17,4.37-0.04,8.89-3.25,12.1l-30.96,30.96C978.43,697.28,975.29,698.56,972.04,698.56z M957.35,644.62l11.33,42.29
					c0.47,1.72,1.85,2.26,2.42,2.41c0.58,0.16,2.04,0.37,3.28-0.88l30.97-30.96c1.25-1.26,1.04-2.72,0.88-3.3
					c-0.16-0.57-0.7-1.95-2.41-2.41l-42.29-11.33c-1.73-0.47-2.88,0.47-3.29,0.88C957.81,641.74,956.89,642.9,957.35,644.62
					L957.35,644.62z" class="st2"></path>
			</g>
			<g>
				<g>
					<path d="M980.81,663.9c1.16-1.16,3.08-1.17,4.24,0c1.16,1.16,1.16,3.08,0,4.24c-1.16,1.16-3.07,1.16-4.24,0
						C979.65,666.98,979.65,665.06,980.81,663.9z M972.95,651.96c0.39,0.39,0.75,0.85,1.11,1.32l5.25,6.85
						c0.65,0.85,0.49,1.42-0.18,2.1c-0.67,0.67-1.24,0.82-2.09,0.18l-6.85-5.25c-0.46-0.36-0.93-0.72-1.32-1.11l-3-3
						c-1.32-1.32-1.24-2.74,0.05-4.03s2.71-1.37,4.03-0.05L972.95,651.96z"></path>
					<path d="M982.93,669.77c-0.96,0-1.93-0.37-2.65-1.1c-1.47-1.46-1.47-3.84-0.01-5.31h0.01c1.41-1.41,3.9-1.41,5.31,0
						c0.71,0.7,1.1,1.65,1.1,2.65c0,1.01-0.39,1.95-1.1,2.66C984.85,669.41,983.89,669.77,982.93,669.77z M981.35,664.44
						L981.35,664.44c-0.86,0.86-0.86,2.31-0.01,3.16c0.87,0.87,2.3,0.87,3.17,0c0.42-0.42,0.64-0.98,0.64-1.58
						c0-0.6-0.23-1.16-0.64-1.58C983.67,663.6,982.18,663.6,981.35,664.44z M978.02,663.57c-0.47,0-0.95-0.19-1.45-0.56l-6.85-5.24
						c-0.58-0.46-1.02-0.81-1.39-1.18l-2.99-2.99c-1.58-1.58-1.56-3.49,0.04-5.1c1.62-1.61,3.54-1.63,5.11-0.06l3,3
						c0.39,0.4,0.76,0.87,1.13,1.34l5.28,6.9c1.1,1.45,0.39,2.46-0.24,3.09C979.12,663.3,978.58,663.57,978.02,663.57z
						 M967.98,648.77c-0.5,0-1,0.26-1.53,0.79c-1.02,1.03-1.04,1.96-0.04,2.95l2.99,3c0.33,0.34,0.73,0.64,1.12,0.95l6.97,5.34
						c0.51,0.38,0.64,0.35,1.1-0.11c0.46-0.46,0.47-0.61,0.1-1.1l-5.23-6.85c-0.36-0.46-0.7-0.89-1.05-1.25l-2.99-2.99
						C968.93,649.02,968.46,648.77,967.98,648.77z"></path>
				</g>
			</g>
		</g>
		<g>
			<polygon points="797.81,459.84 953.67,598.35 582.51,955.27 434.76,801.01" class="st3"></polygon>
			<path d="M582.51,957.92c-0.01,0-0.04,0-0.05,0c-0.71-0.01-1.38-0.31-1.87-0.82L432.84,802.85c-0.49-0.51-0.76-1.2-0.73-1.91
				c0.01-0.71,0.32-1.38,0.84-1.86l363.04-341.17c0.99-0.95,2.55-0.96,3.58-0.05l155.86,138.51c0.56,0.49,0.87,1.19,0.89,1.93
				s-0.28,1.45-0.82,1.97L584.35,957.18C583.86,957.66,583.2,957.92,582.51,957.92z M438.54,801.11L582.59,951.5l367.17-353.08
				l-151.9-134.99L438.54,801.11z"></path>
		</g>
		<g>
			<polygon points="859.76,721.34 729.37,848.04 776.35,906.13 919.31,766.01" class="st3"></polygon>
			<path d="M776.35,908.79c-0.05,0-0.1,0-0.16,0c-0.75-0.04-1.44-0.4-1.91-0.98l-46.97-58.09c-0.86-1.07-0.77-2.62,0.21-3.58
				l130.38-126.7c0.93-0.91,2.39-1.02,3.45-0.22l59.55,44.67c0.62,0.46,1.01,1.17,1.06,1.95c0.05,0.77-0.24,1.53-0.79,2.07
				L778.21,908.03C777.71,908.52,777.04,908.79,776.35,908.79z M732.96,848.26l43.61,53.93l138.66-135.91l-55.26-41.45
				L732.96,848.26z"></path>
		</g>
		<g>
			<circle r="32.22" cy="1004.41" cx="628.03" class="st4"></circle>
			<path d="M628.03,1037.58c-18.29,0-33.17-14.88-33.17-33.17c0-18.29,14.88-33.17,33.17-33.17
				c18.29,0,33.16,14.88,33.16,33.17C661.19,1022.7,646.32,1037.58,628.03,1037.58z M628.03,973.14
				c-17.24,0-31.27,14.03-31.27,31.27c0,17.24,14.03,31.27,31.27,31.27c17.24,0,31.26-14.03,31.26-31.27
				C659.29,987.17,645.27,973.14,628.03,973.14z" class="st0"></path>
		</g>
		<g>
			<path d="M630.52,1018.28c-1.57,0-2.85-1.27-2.85-2.85c0-1.57,1.27-2.85,2.85-2.85c3.14,0,5.69-2.55,5.69-5.69
				c0-1.57,1.27-2.85,2.85-2.85s2.85,1.27,2.85,2.85C641.9,1013.18,636.79,1018.28,630.52,1018.28z"></path>
		</g>
		<g>
			<circle r="5.51" cy="1006.91" cx="617"></circle>
		</g>
		<g>
			<circle r="5.51" cy="992.04" cx="630.52"></circle>
		</g>
		<g>
			<circle r="18.74" cy="424.14" cx="779.07" class="st5"></circle>
			<path d="M779.07,446.68c-12.43,0-22.54-10.11-22.54-22.53c0-12.43,10.11-22.54,22.54-22.54c12.42,0,22.53,10.11,22.53,22.54
				C801.6,436.57,791.49,446.68,779.07,446.68z M779.07,409.2c-8.24,0-14.95,6.7-14.95,14.95c0,8.24,6.71,14.94,14.95,14.94
				s14.94-6.7,14.94-14.94C794.01,415.9,787.31,409.2,779.07,409.2z"></path>
		</g>
		<g>
			<path d="M329.15,792L200.63,487.76c-3.76-8.9-1.58-19.2,5.46-25.81L620.57,72.77c11.72-11,30.82-6.96,37.07,7.85
				l121.87,288.51L329.15,792z" class="st1"></path>
			<path d="M329.15,794.66c-0.19,0-0.37-0.02-0.55-0.06c-0.85-0.18-1.56-0.76-1.9-1.56L198.18,488.8
				c-4.17-9.88-1.72-21.45,6.1-28.79L618.75,70.83c6.23-5.85,14.62-8.19,22.95-6.42c8.36,1.77,15.07,7.3,18.39,15.17l121.87,288.51
				c0.44,1.02,0.19,2.21-0.63,2.97L330.96,793.94C330.47,794.41,329.81,794.66,329.15,794.66z M636.26,69.15
				c-5.12,0-10.02,1.92-13.88,5.55L207.91,463.88c-6.2,5.82-8.15,15-4.84,22.84l127.04,300.73l446.24-419L655.2,81.65
				c-2.64-6.25-7.96-10.64-14.59-12.04C639.15,69.3,637.69,69.15,636.26,69.15z"></path>
		</g>
		<g>
			<path d="M330.24,703.97l-89.93-219.79c-1.71-4.19-0.68-9,2.61-12.11l377.78-357.29c5.6-5.29,14.76-3.32,17.68,3.81
				l92.56,226.23c3.12,7.63,1.23,16.39-4.76,22.05L362.41,710.91C352.23,720.54,335.55,716.94,330.24,703.97z" class="st6"></path>
			<path d="M348.71,719.02c-1.59,0-3.19-0.17-4.77-0.51c-7.29-1.57-13.33-6.63-16.15-13.54l-89.93-219.79
				c-2.11-5.17-0.8-11.22,3.25-15.05l377.78-357.29c3.27-3.08,7.84-4.37,12.23-3.42c4.4,0.95,8.03,4,9.73,8.15l92.56,226.23
				c3.51,8.58,1.34,18.62-5.4,24.98L364.24,712.84C360,716.85,354.42,719.02,348.71,719.02z M628.19,114.42
				c-2.09,0-4.08,0.79-5.66,2.28L244.75,473.99c-2.48,2.34-3.27,6.03-1.98,9.18l89.93,219.79l0,0c2.19,5.36,6.69,9.13,12.35,10.35
				c5.7,1.23,11.33-0.36,15.54-4.34l363.78-344.05c5.23-4.95,6.85-12.45,4.12-19.11l-92.56-226.23c-1.05-2.57-3.21-4.38-5.93-4.97
				C629.39,114.49,628.79,114.42,628.19,114.42z" class="st7"></path>
		</g>
		<g>
			<line y2="521.16" x2="810.88" y1="821.32" x1="500.21" class="st3"></line>
			<path d="M500.21,823.98c-0.7,0-1.39-0.27-1.91-0.81c-1.02-1.06-0.99-2.74,0.07-3.76l310.67-300.16c1.06-1.02,2.74-0.99,3.76,0.07
				c1.02,1.06,0.99,2.74-0.07,3.76L502.05,823.24C501.53,823.73,500.87,823.98,500.21,823.98z"></path>
		</g>
		<g>
			<line y2="571.78" x2="836.53" y1="852.56" x1="545.91" class="st3"></line>
			<path d="M545.92,855.22c-0.7,0-1.39-0.27-1.91-0.81c-1.02-1.06-0.99-2.74,0.07-3.76l290.61-280.78c1.06-1.02,2.73-1,3.76,0.06
				c1.02,1.06,0.99,2.74-0.07,3.75L547.76,854.47C547.24,854.97,546.58,855.22,545.92,855.22z"></path>
		</g>
		<g>
			<line y2="618.81" x2="869.55" y1="883.76" x1="595.32" class="st3"></line>
			<path d="M595.32,886.42c-0.7,0-1.39-0.27-1.91-0.81c-1.02-1.06-0.99-2.74,0.07-3.76L867.7,616.9c1.07-1.02,2.74-1,3.76,0.06
				c1.02,1.06,0.99,2.74-0.07,3.75L597.16,885.67C596.65,886.17,595.99,886.42,595.32,886.42z"></path>
		</g>
		<g>
			<line y2="809.73" x2="590.24" y1="745.81" x1="522.49" class="st3"></line>
			<path d="M590.24,812.39c-0.65,0-1.31-0.24-1.82-0.73l-67.75-63.92c-1.07-1-1.12-2.69-0.11-3.75c1.01-1.07,2.69-1.12,3.76-0.11
				l67.75,63.92c1.07,1,1.12,2.69,0.11,3.75C591.65,812.11,590.95,812.39,590.24,812.39z"></path>
		</g>
		<g>
			<line y2="774.73" x2="708.17" y1="697.83" x1="628.03" class="st3"></line>
			<path d="M708.16,777.39c-0.66,0-1.33-0.24-1.84-0.74l-80.13-76.9c-1.06-1.02-1.1-2.7-0.08-3.75c1.03-1.06,2.71-1.1,3.76-0.08
				l80.13,76.9c1.06,1.02,1.1,2.7,0.08,3.75C709.56,777.11,708.86,777.39,708.16,777.39z"></path>
		</g>
		<g>
			<line y2="625.64" x2="862.47" y1="587.61" x1="820.14" class="st3"></line>
			<path d="M862.47,628.3c-0.63,0-1.27-0.23-1.78-0.68l-42.32-38.03c-1.09-0.98-1.18-2.66-0.2-3.75c0.99-1.09,2.65-1.18,3.76-0.2
				l42.32,38.03c1.09,0.98,1.18,2.66,0.2,3.75C863.92,628,863.2,628.3,862.47,628.3z"></path>
		</g>
		<g>
			<line y2="596.41" x2="676.81" y1="695.83" x1="788.05" class="st3"></line>
			<path d="M788.05,698.49c-0.63,0-1.26-0.22-1.77-0.68l-111.23-99.43c-1.09-0.97-1.19-2.66-0.21-3.75
				c0.99-1.09,2.65-1.19,3.75-0.21l111.23,99.43c1.09,0.97,1.19,2.66,0.21,3.75C789.5,698.19,788.78,698.49,788.05,698.49z"></path>
		</g>
		<g>
			<polygon points="323.13,777.77 773.89,355.81 779.51,369.12 329.15,792"></polygon>
		</g>
		<g>
			<g>
				<rect height="13.26" width="13.26" transform="matrix(0.9995 -0.0319 0.0319 0.9995 -27.9356 22.5931)" y="881.17" x="688.28"></rect>
			</g>
			<g>
				<rect height="13.26" width="13.26" transform="matrix(0.9995 -0.0319 0.0319 0.9995 -28.3374 23.0353)" y="894" x="701.96"></rect>
			</g>
			<g>
				
					<rect height="13.26" width="13.26" class="st0" transform="matrix(0.9995 -0.0319 0.0319 0.9995 -27.9154 23.0152)" y="880.75" x="701.54"></rect>
			</g>
			<g>
				
					<rect height="13.26" width="13.26" class="st0" transform="matrix(0.9995 -0.0319 0.0319 0.9995 -28.3576 22.6133)" y="894.42" x="688.71"></rect>
			</g>
		</g>
		<g>
			<g>
				<rect height="13.26" width="13.26" transform="matrix(0.9995 -0.0319 0.0319 0.9995 -29.687 16.9078)" y="933.28" x="509.02"></rect>
			</g>
			<g>
				<rect height="13.26" width="13.26" transform="matrix(0.9995 -0.0319 0.0319 0.9995 -30.0889 17.35)" y="946.11" x="522.7"></rect>
			</g>
			<g>
				
					<rect height="13.26" width="13.26" class="st0" transform="matrix(0.9995 -0.0319 0.0319 0.9995 -29.6669 17.3298)" y="932.86" x="522.28"></rect>
			</g>
			<g>
				
					<rect height="13.26" width="13.26" class="st0" transform="matrix(0.9995 -0.0319 0.0319 0.9995 -30.1091 16.928)" y="946.54" x="509.45"></rect>
			</g>
		</g>
	</g>
	<g>
		<g>
			<ellipse ry="51.81" rx="41.42" cy="316.46" cx="916.49" class="st5"></ellipse>
		</g>
		<g>
			<path d="M918.41,368.26h-3.85c0-30.77-15.14-49.88-39.5-49.88v-3.85c24.36,0,39.5-19.11,39.5-49.88h3.85
				c0,30.77,15.14,49.88,39.5,49.88v3.85C933.55,318.38,918.41,337.49,918.41,368.26z M888.12,316.46
				c14.27,4.48,24.36,16.57,28.37,33.92c4.01-17.35,14.1-29.44,28.37-33.92c-14.27-4.48-24.36-16.57-28.37-33.92
				C912.48,299.89,902.39,311.97,888.12,316.46z"></path>
		</g>
	</g>
	<g>
		<g>
			<ellipse ry="107.92" rx="86.28" cy="831.2" cx="179.19" class="st8"></ellipse>
		</g>
		<g>
			<path d="M179.19,941.74c-1.45,0-2.63-1.17-2.63-2.62c0-64.94-32.05-105.29-83.65-105.29c-1.45,0-2.63-1.17-2.63-2.62
				s1.18-2.62,2.63-2.62c51.6,0,83.65-40.35,83.65-105.29c0-1.45,1.18-2.62,2.63-2.62s2.63,1.17,2.63,2.62
				c0,64.94,32.05,105.29,83.65,105.29c1.45,0,2.63,1.17,2.63,2.62s-1.18,2.62-2.63,2.62c-51.6,0-83.65,40.35-83.65,105.29
				C181.81,940.57,180.64,941.74,179.19,941.74z M114.94,831.2c33.55,8.39,56.74,36.44,64.25,77.54c7.5-41.1,30.7-69.14,64.25-77.54
				c-33.55-8.39-56.75-36.44-64.25-77.54C171.68,794.76,148.49,822.81,114.94,831.2z" class="st7"></path>
		</g>
	</g>
	<g>
		<path d="M600,1201.29c-81.17,0-159.92-15.9-234.05-47.25c-71.6-30.28-135.91-73.64-191.13-128.86
			C119.6,969.96,76.25,905.65,45.96,834.05C14.61,759.92-1.29,681.17-1.29,600c0-81.17,15.9-159.92,47.25-234.05
			c30.29-71.6,73.64-135.91,128.86-191.13c55.22-55.22,119.52-98.58,191.13-128.86C440.08,14.61,518.83-1.29,600-1.29
			c81.17,0,159.92,15.9,234.05,47.25c71.6,30.29,135.91,73.64,191.13,128.86c55.22,55.22,98.58,119.52,128.86,191.13
			c31.36,74.13,47.25,152.88,47.25,234.05c0,81.17-15.9,159.92-47.25,234.05c-30.28,71.6-73.64,135.91-128.86,191.13
			c-55.22,55.22-119.53,98.58-191.13,128.86C759.92,1185.39,681.17,1201.29,600,1201.29z M600,4.71
			c-80.36,0-158.32,15.74-231.71,46.78C297.4,81.47,233.74,124.4,179.07,179.07C124.4,233.74,81.47,297.4,51.49,368.29
			C20.45,441.68,4.71,519.64,4.71,600c0,80.37,15.74,158.32,46.78,231.71c29.98,70.89,72.91,134.55,127.58,189.22
			c54.67,54.67,118.33,97.59,189.22,127.58c73.39,31.04,151.35,46.78,231.71,46.78c80.37,0,158.32-15.74,231.71-46.78
			c70.89-29.98,134.55-72.91,189.22-127.58c54.67-54.67,97.59-118.33,127.58-189.22c31.04-73.39,46.78-151.35,46.78-231.71
			c0-80.36-15.74-158.32-46.78-231.71c-29.98-70.89-72.91-134.55-127.58-189.22C966.26,124.4,902.6,81.47,831.71,51.49
			C758.32,20.45,680.37,4.71,600,4.71z"></path>
	</g>
</g>
</svg>
