<svg xmlns="http://www.w3.org/2000/svg" viewBox="0 0 290.82 483.57"><defs><style>.cls-1,.cls-3{fill:#e6d222;}.cls-1,.cls-2{stroke:#142a51;}.cls-1,.cls-11,.cls-13,.cls-15,.cls-16,.cls-2,.cls-3,.cls-4,.cls-6,.cls-7,.cls-8,.cls-9{stroke-miterlimit:10;}.cls-2{fill:#252016;}.cls-15,.cls-3,.cls-4,.cls-8,.cls-9{stroke:#12294e;}.cls-4{fill:#f5cfa6;}.cls-5{fill:#f4a78d;}.cls-6{fill:#f6bc9e;}.cls-6,.cls-7{stroke:#152b54;}.cls-7{fill:#152b54;}.cls-11,.cls-15,.cls-16,.cls-8{fill:none;}.cls-11,.cls-16,.cls-8,.cls-9{stroke-linecap:round;}.cls-12,.cls-9{fill:#fff;}.cls-10{fill:#e47261;}.cls-11{stroke:#af4e46;}.cls-13{fill:#f7f2d4;stroke:#0f284b;}.cls-14{fill:#231815;}.cls-16{stroke:#fff;}</style></defs><g id="图层_2" data-name="图层 2"><g id="图层_1_复制" data-name="图层 1_复制"><circle class="cls-1" cx="35.01" cy="22.56" r="20"/><circle class="cls-1" cx="160.67" cy="20.5" r="20"/><circle class="cls-1" cx="99.43" cy="101.49" r="98.93"/><rect class="cls-1" x="44.59" y="419.52" width="48.11" height="37.28"/><path class="cls-2" d="M147.2,456.8s37.66,28.79,12,26.09-37.21-17.14-37.21-17.14l-.9-8.95Z"/><rect class="cls-1" x="110.2" y="419.73" width="48.11" height="37.28"/><polygon class="cls-3" points="153.13 237.24 270.79 306.46 275.24 293.1 174.89 214.13 153.13 237.24"/><path class="cls-4" d="M276.07,292.94s8.61-4.27,12.12.88,3.14,16.21-4.66,15.68a37,37,0,0,1-12.67-2.94Z"/><path class="cls-5" d="M289.48,301.74a8.06,8.06,0,0,1-1.1,4.8,4.79,4.79,0,0,1-1.84,1.65,5.44,5.44,0,0,1-2.92.5l-2.15-.19s-3.53-.49-4.32-.77l-1.83-.45-2.33-.73-1.13-.46,1.29-3.35,3.58-9.4s2-.59,2.6-.75-4.86,10.3-3.94,11.45S286.82,310.77,289.48,301.74Z"/><path class="cls-1" d="M33.77,176.16s-49.52,159.17-24.26,244H197.14s-.5-176.07-35.47-241.75c0,0-45.3,40.09-104.82,12.6,0,0-9.24-4.48-13.85-7.78S33.77,176.16,33.77,176.16Z"/><path class="cls-2" d="M58.31,456.8s-37.66,28.79-12,26.09,37.21-17.14,37.21-17.14l.91-8.95Z"/><circle class="cls-6" cx="99.96" cy="100.09" r="64.95"/><path class="cls-7" d="M35.78,90.1s17.85-2.44,28.07-16,39.69,31.57,58.33,24.65,39.32,22.8,40.2,19.39c0,0,10.58-39.15-18.9-66.07S75.12,40.25,75.12,40.25,39.19,56.68,35.78,90.1Z"/><path class="cls-8" d="M61.21,116.24a8.23,8.23,0,0,1,16.46,0"/><path class="cls-8" d="M119.18,116.24a8.23,8.23,0,1,1,16.46,0"/><path class="cls-8" d="M98.62,119.78s-4.23,6.14-1.5,7.79"/><path class="cls-9" d="M111.56,144c0,7.76-5.59,14.05-12.48,14.05S86.6,151.8,86.6,144Z"/><path class="cls-8" d="M60,101.49a24.8,24.8,0,0,1,19.06-.3"/><path class="cls-8" d="M117,101.49a24.77,24.77,0,0,1,19.05-.3"/><ellipse class="cls-10" cx="71.85" cy="129.52" rx="14.2" ry="11.18"/><line class="cls-11" x1="67.41" y1="127.39" x2="67.41" y2="131.82"/><line class="cls-11" x1="71.91" y1="127.39" x2="71.91" y2="131.82"/><line class="cls-11" x1="76.28" y1="127.22" x2="76.28" y2="131.65"/><ellipse class="cls-10" cx="125.9" cy="129.7" rx="14.2" ry="11.18"/><line class="cls-11" x1="121.47" y1="127.56" x2="121.47" y2="132"/><line class="cls-11" x1="125.96" y1="127.56" x2="125.96" y2="132"/><line class="cls-11" x1="130.34" y1="127.4" x2="130.34" y2="131.83"/><rect class="cls-12" x="69.69" y="242.8" width="61.65" height="111.48"/><rect class="cls-13" x="72.02" y="245.63" width="56.98" height="105.82"/><path class="cls-14" d="M92,263.17l1.55.08v6c0,1.63,0,3-.08,4.06a26,26,0,0,1-.28,2.78,17.16,17.16,0,0,1-.47,2.06c-.19.61-.4,1.24-.65,1.91l-1.57-.54c.27-.67.5-1.3.69-1.88a13.93,13.93,0,0,0,.46-2c.12-.74.2-1.61.26-2.61s.09-2.24.09-3.73Zm2.51.73L96,264V278.8H94.5Zm9.52,9.27a12.92,12.92,0,0,1-.17,2.17,5.34,5.34,0,0,1-.69,1.8,7.17,7.17,0,0,1-1.42,1.62,16.54,16.54,0,0,1-2.39,1.65l-.87-1.36v.63H97V263.15l1.52.08v15.61a14.7,14.7,0,0,0,2.11-1.36,4.9,4.9,0,0,0,1.18-1.31,4,4,0,0,0,.52-1.5,13.55,13.55,0,0,0,.12-1.95V269.4l1.61.08Zm-2.11-6.25c.06-.28.13-.57.2-.88s.13-.59.2-.87H99.12v-1.62h8.55v1.62h-3.61c-.07.27-.13.56-.19.87s-.14.61-.22.88h3.2v9h-1.66v-7.37h-3.94v7.38H99.64v-9Zm2.71,8.8a18.17,18.17,0,0,1,1.87,1.4,16.62,16.62,0,0,1,1.64,1.56l-1,1.64c-.51-.58-1-1.13-1.61-1.66s-1.17-1-1.81-1.55Z"/><path class="cls-14" d="M90.54,294.79c.21-.52.41-1.09.62-1.69s.41-1.22.6-1.86.39-1.26.57-1.9.35-1.25.5-1.85l1.94.42c-.14.59-.3,1.21-.48,1.85s-.37,1.3-.56,2-.41,1.29-.64,1.92-.44,1.22-.66,1.79Zm6.89.75a3.73,3.73,0,0,0,0,.65.71.71,0,0,0,.21.37.83.83,0,0,0,.4.19,5.91,5.91,0,0,0,.66.1,13.89,13.89,0,0,0,2,0,4.19,4.19,0,0,0,.78-.13,1,1,0,0,0,.46-.24.86.86,0,0,0,.24-.39,4.71,4.71,0,0,0,.14-.59c.06-.32.11-.64.15-.95s.07-.67.09-1.09l2,.68c0,.45-.08.82-.12,1.12s-.11.63-.18,1a7.42,7.42,0,0,1-.35,1.18,2,2,0,0,1-.54.77,2.26,2.26,0,0,1-.89.45,8.5,8.5,0,0,1-1.4.2,22.43,22.43,0,0,1-2.84,0,8.76,8.76,0,0,1-1.37-.2,2,2,0,0,1-.91-.46,1.85,1.85,0,0,1-.52-.87,5.07,5.07,0,0,1-.16-1.41v-10l2.06.08Zm1.09-13.63q1.17,1.48,2.16,2.79c.66.87,1.33,1.77,2,2.71l-1.59,1.4c-.63-1-1.27-1.9-1.93-2.83s-1.36-1.9-2.11-2.92Zm6.56,5.17c.6,1.19,1.17,2.37,1.71,3.53s1.07,2.34,1.59,3.55l-1.77,1c-.51-1.21-1-2.41-1.57-3.61s-1.11-2.4-1.71-3.62Z"/><path class="cls-14" d="M92,301.61l1.55.08v6c0,1.63,0,3-.08,4.06a25.74,25.74,0,0,1-.28,2.77,16.91,16.91,0,0,1-.47,2.07c-.19.6-.4,1.24-.65,1.9L90.49,318c.27-.66.5-1.29.69-1.88a13.62,13.62,0,0,0,.46-2c.12-.74.2-1.6.26-2.6s.09-2.25.09-3.73Zm2.51.74,1.5.07v14.82H94.5Zm9.52,9.26a12.83,12.83,0,0,1-.17,2.17,5.34,5.34,0,0,1-.69,1.8,6.77,6.77,0,0,1-1.42,1.62,16.51,16.51,0,0,1-2.39,1.66l-.87-1.37v.64H97V301.6l1.52.07v15.61a15.69,15.69,0,0,0,2.11-1.35,5.05,5.05,0,0,0,1.18-1.31,4.12,4.12,0,0,0,.52-1.5,13.55,13.55,0,0,0,.12-1.95v-3.33l1.61.08Zm-2.11-6.25c.06-.28.13-.57.2-.87s.13-.59.2-.88H99.12V302h8.55v1.61h-3.61c-.07.27-.13.57-.19.88s-.14.6-.22.87h3.2v9h-1.66V307h-3.94v7.38H99.64v-9Zm2.71,8.81a18,18,0,0,1,1.87,1.39,15.56,15.56,0,0,1,1.64,1.57l-1,1.63c-.51-.57-1-1.13-1.61-1.65s-1.17-1.05-1.81-1.56Z"/><path class="cls-14" d="M90.79,336.12c.21-.24.42-.51.64-.81s.43-.59.63-.89.4-.6.59-.89.35-.58.49-.85l1.65.73a10.55,10.55,0,0,1-.54.94c-.2.34-.42.67-.64,1s-.45.66-.68,1-.44.6-.64.84ZM107.58,326H91.24v-1.4H95.6c0-.26-.1-.52-.14-.78s-.09-.48-.13-.65H92.22v-1.44h6.32c-.13-.39-.26-.77-.4-1.13l1.86-.31c.1.26.2.5.28.73s.17.47.26.71h6.07v1.44h-3.19l-.15.66c-.06.25-.13.51-.19.77h4.5Zm-2,6.52H99.85c.29.28.6.58.92.91l.79.82-1.19,1.19-.48-.56-.61-.66-.62-.65-.5-.5.61-.55H93.18V327h12.38ZM95,328.26v.88h8.67v-.88Zm8.67,3v-.89H95v.89Zm-1.59,3.92c0-.23,0-.43,0-.61a5.44,5.44,0,0,0,0-.6l1.71.71c0,.13,0,.27,0,.43s-.05.37-.1.63a3.08,3.08,0,0,1-.25.82,1.1,1.1,0,0,1-.42.48,1.65,1.65,0,0,1-.69.24c-.27.05-.61.08-1,.11a32.7,32.7,0,0,1-4,0,7.28,7.28,0,0,1-1-.13,1.65,1.65,0,0,1-.68-.32,1.32,1.32,0,0,1-.38-.6,2.91,2.91,0,0,1-.13-1v-2.27l1.91.08v1.94a.84.84,0,0,0,.19.66,1.53,1.53,0,0,0,.75.19,19.23,19.23,0,0,0,2.84,0,3.54,3.54,0,0,0,.56-.06,1.22,1.22,0,0,0,.34-.12.46.46,0,0,0,.17-.24A3.37,3.37,0,0,0,102.12,335.16Zm-4.94-12c0,.18.08.4.13.67s.1.51.14.76h3.82c.06-.23.13-.47.18-.72s.12-.49.17-.71Zm8.28,9.4.65.79.71.92.7,1c.23.31.43.59.59.83l-1.46,1.12c-.15-.25-.34-.53-.56-.86s-.46-.66-.71-1l-.71-1c-.23-.32-.44-.59-.63-.82Z"/><polygon class="cls-15" points="14.01 256.08 58.55 320.7 70.05 312.58 26.01 203.49 14.01 256.08"/><path class="cls-4" d="M70.82,312.94s9.47,1.66,9.24,7.89S73,335.75,67,330.7a36.82,36.82,0,0,1-8.46-9.87Z"/><path class="cls-5" d="M76.41,328a8.11,8.11,0,0,1-3.73,3.21,4.77,4.77,0,0,1-2.46.24,5.47,5.47,0,0,1-2.65-1.33L66,328.67s-2.55-2.48-3-3.18l-1.21-1.44-1.44-2-.64-1,3-1.94,8.46-5.45,2.53.93c.59.23-10,5.43-10,6.89S68.91,333.67,76.41,328Z"/><path class="cls-16" d="M140.68,72.14s5.86,5,7.32,12.35"/><line class="cls-16" x1="150.62" y1="91.8" x2="149.15" y2="87.48"/></g></g></svg>