<svg xmlns="http://www.w3.org/2000/svg" viewBox="0 0 354.76 483.57"><defs><style>.cls-1,.cls-10,.cls-13,.cls-17,.cls-21{fill:none;}.cls-2,.cls-5{fill:#f5cb4c;}.cls-3{fill:#142c54;}.cls-4{fill:#e09230;}.cls-5{stroke:#142c54;}.cls-10,.cls-11,.cls-13,.cls-21,.cls-5{stroke-linecap:round;}.cls-10,.cls-11,.cls-13,.cls-15,.cls-17,.cls-18,.cls-20,.cls-21,.cls-5,.cls-6,.cls-7,.cls-8,.cls-9{stroke-miterlimit:10;}.cls-20,.cls-6{fill:#edd69a;}.cls-6,.cls-7{stroke:#142a51;}.cls-7{fill:#252016;}.cls-8{fill:#f6bc9e;}.cls-8,.cls-9{stroke:#152b54;}.cls-9{fill:#152b54;}.cls-10,.cls-11,.cls-17,.cls-18,.cls-20{stroke:#12294e;}.cls-11,.cls-14{fill:#fff;}.cls-12{fill:#e47261;}.cls-13{stroke:#af4e46;}.cls-15{fill:#f9eedb;stroke:#0f284b;}.cls-16{fill:#231815;}.cls-18{fill:#f5cfa6;}.cls-19{fill:#f4a78d;}.cls-21{stroke:#fff;}</style></defs><g id="图层_2" data-name="图层 2"><g id="图层_1_复制" data-name="图层 1_复制"><circle class="cls-1" cx="296.2" cy="67.46" r="58.56"/><circle class="cls-1" cx="296.2" cy="67.46" r="58.56"/><path class="cls-2" d="M284.9,135.7a3.26,3.26,0,0,1-3.27-3.19l-.43-19a2.26,2.26,0,0,0-1-1.84l-15.88-10.4a3.26,3.26,0,0,1,.71-5.8l17.92-6.27a2.25,2.25,0,0,0,1.43-1.54l5-18.32a3.25,3.25,0,0,1,5.73-1.11l11.51,15.09a2.24,2.24,0,0,0,1.79.89l19.07-.91h.17a3.25,3.25,0,0,1,2.88,1.75,3.21,3.21,0,0,1-.21,3.36L319.48,104a2.25,2.25,0,0,0-.25,2.09L326,123.87a3.26,3.26,0,0,1-3,4.41,3.08,3.08,0,0,1-.95-.14l-18.19-5.45a2,2,0,0,0-.64-.1,2.28,2.28,0,0,0-1.42.5L286.93,135A3.23,3.23,0,0,1,284.9,135.7Z"/><path class="cls-3" d="M292.5,67.46a2.7,2.7,0,0,1,2.18,1.09l11.51,15.1a2.76,2.76,0,0,0,2.19,1.08h.14l19-.92h.14a2.76,2.76,0,0,1,2.26,4.33l-10.81,15.61a2.74,2.74,0,0,0-.31,2.54L325.49,124a2.76,2.76,0,0,1-2.56,3.74,2.89,2.89,0,0,1-.81-.12l-18.18-5.45a2.73,2.73,0,0,0-2.52.49l-14.8,11.89a2.76,2.76,0,0,1-4.49-2.09l-.43-19a2.73,2.73,0,0,0-1.24-2.24l-15.88-10.41a2.76,2.76,0,0,1,.6-4.91l17.91-6.27a2.75,2.75,0,0,0,1.75-1.88l5-18.31a2.75,2.75,0,0,1,2.67-2m0-1h0a3.72,3.72,0,0,0-3.63,2.77l-5,18.32a1.77,1.77,0,0,1-1.12,1.2L264.85,95a3.76,3.76,0,0,0-.82,6.69l15.88,10.4a1.76,1.76,0,0,1,.79,1.43l.43,19a3.75,3.75,0,0,0,3.77,3.68,3.7,3.7,0,0,0,2.34-.83L302,123.48a1.81,1.81,0,0,1,1.11-.39,1.69,1.69,0,0,1,.5.08l18.18,5.45a3.75,3.75,0,0,0,4.18-1.47,3.71,3.71,0,0,0,.42-3.46l-6.74-17.75a1.76,1.76,0,0,1,.2-1.62L330.7,88.71a3.76,3.76,0,0,0-3.08-5.9h-.19l-19,.91h-.09A1.76,1.76,0,0,1,307,83l-11.5-15.1a3.72,3.72,0,0,0-3-1.48Z"/><path class="cls-4" d="M301.58,80.27a2.75,2.75,0,0,0,2.33,1.08l.51,0-9.74-12.78a2.72,2.72,0,0,0-2.8-1Z"/><path class="cls-4" d="M275.85,107.9l-12.16-8a2.65,2.65,0,0,0,.89.94l12.15,8A2.79,2.79,0,0,0,275.85,107.9Z"/><path class="cls-4" d="M329.88,88.14a2.76,2.76,0,0,0-2.4-4.33l-1.81.09a2.79,2.79,0,0,1-.4.86l-10.81,15.61a2.74,2.74,0,0,0-.31,2.54l6.73,17.75a2.76,2.76,0,0,1-3.37,3.62l-18.18-5.45a2.76,2.76,0,0,0-2.52.49L282.1,131.13l0,1.37a2.77,2.77,0,0,0,4.49,2.09l14.8-11.89a2.76,2.76,0,0,1,2.52-.49l18.18,5.45a2.76,2.76,0,0,0,3.37-3.62l-6.73-17.75a2.74,2.74,0,0,1,.31-2.54Z"/><path class="cls-5" d="M282,99.41s3.32-4.81,9.86-2.39"/><path class="cls-5" d="M303.61,95.1s3.31-4.81,9.86-2.39"/><path class="cls-5" d="M305.36,107.5s-3.62,4.58-10,1.74"/><path class="cls-5" d="M272.75,102.19c.56.32,9.78,6.17,9.78,6.17"/><line class="cls-5" x1="270.21" y1="100.91" x2="269.16" y2="100.08"/><circle class="cls-6" cx="35.01" cy="22.56" r="20"/><circle class="cls-6" cx="160.67" cy="20.5" r="20"/><circle class="cls-6" cx="99.43" cy="101.49" r="98.93"/><rect class="cls-6" x="44.59" y="419.52" width="48.11" height="37.28"/><path class="cls-7" d="M147.2,456.8s37.66,28.79,12,26.09-37.21-17.14-37.21-17.14l-.9-8.95Z"/><rect class="cls-6" x="110.2" y="419.73" width="48.11" height="37.28"/><path class="cls-6" d="M33.77,176.16s-49.52,159.17-24.26,244H197.14s-.5-176.07-35.47-241.75c0,0-45.3,40.09-104.82,12.6,0,0-9.24-4.48-13.85-7.78S33.77,176.16,33.77,176.16Z"/><path class="cls-7" d="M58.31,456.8s-37.66,28.79-12,26.09,37.21-17.14,37.21-17.14l.91-8.95Z"/><circle class="cls-8" cx="99.96" cy="100.09" r="64.95"/><path class="cls-9" d="M35.78,90.1s17.85-2.44,28.07-16,39.69,31.57,58.33,24.65,39.32,22.8,40.2,19.39c0,0,10.58-39.15-18.9-66.07S75.12,40.25,75.12,40.25,39.19,56.68,35.78,90.1Z"/><path class="cls-10" d="M61.21,116.24a8.23,8.23,0,0,1,16.46,0"/><path class="cls-10" d="M119.18,116.24a8.23,8.23,0,1,1,16.46,0"/><path class="cls-10" d="M98.62,119.78s-4.23,6.14-1.5,7.79"/><path class="cls-11" d="M111.56,144c0,7.76-5.59,14.05-12.48,14.05S86.6,151.8,86.6,144Z"/><path class="cls-10" d="M60,101.49a24.8,24.8,0,0,1,19.06-.3"/><path class="cls-10" d="M117,101.49a24.77,24.77,0,0,1,19.05-.3"/><ellipse class="cls-12" cx="71.85" cy="129.52" rx="14.2" ry="11.18"/><line class="cls-13" x1="67.41" y1="127.39" x2="67.41" y2="131.82"/><line class="cls-13" x1="71.91" y1="127.39" x2="71.91" y2="131.82"/><line class="cls-13" x1="76.28" y1="127.22" x2="76.28" y2="131.65"/><ellipse class="cls-12" cx="125.9" cy="129.7" rx="14.2" ry="11.18"/><line class="cls-13" x1="121.47" y1="127.56" x2="121.47" y2="132"/><line class="cls-13" x1="125.96" y1="127.56" x2="125.96" y2="132"/><line class="cls-13" x1="130.34" y1="127.4" x2="130.34" y2="131.83"/><rect class="cls-14" x="69.69" y="242.8" width="61.65" height="111.48"/><rect class="cls-15" x="72.02" y="245.63" width="56.98" height="105.82"/><path class="cls-16" d="M90.55,275.57c.2-.53.4-1.09.61-1.69s.41-1.22.61-1.86.38-1.27.56-1.9.35-1.25.5-1.86l1.94.43c-.14.59-.3,1.21-.48,1.85s-.36,1.3-.56,1.95-.41,1.3-.64,1.93-.44,1.22-.66,1.78Zm6.88.75a3.52,3.52,0,0,0,0,.64.74.74,0,0,0,.21.38.83.83,0,0,0,.4.19,5.91,5.91,0,0,0,.66.1,13.89,13.89,0,0,0,2,0,4.19,4.19,0,0,0,.78-.13,1.17,1.17,0,0,0,.46-.24.86.86,0,0,0,.24-.39,4.71,4.71,0,0,0,.14-.59c.06-.32.11-.64.15-.95s.07-.68.09-1.09l2,.68c0,.44-.08.82-.12,1.12s-.11.63-.18,1a7.76,7.76,0,0,1-.35,1.18,2,2,0,0,1-.54.77,2.13,2.13,0,0,1-.89.44,7.46,7.46,0,0,1-1.39.21,22.59,22.59,0,0,1-2.85,0,8.44,8.44,0,0,1-1.36-.2,1.82,1.82,0,0,1-1.44-1.33,5.1,5.1,0,0,1-.16-1.42v-10l2.06.08Zm1.09-13.63c.78,1,1.5,1.92,2.17,2.79s1.32,1.77,2,2.71l-1.59,1.4c-.63-1-1.27-1.91-1.93-2.83s-1.36-1.9-2.11-2.92Zm6.56,5.17c.6,1.19,1.17,2.37,1.71,3.53s1.07,2.34,1.59,3.54l-1.77,1c-.51-1.21-1-2.41-1.57-3.61s-1.11-2.4-1.71-3.62Z"/><path class="cls-16" d="M93.85,289a17,17,0,0,1-2.29,2.8L90.78,290a12.55,12.55,0,0,0,2.9-4H91.49v-1.71h2.36V282l1.85.08v2.26h2v1.71h-2v1.81l.5-.63,1,.78a12.14,12.14,0,0,1,1,1l-1,1.36c-.25-.27-.49-.52-.74-.77l-.74-.69v4.06H93.85Zm-3,8.69q.29-.45.6-1c.2-.37.4-.74.59-1.12s.38-.76.55-1.13.33-.73.45-1.05l1.68.65c-.15.37-.3.76-.47,1.16s-.37.79-.57,1.19-.41.78-.62,1.15-.4.71-.59,1Zm11.27-1.27a5,5,0,0,0,.08-.59c0-.21,0-.43.07-.66l1.81.61c0,.2-.06.42-.1.67s-.09.52-.15.81a6.21,6.21,0,0,1-.26.87,1.54,1.54,0,0,1-.4.56,1.56,1.56,0,0,1-.66.31,6.35,6.35,0,0,1-1.1.15,33.51,33.51,0,0,1-3.75,0A5.8,5.8,0,0,1,96.6,299a1.73,1.73,0,0,1-.72-.35,1.38,1.38,0,0,1-.41-.61,2.66,2.66,0,0,1-.14-.92v-3.6l1.87.08v2.81a3.54,3.54,0,0,0,0,.52.46.46,0,0,0,.16.28.69.69,0,0,0,.31.15,3.93,3.93,0,0,0,.51.07,17.13,17.13,0,0,0,2.68,0,1,1,0,0,0,1.23-1Zm-1.71.07-.57-.8-.6-.83-.55-.76-.46-.59,1.29-1H98.31v-9.68h8.25v9.68H99.68c.12.16.27.34.44.55l.53.69.56.76q.3.39.54.75Zm-.25-12.11v1.23h4.53v-1.23Zm4.53,3.89V287h-4.53v1.23Zm0,2.73V289.7h-4.53V291Zm.64,2.26c.2.27.44.59.7,1s.52.73.77,1.11.49.75.72,1.12.42.69.58,1l-1.52,1.09c-.17-.31-.37-.65-.6-1s-.47-.77-.72-1.16l-.75-1.14-.68-1Z"/><path class="cls-16" d="M107.88,312.92h-1.69v2.71h-5.88v.42a4.27,4.27,0,0,1-.12,1.11,1.58,1.58,0,0,1-.42.7,1.7,1.7,0,0,1-.77.39,6.49,6.49,0,0,1-1.17.19l-1.36.11-.56-1.71,1.5-.12a3.69,3.69,0,0,0,.56-.06.73.73,0,0,0,.33-.16.49.49,0,0,0,.16-.29,2.35,2.35,0,0,0,0-.5v-.08H92v-1.44H98.5v-1.27H90.79v-1.37H98.5v-1H92.2v-1.38h6.3v-.92H92.85v-3.6H98.5v-.92H91.31v-1.44H98.5V301l1.81.08v1.19h7v1.44h-7v.92h5.54v3.6h-5.54v.92h5.88v2.38h1.69Zm-9.38-6v-1H94.62v1Zm1.81-1v1H104v-1Zm0,5.59h4.17v-1h-4.17Zm4.17,1.37h-4.17v1.27h4.17Z"/><path class="cls-16" d="M108.19,333.45c-.06.29-.13.57-.19.83s-.15.56-.25.88a7.28,7.28,0,0,1-.47,1.22,3,3,0,0,1-.53.75,1.51,1.51,0,0,1-.62.38,2.17,2.17,0,0,1-.69.11,2.25,2.25,0,0,1-1.43-.52,6.92,6.92,0,0,1-1.43-1.75c-.08-.13-.15-.26-.22-.39s-.15-.27-.22-.42a17.82,17.82,0,0,1-1.39,1.35c-.5.44-1,.88-1.63,1.33l-1.21-1.41q1.09-.81,2-1.56a20.6,20.6,0,0,0,1.55-1.55,23.91,23.91,0,0,1-.86-3.35,42.59,42.59,0,0,1-.57-4.26H94.43v2.26H99c0,.13,0,.35,0,.66s0,.66,0,1.07,0,.83,0,1.27-.05.88-.07,1.29,0,.77-.06,1.09,0,.53,0,.66a6.73,6.73,0,0,1-.18,1.12,1.67,1.67,0,0,1-.39.72,1.8,1.8,0,0,1-.75.42,7.21,7.21,0,0,1-1.27.24l-1,.11-.58-1.84.85-.1a7.08,7.08,0,0,0,.74-.11,1.07,1.07,0,0,0,.43-.18.72.72,0,0,0,.21-.33,4,4,0,0,0,.1-.55c0-.14,0-.39,0-.75s0-.74,0-1.14,0-.78,0-1.13,0-.57,0-.69H94.43c0,1-.09,1.83-.19,2.6a15.25,15.25,0,0,1-.45,2.16,13.84,13.84,0,0,1-.7,1.93c-.27.62-.59,1.25-1,1.9l-1.83-.86a20.48,20.48,0,0,0,1-1.81,9.55,9.55,0,0,0,.69-1.81,13,13,0,0,0,.4-2.16c.08-.79.12-1.72.12-2.8V323.2h7.29c0-.29,0-.59-.08-.9s0-.59-.06-.85,0-.48,0-.67a3.43,3.43,0,0,1,0-.38l1.86.07.21,2.73h2.68l-1-1c-.35-.35-.65-.63-.89-.85l1.23-1.23c.35.32.74.69,1.17,1.12a14.71,14.71,0,0,1,1.12,1.21l-.67.78h2.23v1.89h-5.71c.1,1.16.22,2.22.37,3.17s.32,1.82.51,2.63A16.14,16.14,0,0,0,104,328.6a25.13,25.13,0,0,0,1-2.61l1.66.69a35.31,35.31,0,0,1-1.38,3.4,17,17,0,0,1-1.8,2.95,12.16,12.16,0,0,0,.87,1.69,2.22,2.22,0,0,0,.63.68,1.18,1.18,0,0,0,.58.18.44.44,0,0,0,.4-.28,4.71,4.71,0,0,0,.37-1q.09-.32.18-.69c.06-.24.13-.54.2-.88Z"/><polygon class="cls-17" points="14.01 256.08 58.55 320.7 70.05 312.58 26.01 203.49 14.01 256.08"/><path class="cls-18" d="M70.82,312.94s9.47,1.66,9.24,7.89S73,335.75,67,330.7a36.82,36.82,0,0,1-8.46-9.87Z"/><path class="cls-19" d="M76.41,328a8.11,8.11,0,0,1-3.73,3.21,4.77,4.77,0,0,1-2.46.24,5.47,5.47,0,0,1-2.65-1.33L66,328.67s-2.55-2.48-3-3.18l-1.21-1.44-1.44-2-.64-1,3-1.94,8.46-5.45,2.53.93c.59.23-10,5.43-10,6.89S68.91,333.67,76.41,328Z"/><polygon class="cls-20" points="174.83 208.59 287.23 131.13 277 121.46 163.06 179.11 174.83 208.59"/><path class="cls-18" d="M277.2,120.63S277,111,283.11,110s16,4,12.25,10.83a37.12,37.12,0,0,1-8,10.25Z"/><path class="cls-19" d="M290.84,112.19a8,8,0,0,1,3.88,3,4.76,4.76,0,0,1,.73,2.37,5.51,5.51,0,0,1-.79,2.86l-1.08,1.86s-1.92,3-2.51,3.6l-1.18,1.46-1.65,1.81-.89.83-2.49-2.59-7-7.21s.31-2,.41-2.67,7.3,8.75,8.72,8.4S297.9,118.41,290.84,112.19Z"/><path class="cls-21" d="M140.68,72.14s5.86,5,7.32,12.35"/><line class="cls-21" x1="150.62" y1="91.8" x2="149.15" y2="87.48"/></g></g></svg>