<svg xmlns="http://www.w3.org/2000/svg" viewBox="0 0 124.51 302.87"><defs><style>.cls-1{fill:#5796d1;}.cls-1,.cls-2{stroke:#142a51;}.cls-1,.cls-10,.cls-15,.cls-16,.cls-18,.cls-2,.cls-3,.cls-4,.cls-5,.cls-6,.cls-8{stroke-miterlimit:10;}.cls-2{fill:#12294f;}.cls-3{fill:#f6bc9e;}.cls-3,.cls-4{stroke:#152b54;}.cls-4{fill:#152b54;}.cls-15,.cls-18,.cls-5,.cls-8{fill:none;}.cls-15,.cls-16,.cls-5,.cls-6{stroke:#12294e;}.cls-18,.cls-5,.cls-6,.cls-8{stroke-linecap:round;}.cls-6,.cls-9{fill:#fff;}.cls-7{fill:#e47261;}.cls-8{stroke:#af4e46;}.cls-10{fill:#f8e3e4;stroke:#0f284b;}.cls-11{fill:#231815;}.cls-12{font-size:3.3px;fill:#eb9ba2;font-family:Alibaba-PuHuiTi-M, Alibaba PuHuiTi;}.cls-13{letter-spacing:-0.01em;}.cls-14{letter-spacing:0em;}.cls-16{fill:#f5cfa6;}.cls-17{fill:#f4a78d;}.cls-18{stroke:#fff;}</style></defs><g id="图层_2" data-name="图层 2"><g id="图层_1_复制" data-name="图层 1_复制"><circle class="cls-1" cx="22.05" cy="14.27" r="12.48"/><circle class="cls-1" cx="100.49" cy="12.98" r="12.48"/><circle class="cls-1" cx="62.26" cy="63.54" r="61.76"/><path class="cls-1" d="M22,110.4S-8.89,209.77,6.88,262.7H124s-.63-110.51-22.46-151.52c0,0-28,25.64-65.12,8.47a80.55,80.55,0,0,1-8.64-4.85C24.91,112.74,22,110.4,22,110.4Z"/><rect class="cls-1" x="28.02" y="262.7" width="30.03" height="23.28"/><rect class="cls-1" x="69.74" y="262.7" width="30.03" height="23.28"/><path class="cls-2" d="M36.59,286s-23.51,18-7.46,16.28,23.22-10.7,23.22-10.7l.57-5.58Z"/><path class="cls-2" d="M92.08,286s23.51,18,7.46,16.28-23.23-10.7-23.23-10.7L75.75,286Z"/><circle class="cls-3" cx="62.59" cy="62.67" r="40.54"/><path class="cls-4" d="M22.53,56.43s11.14-1.52,17.52-10,24.78,19.71,36.41,15.4S101,76.09,101.55,74c0,0,6.61-24.44-11.79-41.25s-42.68-7.4-42.68-7.4S24.66,35.57,22.53,56.43Z"/><path class="cls-5" d="M38.4,72.75a5.14,5.14,0,1,1,10.27,0"/><path class="cls-5" d="M74.59,72.75a5.14,5.14,0,1,1,10.27,0"/><path class="cls-5" d="M61.75,75s-2.64,3.83-.94,4.87"/><path class="cls-6" d="M69.83,90.1c0,4.85-3.49,8.78-7.79,8.78S54.25,95,54.25,90.1Z"/><path class="cls-5" d="M37.62,63.54a15.47,15.47,0,0,1,11.9-.18"/><path class="cls-5" d="M73.23,63.54a15.44,15.44,0,0,1,11.89-.18"/><ellipse class="cls-7" cx="45.04" cy="81.04" rx="8.87" ry="6.98"/><line class="cls-8" x1="42.27" y1="79.71" x2="42.27" y2="82.48"/><line class="cls-8" x1="45.08" y1="79.71" x2="45.08" y2="82.48"/><line class="cls-8" x1="47.81" y1="79.61" x2="47.81" y2="82.37"/><ellipse class="cls-7" cx="78.78" cy="81.15" rx="8.87" ry="6.98"/><line class="cls-8" x1="76.01" y1="79.82" x2="76.01" y2="82.59"/><line class="cls-8" x1="78.82" y1="79.82" x2="78.82" y2="82.59"/><line class="cls-8" x1="81.55" y1="79.72" x2="81.55" y2="82.48"/><rect class="cls-9" x="43.69" y="151.76" width="38.48" height="69.59"/><rect class="cls-10" x="45.15" y="153.52" width="35.57" height="66.06"/><path class="cls-11" d="M67.68,172.5c0,.24,0,.47-.05.69s0,.41-.07.57a2.28,2.28,0,0,1-.14.56,1,1,0,0,1-.24.34,1.21,1.21,0,0,1-.38.18,2.62,2.62,0,0,1-.52,0h-.81a1.14,1.14,0,0,1-.81-.25,1.31,1.31,0,0,1-.27-1v-2.93h-.72a7.71,7.71,0,0,1-.17,1.46,4.41,4.41,0,0,1-.41,1.16,4.91,4.91,0,0,1-.65,1,7.42,7.42,0,0,1-.9.86l-.77-.93a.76.76,0,0,1-.36.48,2.14,2.14,0,0,1-.75.19l-.5,0-.34-1.1.46,0a.84.84,0,0,0,.41-.13.47.47,0,0,0,.09-.33v-2h-1.1q0,.6-.09,1.08a6.09,6.09,0,0,1-.19.91,8.09,8.09,0,0,1-.28.83c-.12.27-.24.54-.39.83l-1-.41c.17-.35.31-.68.44-1a7,7,0,0,0,.31-1.05,11.06,11.06,0,0,0,.18-1.39c0-.53.06-1.21.06-2v-4.29h3.15v8.87a2,2,0,0,1,0,.45,5.42,5.42,0,0,0,.8-.62,3.44,3.44,0,0,0,.55-.72,3.55,3.55,0,0,0,.32-.9,7.59,7.59,0,0,0,.13-1.18H61.51v-4.29h1.21a7.83,7.83,0,0,0-.45-.92c-.17-.29-.35-.58-.56-.87l1-.55c.2.31.38.61.56.9s.33.6.49.93l-.68.51h1.26c.1-.18.22-.37.34-.59s.23-.42.34-.63.2-.42.29-.61.16-.36.21-.5l1,.48c-.11.28-.25.58-.41.92s-.33.64-.49.93h1.17v4.29H65.5v2.62a.72.72,0,0,0,.06.36.39.39,0,0,0,.31.09h.32a.27.27,0,0,0,.23-.09.82.82,0,0,0,.12-.37q0-.23.06-.54c0-.21,0-.43.05-.66Zm-9-6.61v1.71h1.09v-1.71Zm1.09,4.39v-1.64H58.69v1.64Zm2.85-.64h3v-2.08h-3Z"/><path class="cls-11" d="M67.39,185.07h-4.5v2H61.73v-2h-4.6V184h4.6v-1H58.19v-5.33h2l-.48-.6-.41-.47.87-.66.29.29.33.37.32.38.26.34-.33.35h2c.23-.27.46-.57.7-.88a9.85,9.85,0,0,0,.59-.81l1,.52c-.11.18-.24.37-.38.57l-.44.6h1.84V183H62.89v1h4.5Zm-8-6.37v1.06h2.38V178.7Zm2.38,3.18v-1.06H59.35v1.06Zm3.43-3.18H62.89v1.06h2.27Zm0,3.18v-1.06H62.89v1.06Z"/><path class="cls-11" d="M57.61,188.48l1,0v3.75c0,1,0,1.86,0,2.53a17.15,17.15,0,0,1-.17,1.73,8.82,8.82,0,0,1-.3,1.29c-.12.38-.25.78-.4,1.19l-1-.33c.16-.42.31-.81.43-1.18a9.09,9.09,0,0,0,.29-1.24c.07-.46.12-1,.16-1.63s0-1.4,0-2.33Zm1.57.45.94,0v9.25h-.94Zm5.94,5.79a7.91,7.91,0,0,1-.1,1.35,3.38,3.38,0,0,1-.43,1.12,4.34,4.34,0,0,1-.89,1,10.25,10.25,0,0,1-1.49,1l-.54-.85v.39h-1V188.46l1,0v9.75a9.67,9.67,0,0,0,1.31-.85,2.94,2.94,0,0,0,.74-.82,2.29,2.29,0,0,0,.32-.93,8.49,8.49,0,0,0,.08-1.22v-2.08l1,0Zm-1.32-3.9c0-.18.09-.36.13-.55s.09-.37.13-.55h-2v-1H67.4v1H65.15c0,.17-.08.35-.12.55s-.09.38-.13.55h2v5.6h-1v-4.6H63.4v4.61h-1v-5.61Zm1.7,5.49a13.55,13.55,0,0,1,1.17.87,10.74,10.74,0,0,1,1,1l-.6,1a14,14,0,0,0-1-1c-.35-.33-.72-.65-1.12-1Z"/><path class="cls-11" d="M61.06,205.4l.44.4.49.48.47.5.42.46-.74,1c-.2-.24-.45-.51-.72-.81s-.55-.6-.81-.86V211H59.42v-4.45a11.7,11.7,0,0,1-.89,1.36,15.4,15.4,0,0,1-1.12,1.35l-.78-1.07A13.88,13.88,0,0,0,58,206.56a12.39,12.39,0,0,0,1.17-1.93h-2v-1.15h2.25V202.1l-1.05.15-.94.12-.12-1.16,1.22-.15c.43-.05.88-.12,1.33-.19l1.32-.22c.43-.08.82-.16,1.18-.25l.2,1.17-.92.17-1,.18v1.56h2.11v1.15H60.61v1.23Zm3.33,3h-1.2V201.3l1.2,0ZM67,200.34v9.09a2.36,2.36,0,0,1-.09.71.94.94,0,0,1-.28.46,1.51,1.51,0,0,1-.54.26,4.9,4.9,0,0,1-.83.14l-.9.08-.4-1.22,1-.07a1.45,1.45,0,0,0,.71-.19.73.73,0,0,0,.19-.6v-8.7Z"/><text class="cls-12" transform="translate(72.21 216.68)">l<tspan class="cls-13" x="0.98" y="0">ov</tspan><tspan class="cls-14" x="4.81" y="0">e</tspan></text><polygon class="cls-15" points="115.86 160.95 88.05 201.28 80.87 196.21 108.37 128.12 115.86 160.95"/><path class="cls-16" d="M80.39,196.44s-5.91,1-5.77,4.92,4.42,9.32,8.14,6.17a23.23,23.23,0,0,0,5.29-6.17Z"/><path class="cls-17" d="M76.9,205.83a5.08,5.08,0,0,0,2.33,2,3,3,0,0,0,1.54.15,3.35,3.35,0,0,0,1.65-.83l1-.89s1.6-1.55,1.89-2l.75-.91.9-1.23.4-.64-1.89-1.21-5.28-3.4s-1.21.43-1.58.58,6.25,3.38,6.22,4.3S81.58,209.38,76.9,205.83Z"/><polygon class="cls-15" points="9.94 160.05 37.74 200.39 44.92 195.32 17.42 127.22 9.94 160.05"/><path class="cls-16" d="M45.4,195.55s5.91,1,5.77,4.92-4.42,9.32-8.14,6.16a23.12,23.12,0,0,1-5.29-6.16Z"/><path class="cls-17" d="M48.89,204.93a5.07,5.07,0,0,1-2.33,2,3.07,3.07,0,0,1-1.54.15,3.39,3.39,0,0,1-1.65-.83l-1-.9a26,26,0,0,1-1.89-2l-.75-.9-.9-1.23-.4-.65,1.89-1.21,5.28-3.4,1.58.58c.36.14-6.25,3.39-6.22,4.3S44.21,208.49,48.89,204.93Z"/><path class="cls-18" d="M88,45.22a15.4,15.4,0,0,1,4.57,7.71"/><line class="cls-18" x1="94.22" y1="57.5" x2="93.3" y2="54.8"/></g></g></svg>