<?xml version="1.0" standalone="no"?><!DOCTYPE svg PUBLIC "-//W3C//DTD SVG 1.1//EN" "http://www.w3.org/Graphics/SVG/1.1/DTD/svg11.dtd"><svg t="1638330599478" class="icon" viewBox="0 0 1024 1024" version="1.1" xmlns="http://www.w3.org/2000/svg" p-id="3074" xmlns:xlink="http://www.w3.org/1999/xlink" width="200" height="200"><defs><style type="text/css"></style></defs><path d="M1023.219 498.802c0.379 4.71 0.028 9.552-1.249 14.378L929.884 919.64c-1.293 4.87-3.424 9.29-6.126 13.221-9.863 19.692-24.86 37.108-44.798 49.79-21.006 13.35-44.464 19.584-67.638 19.541l0-0.255-591.504-0.248c-2.067 0.307-4.161 0.515-6.316 0.515-2.161 0-4.263-0.208-6.346-0.523l-157.335-0.066c-2.212 0.355-4.462 0.588-6.775 0.588-23.54 0-42.616-19.078-42.616-42.613l0.387-511.61c0-23.538 19.084-42.615 42.624-42.615 1.759 0 3.482 0.137 5.189 0.351l141.427-0.329 0-0.804c130.127-9.314 233.238-115.991 236.918-247.598-0.328-3.703-0.563-7.425-0.563-11.214 0-68.468 55.501-123.977 123.977-123.977 58.84 0 107.996 41.031 120.693 96.008l0.627-0.081c6.979 31.387 10.784 63.969 10.784 97.452 0 51.626-8.814 101.178-24.941 147.291l237.867 0.257c2.19 0 4.328 0.218 6.432 0.541 40.615 1.596 79.732 22.509 102.774 59.648C1019.283 446.528 1025.13 473.066 1023.219 498.802M85.7 916.404l85.224 0.036 0.321-425.779-85.144 0.19L85.7 916.404 85.7 916.404zM932.695 467.438c-8.192-13.209-22.662-20.152-37.164-19.37l0-0.126c-0.035 0-0.074 0-0.108 0l-300.67-0.312c-23.531 0-42.614-19.086-42.614-42.623 0-6.775 1.628-13.163 4.445-18.851l-0.453-0.373c17.025-31.694 29.409-66.243 36.431-102.689l0.533 0.014c0 0 5.667-23.012 5.593-67.148-0.059-34.964-6.432-66.884-6.432-66.884l-0.321 0c0.028-0.621 0.096-1.226 0.096-1.854 0-22.004-17.845-39.848-39.849-39.848-22.015 0-39.858 17.843-39.858 39.848 0 0.92 0.081 1.826 0.139 2.731l-0.556 0.008c0 0 0.679 33.271-5.964 67.775-2.821 14.638-6.783 28.289-10.392 39.102-0.074-0.035-0.137-0.065-0.21-0.101-35.868 109.66-126.06 194.665-238.779 223.299l-0.408 436.435 555.37 0.226c1.876 0 3.71 0.161 5.52 0.406 5.542-0.738 11.018-2.652 16.048-5.851 7.14-4.535 12.323-10.971 15.361-18.232l0.11 0.062 88.662-391.339-0.343-0.102C940.425 490.574 939.301 478.088 932.695 467.438" p-id="3075" fill="#515151"></path></svg>