<svg xml:space="preserve" style="enable-background:new 0 0 1200 1200;" viewBox="0 0 1200 1200" y="0px" x="0px" xmlns:xlink="http://www.w3.org/1999/xlink" xmlns="http://www.w3.org/2000/svg" id="图层_1" version="1.1">
<style type="text/css">
	.st0{fill:#FFFFFF;}
	.st1{fill:#060001;}
	.st2{fill:#B38DE0;}
	.st3{fill:#76479D;}
	.st4{fill:#956CBC;}
	.st5{fill:#CCB1F2;}
	.st6{fill:#040000;}
</style>
<g>
	<circle r="600.65" cy="600.05" cx="600.64" class="st0"></circle>
	<g>
		<path d="M600,1201.29c-81.17,0-159.92-15.9-234.05-47.25c-71.6-30.28-135.91-73.64-191.13-128.86
			C119.6,969.96,76.25,905.65,45.96,834.05C14.61,759.92-1.29,681.17-1.29,600c0-81.17,15.9-159.92,47.25-234.05
			c30.29-71.6,73.64-135.91,128.86-191.13c55.22-55.22,119.52-98.58,191.13-128.86C440.08,14.61,518.83-1.29,600-1.29
			c81.17,0,159.92,15.9,234.05,47.25c71.6,30.29,135.91,73.64,191.13,128.86c55.22,55.22,98.58,119.52,128.86,191.13
			c31.36,74.13,47.25,152.88,47.25,234.05c0,81.17-15.9,159.92-47.25,234.05c-30.28,71.6-73.64,135.91-128.86,191.13
			c-55.22,55.22-119.53,98.58-191.13,128.86C759.92,1185.39,681.17,1201.29,600,1201.29z M600,4.71
			c-80.36,0-158.32,15.74-231.71,46.78C297.4,81.47,233.74,124.4,179.07,179.07C124.4,233.74,81.47,297.4,51.49,368.29
			C20.45,441.68,4.71,519.64,4.71,600c0,80.37,15.74,158.32,46.78,231.71c29.98,70.89,72.91,134.55,127.58,189.22
			c54.67,54.67,118.33,97.59,189.22,127.58c73.39,31.04,151.35,46.78,231.71,46.78c80.37,0,158.32-15.74,231.71-46.78
			c70.89-29.98,134.55-72.91,189.22-127.58c54.67-54.67,97.59-118.33,127.58-189.22c31.04-73.39,46.78-151.35,46.78-231.71
			c0-80.36-15.74-158.32-46.78-231.71c-29.98-70.89-72.91-134.55-127.58-189.22C966.26,124.4,902.6,81.47,831.71,51.49
			C758.32,20.45,680.36,4.71,600,4.71z" class="st1"></path>
	</g>
</g>
<g id="XMLID_10_">
	<g>
		<g>
			<path d="M974.93,600.06h-68.37c0.11-2.52,0.11-5.16,0.11-7.79c0-27-1.43-51.91-4.17-75.28
				c22.06,4.06,44.01,8.23,65.85,12.51C972.63,552.32,974.93,575.91,974.93,600.06z" class="st2"></path>
		</g>
		<g>
			<path d="M974.93,600.06c0,18.77-1.43,37.09-4.06,55.09l-2.52-0.33c-22.17,4.28-44.23,8.56-66.17,12.62
				c2.63-21.84,4.17-44.34,4.39-67.38H974.93z" class="st3"></path>
		</g>
		<g>
			<path d="M968.35,654.82l2.52,0.33c-3.73,25.46-9.99,50.15-18.66,73.64l-0.33-0.11
				c-22.39,11.08-44.88,20.85-67.6,29.41c8.12-28.64,14.16-58.93,17.89-90.65C924.12,663.38,946.18,659.1,968.35,654.82z" class="st2"></path>
		</g>
		<g>
			<path d="M951.88,728.67l0.33,0.11c-12.4,33.91-29.52,65.63-50.7,94.05c-17.12,8.01-33.58,15.47-49.71,22.39
				c12.84-26.67,23.81-55.97,32.48-87.14C907,749.52,929.5,739.76,951.88,728.67z" class="st2"></path>
		</g>
		<g>
			<path d="M943.76,450.15c10.97,25.13,19.31,51.69,24.58,79.34c-21.84-4.28-43.79-8.45-65.85-12.51
				c-3.62-32.26-9.77-61.78-18.11-90.43c19.31,7.24,38.41,15.36,57.5,24.47L943.76,450.15z" class="st2"></path>
		</g>
		<g>
			<path d="M943.76,450.15l-1.87,0.88c-19.1-9.11-38.19-17.23-57.5-24.47c-8.45-29.3-19.1-57.61-31.83-87.03
				c9.44,4.06,19.1,8.34,28.86,12.84h0.11C907,381.34,928.18,414.26,943.76,450.15z" class="st2"></path>
		</g>
		<g>
			<path d="M906.67,592.26c0,2.63,0,5.27-0.11,7.79h-91.09c0.11-3.07,0.11-6.15,0.11-9.22
				c0-29.74-1.43-59.48-4.39-89.33c30.51,4.72,61.02,9.99,91.31,15.47C905.24,540.36,906.67,565.27,906.67,592.26z" class="st2"></path>
		</g>
		<g>
			<path d="M815.48,600.06h91.09c-0.22,23.05-1.76,45.54-4.39,67.38c-30.84,5.71-61.68,11.08-92.4,15.69
				C813.17,655.37,815.15,627.71,815.48,600.06z" class="st2"></path>
		</g>
		<g>
			<path d="M884.39,426.55c8.34,28.64,14.49,58.16,18.11,90.43c-30.29-5.49-60.8-10.75-91.31-15.47
				c-3.51-34.24-9.11-68.59-17.23-102.72C824.25,406.03,854.43,415.14,884.39,426.55z" class="st4"></path>
		</g>
		<g>
			<path d="M902.17,667.44c-3.73,31.72-9.77,62-17.89,90.65c-31.28,11.85-62.77,21.29-94.49,28.53
				c8.89-34.35,15.58-68.92,19.97-103.49C840.5,678.52,871.33,673.14,902.17,667.44z" class="st5"></path>
		</g>
		<g>
			<path d="M884.28,758.08c-8.67,31.17-19.64,60.47-32.48,87.14c-30.51,13.17-60.03,24.14-90.54,32.81
				c11.19-30.29,20.74-60.8,28.53-91.42C821.51,779.37,853.01,769.94,884.28,758.08z" class="st3"></path>
		</g>
		<g>
			<path d="M901.51,822.83c-23.59,31.93-52.13,60.03-84.5,82.97c12.62-18.33,24.36-38.63,34.79-60.58
				C867.93,838.31,884.39,830.84,901.51,822.83z" class="st2"></path>
		</g>
		<g>
			<path d="M852.57,339.53c12.73,29.41,23.38,57.72,31.83,87.03c-29.96-11.41-60.14-20.52-90.43-27.76
				c-7.13-30.4-16.24-60.69-27.66-90.76C795.39,316.48,823.49,327.02,852.57,339.53z" class="st2"></path>
		</g>
		<g>
			<path d="M851.8,845.22c-10.43,21.95-22.17,42.25-34.79,60.58c-26.23,18.66-54.98,34.02-85.6,45.54l-0.11-0.33
				c10.97-24.14,21.07-48.51,29.96-72.98C791.77,869.36,821.29,858.39,851.8,845.22z" class="st2"></path>
		</g>
		<g>
			<path d="M840.83,312.64c4.06,9.11,8.01,18,11.74,26.89c-29.08-12.51-57.18-23.05-86.26-31.5
				c-6.8-18.22-14.38-36.43-22.94-54.54c35.56,14.71,68.37,34.68,97.34,59.04C840.83,312.53,840.83,312.64,840.83,312.64z" class="st2"></path>
		</g>
		<g>
			<path d="M815.59,590.84c0,3.07,0,6.15-0.11,9.22H708.37c0.11-2.63,0.11-5.16,0.11-7.79
				c0-34.57-1.76-69.14-4.83-103.71c35.89,3.07,71.77,7.57,107.55,12.95C814.16,531.36,815.59,561.1,815.59,590.84z" class="st4"></path>
		</g>
		<g>
			<path d="M708.37,600.06h107.11c-0.33,27.66-2.3,55.31-5.71,83.07c-35.23,5.38-70.56,9.88-106.12,12.84
				C706.5,664.03,708.26,632.1,708.37,600.06z" class="st3"></path>
		</g>
		<g>
			<path d="M811.2,501.51c-35.78-5.38-71.66-9.88-107.55-12.95c-3.07-35.78-7.68-71.55-13.17-107.22
				c34.57,3.51,69.03,9.22,103.49,17.45C802.09,432.92,807.68,467.27,811.2,501.51z" class="st2"></path>
		</g>
		<g>
			<path d="M703.65,695.97c35.56-2.96,70.89-7.46,106.12-12.84c-4.39,34.57-11.08,69.14-19.97,103.49
				c-32.92,7.79-66.06,13.17-99.1,16.68C695.97,767.52,700.58,731.75,703.65,695.97z" class="st2"></path>
		</g>
		<g>
			<path d="M793.97,398.79c-34.46-8.23-68.92-13.94-103.49-17.45c-4.61-30.62-9.88-61.13-15.47-91.63
				c32.59,3.73,62.44,9.99,91.31,18.33C777.72,338.1,786.83,368.39,793.97,398.79z" class="st3"></path>
		</g>
		<g>
			<path d="M690.7,803.3c33.03-3.51,66.17-8.89,99.1-16.68c-7.79,30.62-17.34,61.13-28.53,91.42
				c-27.33,7.57-55.53,13.39-86.15,16.9C680.71,864.42,685.98,833.92,690.7,803.3z" class="st2"></path>
		</g>
		<g>
			<path d="M766.31,308.03c-28.86-8.34-58.71-14.6-91.31-18.33c-3.62-19.75-7.35-39.51-11.19-59.26
				c27.66,4.72,54.32,12.51,79.56,23.05C751.93,271.6,759.51,289.81,766.31,308.03z" class="st2"></path>
		</g>
		<g>
			<path d="M675.12,894.93c30.62-3.51,58.82-9.33,86.15-16.9c-8.89,24.47-18.99,48.84-29.96,72.98l0.11,0.33
				c-22.28,8.34-45.65,14.6-69.69,18.55l-0.44-2.74C666.01,943.11,670.62,919.08,675.12,894.93z" class="st2"></path>
		</g>
		<g>
			<path d="M708.48,592.26c0,2.63,0,5.16-0.11,7.79H600.05V483.84c0.44,0,0.88,0,1.32,0c34.13,0,68.26,1.65,102.28,4.72
				C706.72,523.13,708.48,557.69,708.48,592.26z" class="st2"></path>
		</g>
		<g>
			<path d="M600.05,600.06h108.32c-0.11,32.04-1.87,63.98-4.72,95.91c-34.13,3.07-68.59,4.72-103.6,4.72V600.06z" class="st4"></path>
		</g>
		<g>
			<path d="M690.48,381.34c5.49,35.67,10.1,71.44,13.17,107.22c-34.02-3.07-68.15-4.72-102.28-4.72
				c-0.44,0-0.88,0-1.32,0V376.73C630.12,376.73,660.3,378.16,690.48,381.34z" class="st4"></path>
		</g>
		<g>
			<path d="M703.65,695.97c-3.07,35.78-7.68,71.55-12.95,107.33c-30.29,3.07-60.47,4.5-90.65,4.5V700.69
				C635.06,700.69,669.52,699.04,703.65,695.97z" class="st5"></path>
		</g>
		<g>
			<path d="M690.7,803.3c-4.72,30.62-9.99,61.13-15.58,91.63c-23.38,2.63-48.18,4.06-75.06,4.06v-91.2
				C630.23,807.8,660.41,806.37,690.7,803.3z" class="st3"></path>
		</g>
		<g>
			<path d="M675.01,289.7c5.6,30.51,10.86,61.02,15.47,91.63c-30.18-3.18-60.36-4.61-90.43-4.61v-91.09
				C626.94,285.64,651.63,287.07,675.01,289.7z" class="st2"></path>
		</g>
		<g>
			<path d="M663.81,230.44c3.84,19.75,7.57,39.51,11.19,59.26c-23.38-2.63-48.07-4.06-74.95-4.06v-60.58
				C621.78,225.07,643.07,226.93,663.81,230.44z" class="st2"></path>
		</g>
		<g>
			<path d="M675.12,894.93c-4.5,24.14-9.11,48.18-13.83,72.21l0.44,2.74c-20.08,3.29-40.71,5.05-61.68,5.05v-75.94
				C626.94,898.99,651.74,897.57,675.12,894.93z" class="st2"></path>
		</g>
		<g>
			<path d="M600.05,898.99v75.94c-20.96,0-41.59-1.76-61.68-5.05l0.44-2.74c-4.72-24.25-9.44-48.51-13.94-72.87
				C549.13,897.35,574.26,898.99,600.05,898.99z" class="st4"></path>
		</g>
		<g>
			<path d="M600.05,807.8v91.2c-25.79,0-50.92-1.65-75.17-4.72c-5.6-30.62-10.97-61.46-15.58-92.18
				C539.58,805.82,569.87,807.8,600.05,807.8z" class="st2"></path>
		</g>
		<g>
			<path d="M600.05,700.69V807.8c-30.18,0-60.47-1.98-90.76-5.71c-5.27-35.34-9.77-70.78-12.84-106.23
				C531.02,698.93,565.48,700.69,600.05,700.69z" class="st3"></path>
		</g>
		<g>
			<path d="M600.05,600.06v100.63c-34.57,0-69.03-1.76-103.6-4.83c-2.85-31.93-4.61-63.87-4.72-95.8H600.05z" class="st5"></path>
		</g>
		<g>
			<path d="M600.05,483.84v116.22H491.74c-0.11-2.63-0.11-5.16-0.11-7.79c0-34.46,1.76-69.03,4.83-103.49
				C530.91,485.7,565.48,483.84,600.05,483.84z" class="st2"></path>
		</g>
		<g>
			<path d="M600.05,376.73v107.11c-34.57,0-69.14,1.87-103.6,4.94c3.07-35.45,7.46-70.89,12.84-106.34
				C539.58,378.6,569.87,376.73,600.05,376.73z" class="st2"></path>
		</g>
		<g>
			<path d="M600.05,285.64v91.09c-30.18,0-60.47,1.87-90.76,5.71c4.61-30.73,9.88-61.46,15.58-92.07
				C549.02,287.29,574.15,285.64,600.05,285.64z" class="st2"></path>
		</g>
		<g>
			<path d="M600.05,225.07v60.58c-25.9,0-51.03,1.65-75.17,4.72c3.62-19.97,7.46-39.95,11.3-59.92
				C556.92,226.93,578.32,225.07,600.05,225.07z" class="st4"></path>
		</g>
		<g>
			<path d="M538.82,967.14l-0.44,2.74c-24.25-4.06-47.74-10.32-70.23-18.88c-11.96-25.35-22.61-50.26-31.93-74.95
				c28.09,8.12,57.72,14.38,88.67,18.22C529.38,918.64,534.1,942.89,538.82,967.14z" class="st2"></path>
		</g>
		<g>
			<path d="M536.18,230.44c-3.84,19.97-7.68,39.95-11.3,59.92c-32.04,3.95-62.44,10.43-91.09,19.1
				c7.02-18.88,14.92-37.64,23.7-56.3C482.41,242.84,508.86,235.16,536.18,230.44z" class="st2"></path>
		</g>
		<g>
			<path d="M524.88,290.36c-5.71,30.62-10.97,61.35-15.58,92.07c-34.68,4.17-69.25,10.86-103.71,19.64
				c7.24-30.95,16.57-61.89,28.2-92.62C462.43,300.79,492.83,294.31,524.88,290.36z" class="st2"></path>
		</g>
		<g>
			<path d="M509.29,802.09c4.61,30.73,9.99,61.57,15.58,92.18c-30.95-3.84-60.58-10.1-88.67-18.22
				c-11.85-31.39-21.51-62.33-29.19-93.28C441.04,791.45,475.16,797.92,509.29,802.09z" class="st2"></path>
		</g>
		<g>
			<path d="M496.45,695.86c3.07,35.45,7.57,70.89,12.84,106.23c-34.13-4.17-68.26-10.64-102.28-19.31
				c-8.23-33.03-14.05-66.17-17.78-99.98C424.9,688.18,460.68,692.79,496.45,695.86z" class="st4"></path>
		</g>
		<g>
			<path d="M509.29,382.44c-5.38,35.45-9.77,70.89-12.84,106.34c-35.89,3.18-71.66,7.68-107.44,13.06
				c3.4-33.25,8.78-66.61,16.57-99.76C440.05,393.3,474.62,386.61,509.29,382.44z" class="st2"></path>
		</g>
		<g>
			<path d="M496.45,488.78c-3.07,34.46-4.83,69.03-4.83,103.49c0,2.63,0,5.16,0.11,7.79H384.52
				c-0.11-2.52-0.11-5.16-0.11-7.79c0-30.07,1.43-60.25,4.61-90.43C424.79,496.46,460.57,491.96,496.45,488.78z" class="st4"></path>
		</g>
		<g>
			<path d="M491.74,600.06c0.11,31.93,1.87,63.87,4.72,95.8c-35.78-3.07-71.55-7.68-107.22-13.06
				c-2.96-27.11-4.5-54.54-4.72-82.75H491.74z" class="st4"></path>
		</g>
		<g>
			<path d="M457.5,253.16c-8.78,18.66-16.68,37.42-23.7,56.3c-31.83,9.33-61.35,21.18-88.45,35.01
				c4.39-10.43,9.11-21.07,13.94-31.83c0,0,0-0.11,0.11-0.11C388.58,288.06,421.61,267.87,457.5,253.16z" class="st2"></path>
		</g>
		<g>
			<path d="M436.21,876.06c9.33,24.69,19.97,49.6,31.93,74.95c-28.75-10.75-55.75-24.91-80.66-42.14
				c-13.5-19.64-26.34-41.7-37.86-65.85C376.29,855.97,405.26,867.17,436.21,876.06z" class="st2"></path>
		</g>
		<g>
			<path d="M436.21,876.06c-30.95-8.89-59.92-20.08-86.59-33.03c-12.95-27.11-24.25-56.74-33.36-88.34
				c30.07,11.08,60.36,20.41,90.76,28.09C414.7,813.72,424.35,844.67,436.21,876.06z" class="st4"></path>
		</g>
		<g>
			<path d="M389.24,682.8c3.73,33.8,9.55,66.94,17.78,99.98c-30.4-7.68-60.69-17.01-90.76-28.09
				c-8.01-27.76-14.16-57.07-18-87.35C328.55,672.92,358.84,678.19,389.24,682.8z" class="st5"></path>
		</g>
		<g>
			<path d="M433.79,309.46c-11.63,30.73-20.96,61.68-28.2,92.62c-30.51,7.79-60.91,17.23-90.98,28.31
				c8.12-28.97,18.44-57.07,30.73-85.93C372.45,330.64,401.97,318.79,433.79,309.46z" class="st4"></path>
		</g>
		<g>
			<path d="M405.59,402.08c-7.79,33.14-13.17,66.5-16.57,99.76c-30.62,4.72-61.13,9.99-91.63,15.69
				c3.51-31.06,9.33-59.59,17.23-87.14C344.68,419.31,375.08,409.87,405.59,402.08z" class="st5"></path>
		</g>
		<g>
			<path d="M384.52,600.06c0.22,28.2,1.76,55.64,4.72,82.75c-30.4-4.61-60.69-9.88-90.98-15.47
				c-2.96-21.95-4.61-44.34-4.83-67.27H384.52z" class="st2"></path>
		</g>
		<g>
			<path d="M389.02,501.84c-3.18,30.18-4.61,60.36-4.61,90.43c0,2.63,0,5.27,0.11,7.79h-91.09
				c-0.11-2.63-0.11-5.16-0.11-7.79c0-26.78,1.43-51.47,4.06-74.73C327.89,511.82,358.4,506.55,389.02,501.84z" class="st3"></path>
		</g>
		<g>
			<path d="M359.28,312.64c-4.83,10.75-9.55,21.4-13.94,31.83c-13.39,6.8-26.12,14.05-38.3,21.73
				C322.51,346.66,340.07,328.66,359.28,312.64z" class="st3"></path>
		</g>
		<g>
			<path d="M349.62,843.02c-22.5-10.86-43.24-22.94-62.11-36h-0.11c-16.46-24.8-30.07-51.69-40.28-80.22
				c22.94,10.21,45.98,19.53,69.14,27.87C325.37,786.29,336.67,815.92,349.62,843.02z" class="st3"></path>
		</g>
		<g>
			<path d="M349.62,843.02c11.52,24.14,24.36,46.2,37.86,65.85c-39.51-27.22-73.53-61.78-99.98-101.84
				C306.38,820.09,327.12,832.16,349.62,843.02z" class="st2"></path>
		</g>
		<g>
			<path d="M307.04,366.19c12.18-7.68,24.91-14.92,38.3-21.73c-12.29,28.86-22.61,56.96-30.73,85.93
				c-20.19,7.35-40.28,15.36-60.25,24.14c13.5-31.93,31.28-61.68,52.57-88.34H307.04z" class="st2"></path>
		</g>
		<g>
			<path d="M314.61,430.39c-7.9,27.55-13.72,56.08-17.23,87.14c-21.84,3.95-43.68,8.12-65.52,12.4h-0.22
				c4.94-26.23,12.62-51.47,22.72-75.39C274.34,445.76,294.42,437.75,314.61,430.39z" class="st2"></path>
		</g>
		<g>
			<path d="M298.26,667.33c3.84,30.29,9.99,59.59,18,87.35c-23.16-8.34-46.2-17.67-69.14-27.87
				c-8.34-23.16-14.49-47.41-18.22-72.54h0.11C252.06,658.77,275.1,663.16,298.26,667.33z" class="st4"></path>
		</g>
		<g>
			<path d="M297.38,517.53c-2.63,23.27-4.06,47.96-4.06,74.73c0,2.63,0,5.16,0.11,7.79h-68.37
				c0-23.92,2.3-47.41,6.58-70.13h0.22C253.71,525.65,275.54,521.48,297.38,517.53z" class="st2"></path>
		</g>
		<g>
			<path d="M293.43,600.06c0.22,22.94,1.87,45.32,4.83,67.27c-23.16-4.17-46.2-8.56-69.25-13.06h-0.11
				c-2.52-17.67-3.84-35.78-3.84-54.21H293.43z" class="st4"></path>
		</g>
	</g>
	<g>
		<g>
			<path d="M600.05,978.41c-20.63,0-41.57-1.71-62.23-5.09c-24.65-4.13-48.5-10.54-70.91-19.06
				c-28.77-10.77-56.17-25.08-81.4-42.53c-40.22-27.7-74.16-62.28-100.9-102.79c-1.06-1.6-0.62-3.75,0.99-4.81
				c1.58-1.04,3.75-0.62,4.81,0.99c26.24,39.75,59.57,73.7,99.05,100.89c24.77,17.13,51.65,31.18,79.91,41.75
				c21.99,8.36,45.4,14.66,69.59,18.71c40.56,6.62,81.61,6.65,122.22-0.01c23.59-3.88,46.82-10.06,69.03-18.37
				c30.1-11.32,58.63-26.5,84.8-45.12c32.01-22.68,60.18-50.33,83.73-82.2c21.05-28.26,37.95-59.61,50.23-93.18
				c8.59-23.26,14.8-47.79,18.48-72.95c2.67-18.3,4.03-36.66,4.03-54.59c0-23.31-2.2-46.84-6.53-69.92
				c-5.11-26.84-13.31-53.29-24.34-78.6c-15.24-35.08-35.98-67.67-61.65-96.88c-1.27-1.44-1.12-3.63,0.31-4.9
				c1.43-1.27,3.62-1.13,4.9,0.31c26.15,29.76,47.28,62.96,62.81,98.69c11.25,25.78,19.59,52.73,24.8,80.08
				c4.42,23.52,6.65,47.47,6.65,71.21c0,18.26-1.38,36.97-4.09,55.6c-3.76,25.63-10.1,50.64-18.84,74.34
				c-12.5,34.19-29.72,66.13-51.18,94.92c-23.97,32.45-52.67,60.63-85.28,83.72c-26.66,18.96-55.72,34.43-86.38,45.96
				c-22.65,8.48-46.31,14.78-70.34,18.73C641.62,976.7,620.68,978.41,600.05,978.41z" class="st6"></path>
		</g>
		<g>
			<path d="M881.43,355.84c-0.97,0-1.93-0.4-2.61-1.18c-12.55-14.31-26.08-27.55-40.23-39.35
				c-1.47-1.23-1.67-3.42-0.44-4.89c1.24-1.48,3.43-1.66,4.89-0.44c14.42,12.04,28.21,25.53,40.98,40.1
				c1.27,1.44,1.12,3.64-0.32,4.9C883.06,355.56,882.24,355.84,881.43,355.84z" class="st6"></path>
		</g>
		<g>
			<path d="M840.72,316c-0.79,0-1.58-0.27-2.24-0.81c-28.9-24.3-61.34-43.98-96.43-58.49
				c-25.24-10.53-51.76-18.21-78.81-22.83c-41.81-7.08-84.76-7.06-126.47,0c-26.87,4.64-53.1,12.21-77.93,22.5
				c-35.11,14.39-67.82,34.18-97.21,58.82c-1.47,1.24-3.65,1.05-4.89-0.43c-1.23-1.47-1.04-3.66,0.44-4.89
				c29.93-25.1,63.25-45.27,99.02-59.92c25.29-10.48,52.02-18.19,79.41-22.92c42.5-7.2,86.24-7.21,128.81,0
				c27.58,4.71,54.6,12.53,80.32,23.26c35.74,14.78,68.79,34.83,98.24,59.59c1.46,1.24,1.66,3.43,0.42,4.89
				C842.68,315.58,841.71,316,840.72,316z" class="st6"></path>
		</g>
		<g>
			<path d="M307.04,369.67c-0.76,0-1.52-0.25-2.16-0.75c-1.5-1.19-1.75-3.38-0.56-4.88
				c15.6-19.69,33.34-37.88,52.73-54.06c1.47-1.23,3.66-1.04,4.89,0.44c1.23,1.47,1.04,3.66-0.44,4.89
				c-19.03,15.88-36.44,33.73-51.74,53.05C309.08,369.22,308.06,369.67,307.04,369.67z" class="st6"></path>
		</g>
		<g>
			<path d="M287.4,810.5c-1.12,0-2.23-0.54-2.9-1.55c-16.81-25.32-30.49-52.57-40.64-80.97
				c-8.49-23.55-14.67-48.18-18.39-73.2c-2.57-18.03-3.87-36.45-3.87-54.72c0-23.59,2.23-47.4,6.64-70.76
				c4.92-26.12,12.64-51.72,22.93-76.11c13.53-32.02,31.38-62.01,53.06-89.15c1.2-1.51,3.39-1.74,4.88-0.55s1.74,3.38,0.54,4.88
				c-21.27,26.65-38.8,56.09-52.09,87.53c-10.1,23.93-17.68,49.06-22.5,74.68c-4.32,22.95-6.52,46.32-6.52,69.48
				c0,17.96,1.28,36.03,3.81,53.72c3.64,24.56,9.71,48.73,18.04,71.87c9.97,27.87,23.39,54.61,39.91,79.47
				c1.06,1.6,0.62,3.75-0.98,4.82C288.72,810.31,288.06,810.5,287.4,810.5z" class="st6"></path>
		</g>
		<g>
			<path d="M974.93,603.52H225.07c-1.92,0-3.47-1.55-3.47-3.47s1.55-3.47,3.47-3.47h749.87c1.92,0,3.47,1.55,3.47,3.47
				S976.85,603.52,974.93,603.52z" class="st6"></path>
		</g>
		<g>
			<path d="M231.87,533.4c-1.63,0-3.08-1.14-3.41-2.8c-0.37-1.88,0.86-3.71,2.74-4.08
				c21.85-4.28,43.71-8.45,65.56-12.41c32-5.98,62-11.12,91.72-15.7c38.66-5.81,73.87-10.09,107.66-13.09
				c37.38-3.33,71.36-4.95,103.9-4.95h1.32c33.29,0,67.81,1.59,102.6,4.73c33.49,2.87,68.75,7.11,107.75,12.98
				c27.42,4.24,57.31,9.31,91.41,15.49c22.08,4.07,44.04,8.24,65.89,12.52c1.88,0.37,3.11,2.2,2.74,4.08
				c-0.37,1.87-2.14,3.1-4.08,2.74c-21.82-4.28-43.75-8.45-65.8-12.51c-34.03-6.17-63.87-11.22-91.21-15.46
				c-38.85-5.84-73.95-10.06-107.31-12.92c-34.6-3.12-68.9-4.7-101.99-4.7h-1.32c-32.34,0-66.12,1.61-103.28,4.92
				c-33.66,2.98-68.74,7.25-107.24,13.03c-29.63,4.57-59.57,9.7-91.51,15.67c-21.83,3.95-43.67,8.12-65.48,12.4
				C232.32,533.38,232.08,533.4,231.87,533.4z" class="st6"></path>
		</g>
		<g>
			<path d="M254.36,458.01c-1.34,0-2.61-0.78-3.18-2.08c-0.78-1.75,0.03-3.8,1.78-4.57
				c19.4-8.53,39.74-16.68,60.45-24.23c29.88-11.01,60.61-20.57,91.31-28.42c35.56-9.06,70.6-15.69,104.16-19.73
				c60.59-7.68,124.32-7.19,181.97-1.1c35.26,3.59,70.24,9.48,103.92,17.53c31.41,7.51,61.97,16.9,90.86,27.89
				c19.34,7.26,38.78,15.53,57.76,24.59c1.73,0.83,2.47,2.9,1.64,4.63c-0.82,1.72-2.94,2.44-4.62,1.64
				c-18.8-8.97-38.06-17.16-57.23-24.36c-28.62-10.9-58.9-20.2-90.01-27.64c-33.39-7.97-68.06-13.81-103.03-17.37
				c-57.15-6.03-120.29-6.53-180.4,1.09c-33.29,4-68.03,10.58-103.29,19.57c-30.47,7.78-60.96,17.27-90.63,28.2
				c-20.58,7.5-40.79,15.59-60.05,24.06C255.3,457.91,254.83,458.01,254.36,458.01z" class="st6"></path>
		</g>
		<g>
			<path d="M307.04,369.67c-1.92,0-3.53-1.56-3.53-3.47c0-1.45,0.86-2.7,2.12-3.22c12.21-7.68,25.04-14.96,38.13-21.61
				c27.94-14.26,57.9-26.12,89.05-35.25c29.27-8.86,60.1-15.33,91.64-19.21c24.74-3.15,50.18-4.75,75.6-4.75
				c26.3,0,50.94,1.34,75.35,4.08c31.29,3.58,61.34,9.61,91.89,18.44c27.56,8.01,55.1,18.07,86.66,31.65
				c9.41,4.05,19.04,8.31,28.78,12.8c1.3,0.51,2.23,1.76,2.23,3.23c0.01,2.43-2.79,4.16-4.98,3.15
				c-9.74-4.49-19.36-8.76-28.78-12.81c-31.29-13.46-58.57-23.42-85.85-31.35c-30.16-8.72-59.84-14.68-90.73-18.21
				c-24.13-2.72-48.52-4.04-74.56-4.04c-25.13,0-50.27,1.58-74.73,4.69c-31.15,3.84-61.6,10.22-90.51,18.97
				c-30.76,9.02-60.32,20.71-87.89,34.78c-13.06,6.64-25.85,13.9-38.03,21.57C308.34,369.48,307.7,369.67,307.04,369.67z" class="st6"></path>
		</g>
		<g>
			<path d="M600.05,704.16c-33.32,0-67.3-1.58-103.9-4.85c-32.35-2.78-67.5-7.05-107.42-13.08
				c-27.35-4.15-57.14-9.22-91.09-15.5c-23.15-4.17-46.22-8.56-69.29-13.06c-1.88-0.37-3.11-2.2-2.74-4.08
				c0.38-1.88,2.16-3.08,4.08-2.74c23.03,4.51,46.06,8.9,69.19,13.05c33.9,6.27,63.62,11.33,90.89,15.47
				c39.78,6,74.78,10.25,107,13.02c36.41,3.25,70.19,4.83,103.29,4.83c33.85,0,68.6-1.59,103.29-4.71
				c32.59-2.71,67.22-6.91,105.9-12.81c27.33-4.11,56.66-9.09,92.3-15.68c20.92-3.88,41.97-7.95,63.11-12.03l3.03-0.59
				c1.93-0.35,3.71,0.87,4.07,2.75c0.36,1.88-0.87,3.7-2.75,4.07l-3.03,0.58c-21.15,4.09-42.21,8.16-63.16,12.04
				c-35.72,6.62-65.12,11.61-92.53,15.72c-38.82,5.93-73.61,10.14-106.34,12.87C669.07,702.57,634.1,704.16,600.05,704.16z" class="st6"></path>
		</g>
		<g>
			<path d="M600.05,811.26c-29.66,0-60.33-1.92-91.18-5.72c-33.95-4.16-68.5-10.69-102.71-19.41
				c-30.76-7.76-61.42-17.25-91.1-28.2c-22.61-8.13-45.94-17.54-69.35-27.96c-1.75-0.78-2.54-2.83-1.75-4.58
				c0.78-1.74,2.82-2.56,4.58-1.75c23.24,10.34,46.43,19.68,68.89,27.77c29.48,10.86,59.9,20.28,90.44,28
				c33.93,8.64,68.18,15.12,101.85,19.24c62.4,7.7,123.23,7.03,180.63,1.19c34.3-3.63,67.5-9.23,98.64-16.6
				c31.93-7.3,63.57-16.85,94.07-28.4c22.63-8.53,45.28-18.37,67.29-29.28c1.71-0.82,3.81-0.16,4.65,1.57
				c0.85,1.72,0.15,3.8-1.57,4.65c-22.23,11.01-45.08,20.95-67.92,29.55c-30.79,11.67-62.74,21.32-94.94,28.67
				c-31.42,7.44-64.9,13.07-99.5,16.75C661.52,809.75,630.9,811.26,600.05,811.26z" class="st6"></path>
		</g>
		<g>
			<path d="M600.05,902.46c-25.3,0-50.74-1.59-75.61-4.74c-29.97-3.72-59.99-9.88-89.2-18.33
				c-30.31-8.7-59.64-19.89-87.14-33.24c-22.27-10.76-43.26-22.92-62.38-36.14c-1.04-0.6-1.74-1.72-1.74-2.98
				c0-1.92,1.5-3.47,3.42-3.47h0.11c0.71,0,1.4,0.21,1.98,0.61c18.88,13.06,39.62,25.09,61.65,35.73
				c27.14,13.18,56.09,24.22,86.03,32.82c28.87,8.34,58.51,14.43,88.14,18.1c24.6,3.12,49.73,4.7,74.74,4.7
				c26.16,0,50.58-1.33,74.68-4.04c28.65-3.29,56.65-8.78,85.61-16.79c28.44-8.09,57.92-18.77,90.09-32.66
				c14.97-6.42,31.2-13.72,49.62-22.35c1.72-0.82,3.8-0.06,4.62,1.68c0.81,1.73,0.06,3.81-1.68,4.62
				c-18.49,8.64-34.78,15.99-49.82,22.42c-32.44,14-62.2,24.79-90.96,32.97c-29.33,8.12-57.69,13.68-86.7,17.01
				C651.15,901.13,626.47,902.46,600.05,902.46z" class="st6"></path>
		</g>
		<g>
			<path d="M538.81,970.62c-1.63,0-3.08-1.14-3.41-2.81c-4.72-24.27-9.44-48.53-13.94-72.9
				c-6.78-37.11-11.59-65.57-15.6-92.29c-5.85-39.19-10.06-74.01-12.87-106.45c-3.08-34.56-4.63-65.99-4.73-96.09
				c-0.11-2.55-0.11-5.12-0.11-7.8c0-32.85,1.63-67.77,4.84-103.8c2.96-34.15,7.17-69,12.87-106.55c4.4-29.36,9.51-59.52,15.6-92.19
				c3.62-19.97,7.46-39.95,11.3-59.94c0.36-1.88,2.14-3.14,4.07-2.76c1.88,0.36,3.11,2.18,2.75,4.07
				c-3.84,19.96-7.67,39.92-11.29,59.88c-6.09,32.61-11.17,62.69-15.57,91.97c-5.67,37.41-9.87,72.12-12.81,106.12
				c-3.2,35.83-4.82,70.54-4.82,103.19c0,2.59,0,5.06,0.11,7.66c0.11,30.02,1.65,61.26,4.71,95.63
				c2.8,32.31,6.99,66.99,12.81,106.04c4,26.65,8.81,55.04,15.57,92.07c4.49,24.34,9.21,48.59,13.93,72.84
				c0.37,1.88-0.86,3.7-2.75,4.07C539.25,970.6,539.03,970.62,538.81,970.62z" class="st6"></path>
		</g>
		<g>
			<path d="M468.14,954.48c-1.3,0-2.55-0.73-3.14-1.99c-12.11-25.67-22.89-50.97-32.04-75.21
				c-11.93-31.58-21.51-62.22-29.31-93.68c-8.18-32.8-14.02-65.65-17.86-100.42c-2.97-27.07-4.52-54.25-4.74-83.1
				c-0.11-2.45-0.11-5.14-0.11-7.82c0-31.13,1.55-61.67,4.62-90.79c3.53-34.52,9.13-68.23,16.64-100.19
				c7.42-31.69,16.96-63,28.35-93.06c7.03-18.89,15.04-37.92,23.81-56.55c0.81-1.74,2.87-2.48,4.62-1.67
				c1.73,0.82,2.48,2.89,1.66,4.62c-8.68,18.45-16.62,37.3-23.59,56.03c-11.28,29.79-20.73,60.8-28.08,92.2
				c-7.44,31.67-13,65.09-16.49,99.32c-3.04,28.88-4.59,59.19-4.59,90.07c0,2.59,0,5.17,0.11,7.65c0.23,28.73,1.76,55.68,4.7,82.52
				c3.81,34.45,9.59,67,17.7,99.5c7.73,31.19,17.24,61.58,29.06,92.9c9.09,24.07,19.8,49.21,31.82,74.71
				c0.82,1.73,0.08,3.81-1.66,4.62C469.15,954.37,468.63,954.48,468.14,954.48z" class="st6"></path>
		</g>
		<g>
			<path d="M387.48,912.34c-1.1,0-2.19-0.52-2.86-1.5c-14.09-20.5-26.92-42.8-38.13-66.31
				c-13.32-27.88-24.61-57.79-33.57-88.88c-8.26-28.62-14.34-58.18-18.11-87.88c-3-22.27-4.64-45.05-4.85-67.68
				c-0.12-2.57-0.12-5.14-0.12-7.82c0-26.21,1.33-50.79,4.08-75.12c3.43-30.27,9.1-58.96,17.34-87.71
				c7.63-27.2,17.73-55.45,30.87-86.33c4.4-10.44,9.13-21.11,13.96-31.89l0.01,0c0.57-1.25,1.85-2.17,3.28-2.17
				c1.92,0,3.47,1.56,3.47,3.47c0,0.74-0.22,1.42-0.62,1.99c-4.75,10.57-9.38,21.04-13.7,31.3c-13.03,30.61-23.03,58.59-30.58,85.52
				c-8.14,28.39-13.74,56.71-17.12,86.59c-2.71,24.08-4.04,48.4-4.04,74.35c0,2.59,0,5.06,0.12,7.64
				c0.21,22.46,1.82,44.95,4.8,66.96c3.72,29.36,9.74,58.58,17.89,86.86c8.86,30.73,20.02,60.28,33.16,87.82
				c11.07,23.18,23.71,45.17,37.59,65.36c1.09,1.58,0.69,3.74-0.89,4.83C388.85,912.14,388.16,912.34,387.48,912.34z" class="st6"></path>
		</g>
		<g>
			<path d="M661.28,970.62c-0.22,0-0.45-0.02-0.67-0.06c-1.88-0.37-3.11-2.2-2.74-4.08
				c4.72-24.03,9.33-48.06,13.83-72.19c6.11-33.27,11.2-63.21,15.56-91.53c6.11-41.42,10.21-75.45,12.93-107.09
				c3.06-34.29,4.59-65.56,4.71-95.63c0.11-2.72,0.11-5.19,0.11-7.78c0-33.13-1.58-66.95-4.82-103.4
				c-2.82-32.81-7.11-67.81-13.14-107c-4.15-27.54-9.06-56.62-15.47-91.54c-3.61-19.74-7.35-39.48-11.18-59.22
				c-0.37-1.88,0.86-3.71,2.75-4.07c1.95-0.39,3.71,0.87,4.07,2.75c3.84,19.77,7.57,39.53,11.2,59.3
				c6.41,34.99,11.33,64.14,15.49,91.74c6.06,39.33,10.37,74.48,13.2,107.44c3.26,36.64,4.84,70.66,4.84,104
				c0,2.68,0,5.25-0.11,7.93c-0.11,30.15-1.66,61.61-4.73,96.09c-2.72,31.77-6.85,65.94-12.98,107.52
				c-4.38,28.4-9.49,58.41-15.6,91.76c-4.51,24.16-9.12,48.2-13.84,72.25C664.37,969.47,662.91,970.62,661.28,970.62z" class="st6"></path>
		</g>
		<g>
			<path d="M731.3,954.48c-0.48,0-0.97-0.1-1.43-0.31c-1.75-0.79-2.52-2.85-1.72-4.59
				c11.37-25.01,21.42-49.48,29.86-72.73c11.18-30.25,20.75-60.9,28.43-91.08c8.86-34.22,15.55-68.89,19.89-103.07
				c3.46-28.17,5.37-55.99,5.69-82.68c0.12-3.12,0.12-6.15,0.12-9.18c0-29.74-1.47-59.69-4.38-88.98
				c-3.61-35.23-9.39-69.64-17.15-102.26c-7.26-30.97-16.52-61.36-27.52-90.33c-7.06-18.92-14.74-37.18-22.83-54.29
				c-0.99-1.64-0.76-4.5,0.88-5.49c1.67-1,3.48-1.17,4.47,0.46c0.35,0.59,0.63,1.25,0.87,1.88c8.23,17.47,15.99,35.91,23.11,54.99
				c11.1,29.24,20.45,59.92,27.78,91.18c7.83,32.91,13.65,67.62,17.31,103.16c2.92,29.54,4.4,59.71,4.4,89.68
				c0,3.12,0,6.23-0.12,9.35c-0.32,26.85-2.25,54.94-5.73,83.37c-4.38,34.48-11.13,69.44-20.06,103.93
				c-7.74,30.41-17.38,61.28-28.64,91.74c-8.5,23.4-18.62,48.05-30.06,73.21C733.88,953.73,732.62,954.48,731.3,954.48z" class="st6"></path>
		</g>
		<g>
			<path d="M817.01,909.26c-0.68,0-1.37-0.19-1.97-0.61c-1.58-1.09-1.98-3.25-0.89-4.83
				c12.76-18.54,24.37-38.76,34.51-60.1c12.87-26.73,23.73-55.86,32.28-86.58c8.15-28.73,14.13-59.05,17.78-90.12
				c2.68-22.31,4.16-44.85,4.37-67c0.11-2.59,0.11-5.17,0.11-7.76c0-26.62-1.36-51.11-4.15-74.87c-3.45-30.76-9.34-60.15-18-89.87
				c-7.93-27.48-18-55-31.68-86.61c-3.68-8.77-7.56-17.5-11.54-26.44c-0.38-0.56-0.59-1.23-0.59-1.94c0-1.92,1.55-3.47,3.47-3.47
				c1.42,0,2.7,0.92,3.28,2.18v0c4.07,9.13,8.03,18.04,11.77,26.96c13.8,31.85,23.96,59.64,31.96,87.4
				c8.77,30.1,14.73,59.87,18.23,91.01c2.82,24.01,4.19,48.77,4.19,75.67c0,2.68,0,5.37-0.11,7.94c-0.21,22.3-1.7,45.1-4.41,67.65
				c-3.7,31.43-9.75,62.11-18,91.18c-8.65,31.1-19.65,60.61-32.7,87.69c-10.29,21.66-22.09,42.2-35.06,61.04
				C819.2,908.74,818.12,909.26,817.01,909.26z" class="st6"></path>
		</g>
		<g>
			<path d="M600.05,978.41c-1.92,0-3.47-1.55-3.47-3.47V225.07c0-1.92,1.55-3.47,3.47-3.47s3.47,1.56,3.47,3.47v749.87
				C603.52,976.86,601.97,978.41,600.05,978.41z" class="st6"></path>
		</g>
	</g>
</g>
</svg>
