<?xml version="1.0" standalone="no"?><!DOCTYPE svg PUBLIC "-//W3C//DTD SVG 1.1//EN" "http://www.w3.org/Graphics/SVG/1.1/DTD/svg11.dtd"><svg t="1636626409665" class="icon" viewBox="0 0 1024 1024" version="1.1" xmlns="http://www.w3.org/2000/svg" p-id="3610" xmlns:xlink="http://www.w3.org/1999/xlink" width="200" height="200"><defs><style type="text/css"></style></defs><path d="M484.725382 749.087908a108.50681 108.50681 0 0 1 0-217.01362 99.526207 99.526207 0 0 1 11.199339 0.633925v-23.032604a207.6104 207.6104 0 1 0-415.2208 0v23.032604a98.047049 98.047049 0 0 1 11.199339-0.633925 108.50681 108.50681 0 0 1 0 217.01362A98.047049 98.047049 0 0 1 80.703921 748.453983v67.935617a207.6104 207.6104 0 0 0 415.2208 0v-67.935617a99.526207 99.526207 0 0 1-11.199339 0.633925z" fill="#F8C44F" p-id="3611"></path><path d="M231.683698 0h42.261659v834.139496h-42.261659zM302.683285 0h42.261659v834.139496h-42.261659z" fill="#282D33" p-id="3612"></path><path d="M206.00974 143.478333h164.609162v42.261659H206.00974zM206.00974 72.373091h164.609162v42.261659H206.00974zM235.909864 1.373504h104.70326v42.261659h-104.70326zM206.00974 809.310772h164.609162v42.261659H206.00974z" fill="#282D33" p-id="3613"></path><path d="M534.171523 639.207594a47.544366 47.544366 0 1 1-47.544367-47.544367 47.544366 47.544366 0 0 1 47.544367 47.544367z" fill="#34CA9D" p-id="3614"></path><path d="M486.627156 753.631036A114.423442 114.423442 0 1 1 601.050598 639.207594a114.63475 114.63475 0 0 1-114.423442 114.423442z m0-186.585225a72.161783 72.161783 0 1 0 72.161783 72.161783 72.267437 72.267437 0 0 0-72.161783-72.161783z" fill="#282D33" p-id="3615"></path><path d="M819.015105 543.801898a47.544366 47.544366 0 1 1-47.544366-47.544366 47.438712 47.438712 0 0 1 47.544366 47.544366z" fill="#34CA9D" p-id="3616"></path><path d="M771.470739 658.22534a114.423442 114.423442 0 1 1 114.529096-114.423442A114.529096 114.529096 0 0 1 771.470739 658.22534z m0-186.585224a72.161783 72.161783 0 1 0 72.267437 72.161782 72.267437 72.267437 0 0 0-72.267437-72.161782z" fill="#282D33" p-id="3617"></path><path d="M600.627982 649.5617h-42.261659V261.388362l327.527858-119.177879v403.49319h-42.261659V202.539001l-243.00454 88.432522v358.590177z" fill="#282D33" p-id="3618"></path><path d="M643.586958 319.709451l285.266199-103.752373 14.442922 39.704829-285.266199 103.773504z" fill="#282D33" p-id="3619"></path></svg>