<?xml version="1.0" standalone="no"?><!DOCTYPE svg PUBLIC "-//W3C//DTD SVG 1.1//EN" "http://www.w3.org/Graphics/SVG/1.1/DTD/svg11.dtd"><svg t="1640831998269" class="icon" viewBox="0 0 1024 1024" version="1.1" xmlns="http://www.w3.org/2000/svg" p-id="4367" xmlns:xlink="http://www.w3.org/1999/xlink" width="200" height="200"><defs><style type="text/css"></style></defs><path d="M173.3 648.5l541.8-541.8c9-9 23.5-9 32.5 0L874 233.1c9 9 9 23.5 0 32.5L331.7 808.1c-5.2 5.2-11.7 9.1-18.8 11.1l-197.4 57.1c-6.7 1.9-12.9-4.3-10.9-11l57.6-198c2.1-7.1 5.9-13.5 11.1-18.8z" fill="#FFCC00" p-id="4368"></path><path d="M587.4 211.7c-1.9 0-3.7-0.7-5.1-2.1-2.8-2.8-2.8-7.4 0-10.2l1.1-1.1c2.8-2.8 7.4-2.8 10.2 0s2.8 7.4 0 10.2l-1.1 1.1c-1.4 1.4-3.3 2.1-5.1 2.1zM83 883.9c-4.2 0-8.3-1.7-11.4-4.7-4.1-4.1-5.7-10.2-4-15.8l57.6-198c2.4-8.2 6.9-15.8 12.9-21.8l423.3-423.3c2.8-2.8 7.4-2.8 10.2 0 2.8 2.8 2.8 7.4 0 10.2L148.4 653.7c-4.3 4.4-7.6 9.8-9.3 15.7l-57.6 198c-0.2 0.8 0.1 1.3 0.4 1.6 0.3 0.3 0.8 0.6 1.6 0.4l197.4-57.1c5.9-1.7 11.4-4.9 15.7-9.3l314.2-314.2c2.8-2.8 7.4-2.8 10.2 0s2.8 7.4 0 10.2L306.8 813.2c-6.1 6.1-13.7 10.6-21.9 13l-197.4 57c-1.5 0.4-3 0.7-4.5 0.7zM669.3 447.7c-1.9 0-3.7-0.7-5.1-2.1-2.8-2.8-2.8-7.4 0-10.2L839 260.6c3-3 4.6-6.9 4.6-11.1 0-4.2-1.6-8.2-4.6-11.1L712.5 111.9c-6.2-6.2-16.1-6.1-22.3 0l-53.4 53.4c-2.8 2.8-7.4 2.8-10.2 0-2.8-2.8-2.8-7.4 0-10.2l53.4-53.4c11.8-11.8 31-11.8 42.7 0l126.4 126.4c5.7 5.7 8.8 13.3 8.8 21.4 0 8.1-3.1 15.7-8.8 21.4L674.4 445.6c-1.4 1.4-3.3 2.1-5.1 2.1z" p-id="4369"></path><path d="M294.6 810.4c-1.9 0-3.7-0.7-5.1-2.1l-85.9-85.9c-2.8-2.8-2.8-7.4 0-10.2 2.8-2.8 7.4-2.8 10.2 0l85.9 85.9c2.8 2.8 2.8 7.4 0 10.2-1.4 1.4-3.2 2.1-5.1 2.1zM179.8 695.6c-1.9 0-3.7-0.7-5.1-2.1l-38.2-38.2c-2.8-2.8-2.8-7.4 0-10.2 2.8-2.8 7.4-2.8 10.2 0l38.2 38.2c2.8 2.8 2.8 7.4 0 10.2-1.4 1.4-3.2 2.1-5.1 2.1z" p-id="4370"></path><path d="M953.1 929.5h-94c-43.4 0-43.4-40.1-43.4-72.3 0-39.3-2.9-57.9-28.9-57.9-23.8 0-26.8 21.2-29.6 55.9-2.7 33.1-6.1 74.3-49.9 74.3s-47.2-41.2-49.9-74.3c-2.9-34.7-5.8-55.9-29.6-55.9-24.5 0-26.9 22.1-28.9 58.3-1.8 32-4 71.9-43.4 71.9H85.2c-4 0-7.2-3.2-7.2-7.2s3.2-7.2 7.2-7.2h470.1c24.5 0 26.9-22.1 28.9-58.3 1.8-32 4-71.9 43.4-71.9 38.4 0 41.4 36.7 44.1 69.2 3.1 38 7.1 61 35.5 61s32.4-23.1 35.5-61c2.7-32.4 5.7-69.2 44.1-69.2 43.4 0 43.4 40.1 43.4 72.3 0 39.3 2.9 57.9 28.9 57.9h94c4 0 7.2 3.2 7.2 7.2s-3.2 7.2-7.2 7.2z" fill="#FFCC00" p-id="4371"></path><path d="M938.7 922.3h-94c-43.4 0-43.4-40.1-43.4-72.3 0-39.3-2.9-57.9-28.9-57.9-21.3 0-26.3 16.1-29.3 52.1-0.3 4-3.9 7-7.8 6.6-4-0.3-6.9-3.8-6.6-7.8 2.3-27.6 5.5-65.4 43.7-65.4 43.4 0 43.4 40.1 43.4 72.3 0 39.3 2.9 57.9 28.9 57.9h94c4 0 7.2 3.2 7.2 7.2 0 4.1-3.2 7.3-7.2 7.3zM692.8 922.3c-43.8 0-47.2-41.2-49.9-74.3-2.9-34.7-5.8-55.9-29.6-55.9-24.5 0-26.9 22.1-28.9 58.3-1.8 32-4 71.9-43.4 71.9H425.2c-4 0-7.2-3.2-7.2-7.2s3.2-7.2 7.2-7.2h115.7c24.5 0 26.9-22.1 28.9-58.3 1.8-32 4-71.9 43.4-71.9 38.4 0 41.4 36.7 44.1 69.2 3.1 38 7.1 61 35.5 61 12.9 0 21.1-4.5 26.4-14.6 1.9-3.5 6.3-4.9 9.8-3 3.5 1.9 4.9 6.2 3 9.8-7.9 14.7-21.1 22.2-39.2 22.2zM352.8 922.3H349c-4 0-7.2-3.2-7.2-7.2s3.2-7.2 7.2-7.2h3.8c4 0 7.2 3.2 7.2 7.2 0.1 4-3.2 7.2-7.2 7.2zM312.8 922.3h-242c-4 0-7.2-3.2-7.2-7.2s3.2-7.2 7.2-7.2h242.1c4 0 7.2 3.2 7.2 7.2s-3.3 7.2-7.3 7.2z" p-id="4372"></path></svg>