<svg xml:space="preserve" style="enable-background:new 0 0 1200 1200;" viewBox="0 0 1200 1200" y="0px" x="0px" xmlns:xlink="http://www.w3.org/1999/xlink" xmlns="http://www.w3.org/2000/svg" id="图层_1" version="1.1">
<style type="text/css">
	.st0{fill:#FFFFFF;}
	.st1{fill:#060001;}
	.st2{clip-path:url(#SVGID_2_);}
	.st3{fill:#7BCEFF;}
	.st4{fill:#040000;}
	.st5{fill:#4A395B;}
	.st6{fill:#F8DFD6;}
	.st7{fill:#FFEA5F;}
	.st8{fill:#FF6464;}
	.st9{fill:#3991FF;}
	.st10{fill:#FF80A6;}
	.st11{fill:#76479D;}
</style>
<g>
	<circle r="600.65" cy="599.91" cx="601.11" class="st0"></circle>
	<g>
		<path d="M600.46,1201.15c-81.17,0-159.92-15.9-234.05-47.25c-71.6-30.28-135.91-73.64-191.13-128.86
			c-55.22-55.22-98.58-119.53-128.86-191.13C15.07,759.77-0.83,681.03-0.83,599.86c0-81.17,15.9-159.92,47.25-234.05
			c30.29-71.6,73.64-135.91,128.86-191.13c55.22-55.22,119.52-98.58,191.13-128.86C440.55,14.47,519.29-1.43,600.46-1.43
			c81.17,0,159.92,15.9,234.05,47.25c71.6,30.29,135.91,73.64,191.13,128.86c55.22,55.22,98.58,119.52,128.86,191.13
			c31.36,74.13,47.25,152.88,47.25,234.05c0,81.17-15.9,159.92-47.25,234.05c-30.28,71.6-73.64,135.91-128.86,191.13
			c-55.22,55.22-119.53,98.58-191.13,128.86C760.38,1185.25,681.64,1201.15,600.46,1201.15z M600.46,4.57
			c-80.36,0-158.32,15.74-231.71,46.78c-70.89,29.98-134.55,72.91-189.22,127.58c-54.67,54.67-97.59,118.33-127.58,189.22
			C20.91,441.53,5.17,519.49,5.17,599.86c0,80.37,15.74,158.32,46.78,231.71c29.98,70.89,72.91,134.55,127.58,189.22
			c54.67,54.67,118.33,97.59,189.22,127.58c73.39,31.04,151.35,46.78,231.71,46.78c80.37,0,158.32-15.74,231.71-46.78
			c70.89-29.98,134.55-72.91,189.22-127.58c54.67-54.67,97.59-118.33,127.58-189.22c31.04-73.39,46.78-151.35,46.78-231.71
			c0-80.36-15.74-158.32-46.78-231.71c-29.98-70.89-72.91-134.55-127.58-189.22c-54.67-54.67-118.33-97.59-189.22-127.58
			C758.79,20.31,680.83,4.57,600.46,4.57z" class="st1"></path>
	</g>
</g>
<g>
	<defs>
		<circle r="595.75" cy="600" cx="600" id="SVGID_1_"></circle>
	</defs>
	<clipPath id="SVGID_2_">
		<use style="overflow:visible;" xlink:href="#SVGID_1_"></use>
	</clipPath>
	<g class="st2">
		<g>
			<g>
				<g>
					<path d="M493.27,672.62H249.66c-2.01,0-3.65-1.64-3.65-3.65v-116.9c0-2.01,1.64-3.65,3.65-3.65h243.61
						c2.01,0,3.65,1.64,3.65,3.65v116.9C496.92,670.98,495.27,672.62,493.27,672.62z" class="st3"></path>
				</g>
				<g>
					<path d="M475.36,674.69H267.57c-13.03,0-23.63-10.6-23.63-23.63v-81.08c0-13.03,10.6-23.63,23.63-23.63h207.79
						c13.02,0,23.62,10.6,23.62,23.63v81.08C498.98,664.09,488.38,674.69,475.36,674.69z M267.57,550.49
						c-10.75,0-19.5,8.74-19.5,19.5v81.08c0,10.75,8.74,19.5,19.5,19.5h207.79c10.75,0,19.49-8.74,19.49-19.5v-81.08
						c0-10.75-8.74-19.5-19.49-19.5H267.57z" class="st4"></path>
				</g>
			</g>
			<g>
				<g>
					<rect height="124.2" width="181.43" class="st5" y="548.42" x="280.75"></rect>
				</g>
				<g>
					<path d="M464.24,674.69H278.68V546.36h185.56V674.69z M282.81,670.56h177.3V550.49h-177.3V670.56z"></path>
				</g>
			</g>
		</g>
		<g>
			<g>
				<path d="M288.63,432.19c0,0,53.56,49.07,15.68,63.6" class="st6"></path>
			</g>
			<g>
				<path d="M304.3,497.86c-0.83,0-1.62-0.5-1.93-1.33c-0.41-1.07,0.13-2.26,1.19-2.67c7.01-2.69,10.92-6.63,11.95-12.04
					c3.55-18.67-27.97-47.82-28.29-48.11c-0.84-0.77-0.9-2.08-0.13-2.92c0.77-0.85,2.08-0.9,2.92-0.13
					c1.37,1.25,33.53,31,29.56,51.93c-1.3,6.84-6.19,11.93-14.54,15.13C304.8,497.82,304.55,497.86,304.3,497.86z"></path>
			</g>
		</g>
		<g>
			<g>
				<path d="M308.85,551.09c-1.65,9.51-4.78,17.96-9.45,24.99c-25.63,38.39-43,46.13-46.31,68.28
					c-0.59,3.72-0.71,7.91-0.47,12.7c0.53,9.51-6.67,14.71-17.19,17.19c-26.05,6.32-72.59-3.6-72.59-3.6l-47.37-7.8l-34.85-5.79
					l5.67-123.39l7.32-160.36l159.01-20.61c29,54.7,55.29,121.03,57.71,171.11C310.8,533.61,310.39,542.77,308.85,551.09z" class="st6"></path>
			</g>
			<g>
				<path d="M213.79,678.44c-23.94,0-49.94-5.46-51.38-5.77L80.28,659.1c-1.03-0.17-1.77-1.09-1.72-2.13l12.99-283.76
					c0.05-1,0.8-1.83,1.8-1.96l159.01-20.61c0.84-0.1,1.69,0.32,2.09,1.08c34.7,65.46,55.82,128.14,57.94,171.98
					c0.5,10.29-0.01,19.63-1.51,27.76c-1.74,9.96-5.02,18.63-9.76,25.76c-10.48,15.68-19.58,26.29-26.89,34.81
					c-10.75,12.51-17.23,20.07-19.11,32.64c-0.54,3.43-0.69,7.44-0.44,12.29c0.37,6.69-2.58,15.48-18.78,19.31
					C229.4,677.84,221.7,678.44,213.79,678.44z M82.78,655.32l80.4,13.28c0.55,0.12,46.5,9.77,71.77,3.64
					c10.94-2.58,16.04-7.51,15.61-15.07c-0.25-5.15-0.09-9.44,0.49-13.13c2.05-13.73,9.21-22.08,20.06-34.71
					c7.24-8.43,16.25-18.93,26.58-34.4c4.42-6.66,7.49-14.8,9.13-24.19c0-0.01,0-0.02,0.01-0.02c1.44-7.82,1.92-16.84,1.44-26.82
					c-2.08-42.97-22.77-104.5-56.8-168.98L95.6,375.13L82.78,655.32z"></path>
			</g>
		</g>
		<g>
			<g>
				<path d="M252.62,657.06c0.53,9.51-6.67,14.71-17.19,17.19l-119.96-11.4l-48.59-28.53v-125.3l49.36,45.97
					c-9.33,14.41-5.73,48.14,20.5,63.56c24.87,14.59,86.59,27.35,116.36,25.81C252.5,648.08,252.39,652.27,252.62,657.06z"></path>
			</g>
			<g>
				<path d="M235.44,676.31c-0.06,0-0.13,0-0.2-0.01l-119.97-11.4l-34.99-5.81c-1.03-0.17-1.77-1.09-1.72-2.13l5.67-123.39
					c0.03-0.76,0.48-1.44,1.16-1.77c0.69-0.33,1.49-0.26,2.11,0.17l29.94,21.32c0.9,0.64,1.14,1.88,0.54,2.81
					c-4.39,6.78-5.54,18.26-2.95,29.24c3.2,13.51,11.28,24.66,22.76,31.41c24.92,14.62,87.02,26.99,115.2,25.53
					c0.58-0.01,1.22,0.22,1.64,0.68c0.42,0.47,0.61,1.09,0.51,1.71c-0.54,3.41-0.69,7.42-0.44,12.27
					c0.37,6.7-2.59,15.48-18.78,19.31C235.75,676.3,235.6,676.31,235.44,676.31z M82.78,655.32l33.03,5.49l119.48,11.35
					c10.69-2.6,15.69-7.5,15.27-14.99c0-0.01,0-0.01,0-0.01c-0.2-4.03-0.14-7.53,0.17-10.64c-30.27,0.78-89.8-11.37-115.04-26.19
					c-12.47-7.33-21.23-19.41-24.69-34.02c-2.69-11.36-1.72-22.91,2.49-30.74l-25.31-18.02L82.78,655.32z"></path>
			</g>
		</g>
		<g>
			<g>
				<path d="M238.47,427.56c-0.5,0-1-0.12-1.47-0.39c-1.41-0.81-1.91-2.61-1.1-4.03c13.08-22.91,35.42-16.02,35.65-15.95
					c1.55,0.5,2.39,2.15,1.9,3.71c-0.49,1.54-2.12,2.41-3.7,1.92c-0.74-0.23-18.05-5.41-28.71,13.25
					C240.48,427.03,239.49,427.56,238.47,427.56z"></path>
			</g>
		</g>
		<g>
			<g>
				<path d="M66.16,261.07c49.79-32.72,109.04-29.75,129.41,9.95s44.12,3.16,75.07,22.49
					c22.51,14.06,21.31,43.51,0,67.61c-24.43,27.63-8.9,78.65-44.22,84.57c-49.5,8.29-56.44,40.24-42.48,81.52
					c13.96,41.28-47.15,45.8-85.63,28.83c-38.48-16.97-52.25-92.05-52.25-92.05L66.16,261.07z" class="st7"></path>
			</g>
			<g>
				<path d="M143.06,567.31c-15.45,0-32.2-3.47-45.59-9.38c-39.38-17.37-33.19-92.52-32.91-95.71l-0.47-201.14
					c-0.01-0.7,0.35-1.35,0.93-1.73c30.21-19.85,64.86-27.32,92.71-19.98c18.09,4.77,31.82,15.39,39.68,30.72
					c10.92,21.28,22.29,19.36,36.66,16.95c11.11-1.87,23.7-3.99,37.67,4.73c9.56,5.97,15.44,14.8,17,25.53
					c2.1,14.46-3.93,30.93-16.55,45.21c-10.07,11.39-13.1,26.91-16.04,41.93c-3.99,20.41-7.75,39.69-29.39,43.32
					c-20.34,3.41-34.23,11.12-41.29,22.92c-7.83,13.08-7.68,31.88,0.43,55.89c5.27,15.58-0.21,24.87-5.73,29.92
					C171.91,564.02,158.1,567.31,143.06,567.31z M68.23,262.19l-50.6,201.8c-0.07,0.94,44.83,73.98,81.51,90.15
					c25.22,11.13,62.68,13.48,78.23-0.73c6.71-6.14,8.25-14.73,4.6-25.54c-8.52-25.21-8.54-45.17-0.06-59.34
					c7.72-12.89,22.57-21.26,44.16-24.88c18.82-3.15,22.15-20.24,26.02-40.03c2.9-14.83,6.18-31.64,16.99-43.87
					c11.81-13.36,17.48-28.62,15.55-41.87c-1.38-9.49-6.6-17.31-15.1-22.62c-12.64-7.89-23.91-5.99-34.79-4.16
					c-14.79,2.48-28.72,4.83-41.02-19.14c-7.31-14.25-20.13-24.15-37.05-28.61C130.23,236.39,97.25,243.43,68.23,262.19z" class="st4"></path>
			</g>
		</g>
		<g>
			<g>
				<path d="M284.31,464.3l-15.96,5.52c-0.89,0.31-1.88-0.17-2.19-1.06l-10.25-29.64c-0.31-0.89,0.17-1.88,1.06-2.19l15.96-5.52
					c0.89-0.31,1.88,0.17,2.19,1.06l10.25,29.64C285.68,463,285.2,463.99,284.31,464.3z"></path>
			</g>
			<g>
				<path d="M273.02,469.68c-5.07,0-9.82-3.18-11.57-8.23l-4.73-13.69c-1.06-3.07-0.86-6.39,0.57-9.34s3.91-5.15,6.99-6.22
					c6.36-2.21,13.34,1.19,15.56,7.56l4.73,13.69c2.2,6.37-1.19,13.35-7.56,15.55l0,0C275.69,469.47,274.34,469.68,273.02,469.68z
					 M276.33,467.06h0.05H276.33z M268.27,435.68c-0.88,0-1.77,0.14-2.64,0.44c-2.03,0.7-3.67,2.17-4.63,4.12
					c-0.95,1.95-1.08,4.15-0.37,6.18l4.73,13.69c1.46,4.22,6.1,6.46,10.3,5c4.22-1.46,6.46-6.08,5-10.3l-4.73-13.68
					C274.77,437.78,271.62,435.68,268.27,435.68z"></path>
			</g>
		</g>
		<g>
			<g>
				<path d="M204.38,481.4c-29.25-11.48-58.2,21.03-38.67,51.45c19.43,30.28,60.72,12.23,60.72-9.1" class="st6"></path>
			</g>
			<g>
				<path d="M194.08,550.94c-10.56,0-22.09-4.44-30.12-16.96c-11.26-17.55-6.67-34.29,1.38-44.11
					c9.81-11.94,25.43-16.02,39.79-10.39c1.06,0.42,1.59,1.62,1.17,2.68c-0.42,1.06-1.63,1.58-2.68,1.17
					c-12.68-4.96-26.44-1.38-35.08,9.16c-7.13,8.69-11.16,23.56-1.1,39.25c8.22,12.81,21.77,17.93,36.25,13.68
					c11.97-3.51,20.66-12.62,20.66-21.66c0-1.14,0.92-2.07,2.07-2.07c1.14,0,2.07,0.93,2.07,2.07c0,10.83-9.93,21.61-23.63,25.63
					C201.53,550.36,197.86,550.94,194.08,550.94z"></path>
			</g>
		</g>
		<g>
			<g>
				<path d="M630.59,1086.47c-38.22,55.23-85.47,49.32-126.11,40.99c-15.24-3.72-33.02-12.64-49.79-22.68
					c-31.66-18.96-59.72-41.94-59.72-41.94s50.97-19.08,87.42-49.02c26.17-21.5,52.63-58.3,65.5-77.44
					c5.14-7.5,8.09-12.29,8.09-12.29s-12.58-9.21-51.15-42.76c10.69-37.09-11.22-154.64-11.22-154.64s0,0-18.43-2.54
					c-31.13-6.73-62.67-18.31-58.89-38.1c3.78-19.85,36.98-2.84,56.88-4.31c16.72-1.3,29.36-9.16,32.19-55.7
					c2.24-74.01-26.4-83.34-73.54-78.68c-28.71-13.94-9.39-31.19,18.96-32.55c15.3,0.24,22.09,0.41,42.82,2.24
					c-23.69-4.31-25.75-22.21-18.25-24.45c5.2-1.48,24.81-7.8,51.33,9.75c-14.59-11.16,4.61-17.96,23.74-8.92
					c9.57,4.49,24.57,23.51,33.55,37.8c-3.84-11.81,29.77-35.74,31.6,55.46c1.83,92.08-34.44,120.5-34.44,120.5
					s40.11,78.79,66.15,201C666.38,1006.73,648.31,1052.51,630.59,1086.47z" class="st6"></path>
			</g>
		</g>
		<g>
			<g>
				<path d="M547.9,936.38c0.71,51.21-35.85,136.21-93.21,168.4c-31.66-18.96-59.72-41.94-59.72-41.94s50.97-19.08,87.42-49.02
					C508.56,992.32,535.02,955.52,547.9,936.38z"></path>
			</g>
			<g>
				<path d="M454.69,1106.85c-0.37,0-0.73-0.1-1.06-0.29c-31.43-18.82-59.68-41.88-59.97-42.11c-0.57-0.47-0.85-1.21-0.73-1.93
					c0.12-0.73,0.62-1.34,1.32-1.6c0.51-0.19,51.08-19.31,86.83-48.68c25.9-21.28,51.9-57.38,65.11-76.99
					c0.5-0.75,1.44-1.08,2.3-0.83c0.87,0.26,1.47,1.05,1.48,1.96c0.77,55.07-37.76,138.52-94.26,170.23
					C455.39,1106.76,455.04,1106.85,454.69,1106.85z M399.05,1063.46c7.72,6.12,30.59,23.8,55.67,38.92
					c54.76-31.49,88.5-110.78,90.97-159.1c-14.16,20.52-38.06,52.47-61.99,72.13C452.79,1040.82,411.06,1058.62,399.05,1063.46z"></path>
			</g>
		</g>
		<g>
			<g>
				<path d="M308.85,551.09c-10.81-3.01-27.7-8.56-28.53-14.06c-1.12-8.03,4.61-7.38,11.99-7.38
					c5.08,0,11.64-1.12,18.02-5.85C310.8,533.61,310.39,542.77,308.85,551.09z" class="st8"></path>
			</g>
			<g>
				<path d="M308.85,553.16c-0.18,0-0.37-0.02-0.55-0.08c-28.86-8.05-29.74-13.84-30.02-15.75
					c-0.45-3.19,0.03-5.52,1.46-7.15c2.34-2.66,6.41-2.62,11.05-2.61l1.53,0.01c6.26,0,11.91-1.83,16.79-5.44
					c0.61-0.46,1.44-0.53,2.11-0.21c0.69,0.33,1.15,1.01,1.18,1.77c0.5,10.3-0.01,19.64-1.51,27.77c-0.1,0.57-0.44,1.07-0.93,1.38
					C309.62,553.06,309.24,553.16,308.85,553.16z M289.4,531.7c-2.98,0-5.6,0.13-6.55,1.21c-0.58,0.66-0.74,1.96-0.48,3.84
					c0.07,0.48,1.41,4.95,24.83,11.73c0.99-6.29,1.38-13.31,1.19-20.94c-4.83,2.77-10.22,4.18-16.08,4.18l-1.55-0.01
					C290.3,531.71,289.85,531.7,289.4,531.7z" class="st4"></path>
			</g>
		</g>
		<g>
			<g>
				<polygon points="347.91,981.58 371.44,1189.18 80.59,1189.18 80.59,711.23 241.1,871.73" class="st0"></polygon>
			</g>
			<g>
				<path d="M371.45,1191.24H80.6c-1.14,0-2.07-0.92-2.07-2.06V711.23c0-0.84,0.5-1.59,1.27-1.91
					c0.77-0.31,1.66-0.14,2.25,0.45l160.5,160.5l106.83,109.86c0.32,0.33,0.52,0.76,0.57,1.21l23.54,207.6
					c0.07,0.58-0.12,1.17-0.51,1.61C372.59,1190.99,372.03,1191.24,371.45,1191.24z M82.66,1187.11h286.47l-23.2-204.6
					L239.61,873.18L82.66,716.22V1187.11z" class="st4"></path>
			</g>
		</g>
		<g>
			<g>
				<path d="M555.99,924.1c-83.7,139.28-225.46,180.27-225.46,180.27s-146.25-125.75-210.04-216.6
					c-9.86-14.06-17.72-27.23-22.8-38.98c-10.28-72.06-29.16-125.39-30.81-156.64c-1.36-24.93-0.81-46.1-0.81-46.1
					c71.88-20.91,200.02,9.48,222.59,30.33c3.01,20.85-8.45,27.17-8.45,27.17S512.75,884.88,555.99,924.1z" class="st0"></path>
			</g>
			<g>
				<path d="M330.53,1106.44c-0.49,0-0.97-0.17-1.35-0.5c-1.47-1.26-147.17-126.96-210.38-216.98
					c-10.37-14.78-18.11-28.02-23.01-39.36c-0.07-0.17-0.12-0.35-0.15-0.52c-10.29-72.14-14.39-123.98-16.02-154.76
					c-1.35-24.72-1.07-37.19-1.06-37.31c0.02-0.9,0.62-1.68,1.49-1.93c71.13-20.71,186.15-2.27,210.01,19.78
					c0.35,0.32,0.58,0.75,0.65,1.22c2.33,16.16-3.6,24.21-7.12,27.47c23.37,18.24,233.19,182.18,273.8,219.02
					c0.73,0.66,0.89,1.75,0.38,2.6c-83.15,138.37-225.22,180.78-226.65,181.19C330.92,1106.41,330.72,1106.44,330.53,1106.44z
					 M99.7,848.22c4.79,11.02,12.36,23.93,22.48,38.36c60.38,85.98,196.66,204.92,208.83,215.47
					c13.13-4.14,143.72-48.06,222.32-177.57c-45.77-40.97-272.09-217.52-274.39-219.31c-0.55-0.43-0.85-1.1-0.79-1.79
					c0.05-0.69,0.45-1.32,1.06-1.65c0.4-0.22,9.89-5.9,7.5-24.32c-21.97-18.95-146.08-63.84-219.83-43.09
					c-0.03,3.99-1.07,38.16,0,57.83C68.51,722.82,89.46,776.38,99.7,848.22z" class="st4"></path>
			</g>
		</g>
		<g>
			<g>
				<path d="M504.82,883.39c-0.17,0-0.35-0.02-0.53-0.07c-1.1-0.29-1.76-1.42-1.47-2.53c0.11-0.43,10.97-43.87-10.92-152.17
					c-27.86-2.82-63.59-11.79-74.85-28.15c-3.27-4.76-4.2-9.8-2.75-14.98c3.85-13.84,19.08-11.39,35.16-8.81
					c17.23,2.77,35.02,5.63,44.01-8.31c9.84-15.26,13.03-52.95,6.82-80.65c-3.52-15.74-9.6-26.68-17.55-31.63
					c-11.21-6.98-24.81-6.98-36.8-6.98c-15.06,0-29.29,0-30.01-16.33c-0.18-4.13,1.47-7.76,4.9-10.78
					c12.75-11.22,46.86-11.48,73.15-6.96c28.44,4.89,58.4,31.51,57.16,91.59c-0.02,1.14-0.96,1.86-2.11,2.02
					c-1.14-0.02-2.05-0.96-2.02-2.11c0.77-37.67-12.93-80.43-53.73-87.44c-30.51-5.24-59.82-2.72-69.71,5.99
					c-2.49,2.19-3.63,4.64-3.51,7.5c0.52,11.82,9.23,12.38,25.88,12.38c12.55,0,26.77,0,38.98,7.61
					c8.92,5.55,15.63,17.39,19.41,34.23c6.52,29.1,3.14,67.48-7.38,83.79c-10.45,16.21-30.47,13-48.13,10.16
					c-17.15-2.76-27.8-3.95-30.53,5.84c-1.11,4-0.4,7.78,2.18,11.52c9.97,14.5,44.03,23.77,73.37,26.53
					c0.91,0.09,1.65,0.76,1.83,1.64c22.54,110.59,11.64,153.77,11.16,155.56C506.58,882.78,505.74,883.39,504.82,883.39z"></path>
			</g>
		</g>
		<g>
			<g>
				<path d="M578.51,604.91c-0.07,0-0.15,0-0.23-0.01c-1.13-0.13-1.95-1.15-1.82-2.28c3.7-33.27-17.72-102.07-84-110.3
					c-8.46-1.05-17.78,0.07-18.65,6.34c-1.51,11.06,12.11,15.1,12.7,15.27c1.1,0.31,1.74,1.46,1.42,2.55
					c-0.31,1.1-1.43,1.74-2.55,1.42c-6.11-1.73-17.26-8.1-15.66-19.8c1.08-7.86,9.82-11.54,23.25-9.88
					c34.52,4.29,95.66,42.38,87.6,114.86C580.44,604.13,579.55,604.91,578.51,604.91z"></path>
			</g>
		</g>
		<g>
			<g>
				<path d="M597.89,602.76c-0.17,0-0.33-0.02-0.5-0.06c-1.11-0.28-1.78-1.4-1.51-2.51c9.42-37.67-23.26-97.04-51.68-107.34
					c-9.32-3.38-16.52-1.7-19.53,1.46c-0.81,0.85-2.03,2.6-1.12,4.76c0.44,1.05-0.06,2.26-1.11,2.71c-1.04,0.45-2.26-0.05-2.71-1.11
					c-1.3-3.12-0.58-6.56,1.94-9.21c3.65-3.84,12.12-6.78,23.93-2.5c33.17,12.02,63.61,74.95,54.29,112.23
					C599.66,602.14,598.82,602.76,597.89,602.76z"></path>
			</g>
		</g>
		<g>
			<g>
				<path d="M543.54,1134.71c-28.11,0-51.77-8.65-58.33-11.29c-36.1-14.53-80.84-51.08-81.28-51.45c-0.88-0.73-1.02-2.02-0.29-2.91
					c0.73-0.89,2.04-1.02,2.91-0.29c0.44,0.36,44.69,36.52,80.21,50.82c28.41,11.43,73.9,17.85,108.64-1.68
					c28.61-16.07,46.9-47.07,54.37-92.15c20.55-123.9-66.74-309.83-70.46-317.68c-0.42-0.88-0.17-1.93,0.6-2.52
					c29.87-23.21,42.68-127.78,26.72-169.08c-4.02-10.42-9.37-15.49-15.87-14.95c-1.37,0.1-2.24,0.76-2.83,2.11
					c-1.82,4.18,0.29,12.66,1.75,14.49c0.72,0.89,0.57,2.19-0.32,2.91c-0.89,0.71-2.19,0.57-2.91-0.32
					c-2.26-2.82-4.84-12.89-2.31-18.72c1.21-2.78,3.39-4.37,6.31-4.59c5.81-0.47,14.11,2.23,20.04,17.59
					c16.53,42.79,3.92,146.4-26.75,172.78c9.04,19.38,90.15,197.85,70.12,318.67c-7.69,46.36-26.67,78.36-56.42,95.07
					C579.75,1131.45,560.8,1134.71,543.54,1134.71z"></path>
			</g>
		</g>
		<g>
			<g>
				<path d="M588.05,983.64c-0.57,0-1.14-0.23-1.55-0.69c-15.28-17.26-39.34-44.28-39.34-44.28l3.09-2.75
					c0,0,24.06,27.02,39.34,44.28c0.76,0.86,0.68,2.16-0.17,2.92C589.02,983.47,588.54,983.64,588.05,983.64z"></path>
			</g>
		</g>
		<g>
			<g>
				<path d="M181.58,516.12c-0.48-24.56,26.83-15.34,26.83-15.34c9.49,3.23,6.97,17.79-2.41,18.17
					c-8.09,0.33-11.16-13.91-6-19.07" class="st6"></path>
			</g>
			<g>
				<path d="M205.72,521.03c-3.78,0-7-2.41-8.87-6.67c-1.67-3.83-2.09-9.19-0.22-13.18c-2.94,0.12-5.94,0.78-8.3,2.51
					c-3.22,2.37-4.8,6.54-4.69,12.4c0.02,1.14-0.88,2.09-2.02,2.11c-1.31-0.04-2.08-0.89-2.11-2.03c-0.14-7.29,2-12.61,6.39-15.82
					c8.62-6.32,22.58-1.71,23.17-1.51c5.96,2.03,7.94,7.66,7.27,12.35c-0.81,5.58-5.03,9.63-10.26,9.84
					C205.96,521.03,205.85,521.03,205.72,521.03z M201.42,501.4c-2.18,2.24-2.53,7.29-0.77,11.3c0.71,1.62,2.3,4.31,5.27,4.19
					c3.76-0.15,5.89-3.28,6.33-6.31c0.4-2.77-0.54-6.49-4.5-7.84C207.69,502.72,204.99,501.84,201.42,501.4z"></path>
			</g>
		</g>
		<g>
			<g>
				<g>
					<polygon points="334.11,572.93 347.91,572.93 347.91,566.21 334.11,566.21 327.39,566.21 327.39,572.93 
						327.39,586.72 334.11,586.72" class="st3"></polygon>
				</g>
			</g>
			<g>
				<g>
					<polygon points="408.77,566.21 394.98,566.21 394.98,572.93 408.77,572.93 408.77,586.72 415.5,586.72 
						415.5,572.93 415.5,566.21" class="st3"></polygon>
				</g>
			</g>
			<g>
				<g>
					<polygon points="408.77,648.11 394.98,648.11 394.98,654.84 408.77,654.84 415.5,654.84 415.5,648.11 
						415.5,634.32 408.77,634.32" class="st3"></polygon>
				</g>
			</g>
			<g>
				<g>
					<polygon points="334.11,634.32 327.39,634.32 327.39,648.11 327.39,654.84 334.11,654.84 347.91,654.84 
						347.91,648.11 334.11,648.11" class="st3"></polygon>
				</g>
			</g>
			<g>
				<g>
					<rect height="2.62" width="71.68" class="st3" y="609.21" x="335.61"></rect>
				</g>
			</g>
		</g>
		<g>
			<g>
				<path d="M120.49,887.77c-9.86-14.06-38.58-48.09-43.66-59.85c-10.28-72.06,6.51-102.47,4.85-133.72
					c28.83,34.32,149.97,20.55,198.52,9.33C154.57,732.83,80.59,755.4,120.49,887.77z"></path>
			</g>
			<g>
				<path d="M120.49,889.84c-0.66,0-1.29-0.31-1.69-0.88c-3.36-4.79-9.04-12.06-15.05-19.75c-11.89-15.23-25.38-32.5-28.82-40.46
					c-0.07-0.17-0.12-0.35-0.15-0.52c-6.66-46.75-2.04-75.94,1.68-99.41c2.01-12.66,3.74-23.6,3.16-34.49
					c-0.05-0.89,0.48-1.71,1.3-2.03c0.84-0.32,1.78-0.09,2.34,0.59c26.89,32,141.23,21.43,196.48,8.65
					c1.15-0.25,2.23,0.44,2.48,1.55c0.26,1.11-0.43,2.22-1.55,2.48c-80.59,18.79-135.12,34.04-157.79,73.23
					c-14.84,25.65-14.97,60.09-0.41,108.39c0.29,0.97-0.16,2.01-1.07,2.45C121.11,889.78,120.8,889.84,120.49,889.84z M78.84,827.36
					c3.43,7.61,17.14,25.17,28.18,39.3c2.96,3.79,5.84,7.48,8.4,10.82c-11.69-43.85-10.41-76.07,3.89-100.76
					c18.11-31.32,55.1-47.71,108.48-62.3c-52.97,6.25-118.74,6.87-143.92-15.06c-0.07,9.56-1.6,19.21-3.32,30.1
					C76.88,752.6,72.32,781.39,78.84,827.36z"></path>
			</g>
		</g>
		<g>
			<g>
				<path d="M921.31,554.99c45.84-3.95,150.86,21.66,150.86,21.66l34.67,44.16l5.42,46.22c0,0-7.25,45.19,2.87,69.02
					c-163.21,35.49-193.82,36.83-193.82,36.83L909.68,603.9L921.31,554.99z" class="st6"></path>
			</g>
			<g>
				<path d="M921.31,774.63c-0.92,0-1.69-0.71-1.76-1.64l-11.64-168.96c-0.01-0.18,0-0.36,0.04-0.53l11.64-48.92
					c0.18-0.74,0.81-1.28,1.56-1.35c45.65-3.92,147.13,20.65,151.43,21.7c0.38,0.09,0.72,0.31,0.97,0.62l34.67,44.16
					c0.2,0.26,0.32,0.56,0.36,0.88l5.41,46.22c0.02,0.16,0.01,0.32-0.01,0.49c-0.07,0.45-7.06,44.96,2.76,68.05
					c0.21,0.48,0.18,1.03-0.06,1.5s-0.68,0.8-1.19,0.91c-161.5,35.12-192.86,36.82-194.11,36.87
					C921.36,774.63,921.34,774.63,921.31,774.63z M911.45,604.05l11.5,166.92c8.34-0.8,50.14-5.88,189.78-36.21
					c-8.81-23.71-2.85-63.89-2.25-67.78l-5.32-45.48l-33.99-43.29c-8.47-2.03-104.57-24.74-148.44-21.57L911.45,604.05z"></path>
			</g>
		</g>
		<g>
			<g>
				<path d="M967.34,417.22c31.12-0.23,39.88-53.67,83.84-47.27c43.96,6.4,17.92,51.99,52.54,57.99
					c34.62,6,71.42,34.55,58.62,109.55c27.88,58.97-2.97,151.17-39.76,157.57c-36.79,6.4-32.32-20.57-57.14-21.07
					c-24.83-0.5-64.26-14.66-68.4-64.64c-4.14-49.98-69.86-35.23-69.86-35.23L967.34,417.22z" class="st9"></path>
			</g>
			<g>
				<path d="M1112.27,697.79c-14.25,0-20.83-6.33-26.76-12.04c-5.24-5.04-10.18-9.8-20.12-10.01c-29.87-0.6-66.15-18.31-70.12-66.25
					c-0.97-11.75-5.59-20.73-13.71-26.7c-19.66-14.44-53.67-7.03-54.01-6.96c-0.63,0.13-1.23-0.05-1.65-0.49
					c-0.43-0.44-0.59-1.07-0.44-1.66l40.18-156.89c0.2-0.77,0.89-1.32,1.69-1.32c12.94-0.1,22.08-10.28,31.75-21.06
					c12.58-14.02,26.87-29.91,52.36-26.19c24.5,3.56,28.39,19.12,31.83,32.85c3.03,12.09,5.64,22.53,20.75,25.15
					c47.96,8.31,70.42,49.8,60.14,111.03c18.41,39.51,10.72,93.57-6.46,126.69c-9.85,19-22.22,30.67-34.83,32.86
					C1118.92,697.48,1115.41,697.79,1112.27,697.79z M947.86,570.28c11.43,0,25.3,1.96,35.79,9.67c8.98,6.6,14.07,16.44,15.13,29.25
					c3.77,45.61,38.28,62.46,66.68,63.03c11.32,0.23,17,5.7,22.49,10.98c7.28,7,14.15,13.62,34.32,10.11
					c11.49-2,22.97-13.02,32.3-31.02c16.85-32.49,24.38-85.55,6.16-124.07c-0.15-0.33-0.21-0.69-0.14-1.05
					c3.8-22.24,10.89-95.72-57.18-107.51c-17.37-3.01-20.52-15.6-23.57-27.77c-3.47-13.88-6.75-26.99-28.92-30.22
					c-23.64-3.42-36.65,11.05-49.22,25.06c-9.89,11.02-19.24,21.44-32.99,22.19l-39.16,152.92
					C933.18,571.23,939.93,570.28,947.86,570.28z"></path>
			</g>
		</g>
		<g>
			<g>
				<path d="M1102.13,427.51c-23.59-2.43-92.78,38.82-100.76,157.6c-39.57-3.46-39.57-3.46-39.57-3.46
					s9.61-86.51,49.45-129.78c39.83-43.28,75.46-39.78,75.46-39.78L1102.13,427.51z" class="st10"></path>
			</g>
			<g>
				<path d="M1001.37,586.87c-0.05,0-0.1,0-0.15-0.01l-39.57-3.46c-0.47-0.04-0.91-0.27-1.21-0.64
					c-0.3-0.37-0.44-0.84-0.39-1.31c0.09-0.87,10.13-87.58,49.9-130.78c39.98-43.44,75.43-40.49,76.92-40.34
					c0.4,0.04,0.79,0.22,1.07,0.51l15.44,15.42c0.53,0.53,0.67,1.33,0.35,2c-0.32,0.67-1,1.07-1.77,0.99
					c-7.62-0.77-22.7,3.47-40.02,18.06c-19.61,16.53-53.33,56.44-58.81,137.9c-0.03,0.47-0.26,0.91-0.61,1.22
					C1002.2,586.72,1001.79,586.87,1001.37,586.87z M963.77,580.05l35.97,3.14c5.93-81.56,40.03-121.8,59.93-138.57
					c15.34-12.93,29.25-18.1,38.23-18.87l-11.96-11.95c-4.82-0.16-37.49,0.25-73.39,39.25C976.7,491.99,965.43,567.48,963.77,580.05
					z" class="st4"></path>
			</g>
		</g>
		<g>
			<g>
				<ellipse ry="53.86" rx="46.02" cy="600" cx="985.95"></ellipse>
			</g>
			<g>
				<path d="M985.95,655.62c-26.34,0-47.78-24.95-47.78-55.62c0-30.67,21.43-55.62,47.78-55.62s47.77,24.95,47.77,55.62
					C1033.72,630.67,1012.3,655.62,985.95,655.62z M985.95,547.9c-24.4,0-44.26,23.37-44.26,52.1c0,28.73,19.86,52.1,44.26,52.1
					c24.4,0,44.26-23.38,44.26-52.1C1030.21,571.27,1010.35,547.9,985.95,547.9z"></path>
			</g>
		</g>
		<g>
			<g>
				<ellipse ry="53.86" rx="46.02" cy="600" cx="975.1" class="st10"></ellipse>
			</g>
			<g>
				<path d="M975.09,655.62c-26.34,0-47.77-24.95-47.77-55.62c0-30.67,21.43-55.62,47.77-55.62s47.78,24.95,47.78,55.62
					C1022.87,630.67,1001.44,655.62,975.09,655.62z M975.09,547.9c-24.4,0-44.26,23.37-44.26,52.1c0,28.73,19.86,52.1,44.26,52.1
					c24.4,0,44.26-23.38,44.26-52.1C1019.35,571.27,999.5,547.9,975.09,547.9z" class="st4"></path>
			</g>
		</g>
		<g>
			<g>
				<ellipse ry="39.17" rx="33.46" cy="600" cx="975.1" class="st8"></ellipse>
			</g>
			<g>
				<path d="M975.09,640.93c-19.42,0-35.22-18.36-35.22-40.92s15.8-40.93,35.22-40.93c19.42,0,35.22,18.36,35.22,40.93
					S994.52,640.93,975.09,640.93z M975.09,562.6c-17.48,0-31.7,16.78-31.7,37.4c0,20.63,14.22,37.41,31.7,37.41
					c17.48,0,31.7-16.78,31.7-37.41C1006.8,579.38,992.58,562.6,975.09,562.6z" class="st4"></path>
			</g>
		</g>
		<g>
			<g>
				<path d="M976.46,839.23c-50.79-94.19-36.34-242.19-20.55-311.4c15.79-69.21,87.92-180.63,50.06-187.41
					c-19.92-3.57-116.46-71.95-129.14-28.78c-12.68,43.17-129.51,306.93-116.48,542.67C713.04,981.93,600,1198.7,600,1198.7h535.2
					l17.3-484.1c0,0-132.7-16.81-204.15,39.14" class="st11"></path>
			</g>
			<g>
				<path d="M1135.2,1200.46H600c-0.61,0-1.19-0.32-1.5-0.84c-0.32-0.53-0.34-1.18-0.06-1.73c1.13-2.16,113.32-217.74,160.14-343.85
					c-10.91-199.4,69.64-415.55,104.05-507.88c6.14-16.47,10.57-28.37,12.52-35.01c1.91-6.5,5.74-11.03,11.39-13.44
					c20.48-8.74,61.02,12.27,90.61,27.61c12.9,6.69,24.04,12.46,29.14,13.37c4.66,0.84,8.05,3.17,10.07,6.93
					c8.3,15.45-7.84,52.82-26.55,96.1c-12.96,30-26.36,61.03-32.18,86.5c-20.12,88.19-17.39,164.94-7.24,221.78
					c71.88-52.94,201.03-37.3,202.34-37.15c0.9,0.12,1.57,0.9,1.54,1.81l-17.3,484.1
					C1136.93,1199.72,1136.15,1200.46,1135.2,1200.46z M602.9,1196.95h530.6l17.18-480.77c-15.12-1.63-133.41-12.42-199.59,37.7
					c7.28,38.8,17.96,67.92,26.91,84.53c0.46,0.85,0.14,1.93-0.71,2.38c-0.84,0.47-1.93,0.15-2.38-0.71
					c-51.05-94.68-37.05-241.06-20.72-312.63c5.88-25.79,19.35-56.97,32.38-87.12c17.57-40.67,34.17-79.08,26.68-93.04
					c-1.51-2.81-3.99-4.48-7.58-5.13c-5.63-1.01-16.45-6.62-30.14-13.72c-28.97-15.01-68.61-35.58-87.61-27.49
					c-4.7,2.01-7.77,5.67-9.39,11.19c-1.98,6.76-6.44,18.71-12.6,35.25c-34.35,92.18-114.8,308.06-103.81,506.82
					c0.01,0.24-0.02,0.48-0.11,0.71C717.96,973.71,615.78,1172.06,602.9,1196.95z"></path>
			</g>
		</g>
		<g>
			<g id="XMLID_1_">
				<g>
					<g>
						<path d="M1012.26,283.7c7.5-9.21,22.28-16.8,32.55-17.35c6.99-0.4,17.1,2.92,15.85,14.24
							c-1.86,17.1-32.85,27.36-46.68,61.67c-11.57,28.72-31.14,33.15-51.36,37.68c-15.79,0.55-31.94-1.91-49.45-10.51
							c-19.47-9.56-30.78-30.43-28.37-52.01l13.38-122.03c0.96-8.5,8.65-14.69,17.15-13.73c7.9,0.86,13.83,7.65,13.83,15.44
							c0,0.55-0.05,1.11-0.1,1.66l-4.07,37.12c0.91-8.5,8.6-14.69,17.1-13.73c7.95,0.86,13.83,7.65,13.83,15.44
							c0,0.55-0.05,1.11-0.1,1.66c0.91-8.45,8.65-14.64,17.1-13.73c7.9,0.91,13.83,7.65,13.83,15.44c0,0.55-0.05,1.11-0.1,1.71
							l-2.57,23.44l16.75-88.08c1.46-7.34,8-12.42,15.19-12.42c1.01,0,2.06,0.1,3.07,0.3c8.4,1.66,13.83,9.91,12.17,18.26
							L1012.26,283.7z" class="st6"></path>
					</g>
				</g>
				<g>
					<g>
						<path d="M955.82,240.98c-0.05,0-0.11,0-0.16-0.01c-0.97-0.09-1.68-0.94-1.6-1.91c0.04-0.5,0.09-1,0.09-1.5
							c0-7.05-5.27-12.94-12.26-13.69c-3.64-0.4-7.24,0.63-10.1,2.94c-2.87,2.31-4.67,5.58-5.06,9.23c-0.1,0.97-0.9,1.7-1.94,1.56
							c-0.97-0.1-1.67-0.97-1.56-1.94c0.49-4.58,2.74-8.7,6.35-11.6c3.61-2.9,8.12-4.21,12.69-3.69c8.77,0.95,15.4,8.34,15.4,17.19
							c0,0.6-0.05,1.2-0.1,1.81C957.49,240.29,956.72,240.98,955.82,240.98z"></path>
					</g>
					<g>
						<path d="M952.14,274.19c-0.06,0-0.13,0-0.19-0.01c-0.97-0.11-1.67-0.98-1.56-1.94l3.67-33.2c0.49-4.55,2.75-8.65,6.37-11.56
							c3.62-2.9,8.1-4.23,12.67-3.73c8.79,1.01,15.41,8.4,15.41,17.19c0,0.56-0.04,1.11-0.09,1.71l-2.58,23.63
							c-0.1,0.97-0.98,1.66-1.94,1.56c-0.97-0.11-1.67-0.98-1.56-1.94l2.56-23.44c0.04-0.59,0.09-1.06,0.09-1.52
							c0-7-5.28-12.89-12.28-13.69c-3.62-0.39-7.2,0.67-10.08,2.98c-2.88,2.31-4.69,5.58-5.07,9.19l-3.67,33.2
							C953.79,273.52,953.03,274.19,952.14,274.19z"></path>
					</g>
					<g>
						<path d="M993.9,342.2c-0.47,0-0.93-0.19-1.28-0.55c-0.67-0.71-0.63-1.82,0.07-2.49c4.96-4.68,10.35-16.8,11.85-24.51
							l25-130.83c0.72-3.62-0.02-7.3-2.08-10.37c-2.04-3.05-5.13-5.12-8.7-5.83c-0.88-0.17-1.83-0.27-2.73-0.27
							c-6.53,0-12.2,4.63-13.46,11.01l-20.47,107.73c-0.19,0.96-1.08,1.6-2.06,1.4c-0.96-0.18-1.58-1.1-1.4-2.06l20.47-107.75
							c1.6-8.03,8.71-13.86,16.92-13.86c1.13,0,2.31,0.12,3.41,0.34c4.49,0.89,8.39,3.49,10.95,7.32c2.58,3.86,3.51,8.48,2.61,13.01
							l-25,130.82c-1.61,8.26-7.3,21.13-12.89,26.4C994.77,342.04,994.33,342.2,993.9,342.2z"></path>
					</g>
					<g>
						<path d="M921.31,270.82c-0.06,0-0.13,0-0.19-0.01c-0.97-0.11-1.67-0.98-1.56-1.94l3.67-33.2c0.11-0.96,1-1.66,1.94-1.55
							c0.97,0.11,1.67,0.98,1.56,1.94l-3.67,33.2C922.96,270.15,922.2,270.82,921.31,270.82z"></path>
					</g>
					<g>
						<path d="M958.46,381.73c-16.6,0-31.27-3.46-46.07-10.74c-20.05-9.84-31.84-31.46-29.34-53.79l13.38-122.03
							c0.51-4.59,2.79-8.7,6.39-11.6c3.62-2.9,8.12-4.22,12.71-3.69c8.63,0.93,15.4,8.49,15.4,17.19c0,0.56-0.04,1.12-0.1,1.68
							l-4.09,37.29c-0.1,0.97-0.96,1.65-1.94,1.56c-0.97-0.11-1.67-0.98-1.56-1.94l4.07-37.12c0.05-0.56,0.09-1.01,0.09-1.47
							c0-6.93-5.39-12.95-12.27-13.69c-3.62-0.41-7.23,0.63-10.11,2.94c-2.88,2.31-4.69,5.59-5.1,9.24l-13.38,122.03
							c-2.33,20.86,8.68,41.05,27.4,50.24c15.6,7.66,31.04,10.92,48.61,10.33c19.67-4.43,38.55-8.66,49.79-36.57
							c7.65-18.97,20.43-30.72,30.69-40.16c8.43-7.75,15.09-13.87,15.87-21.05c0.39-3.52-0.42-6.37-2.4-8.46
							c-2.98-3.14-7.98-4.03-11.59-3.82c-10.03,0.54-24.35,8.19-31.28,16.71c-0.69,0.69-1.89,0.77-2.57,0.09
							c-0.69-0.69-0.77-1.71-0.08-2.4l0.05-0.05c7.47-9.2,22.64-17.27,33.69-17.87c4.46-0.25,10.54,0.91,14.34,4.92
							c2.69,2.84,3.85,6.74,3.35,11.27c-0.92,8.48-8.01,15-16.99,23.25c-10.01,9.2-22.46,20.65-29.81,38.88
							c-11.93,29.63-32.61,34.26-52.61,38.73C961.46,381.7,959.95,381.73,958.46,381.73z"></path>
					</g>
				</g>
			</g>
		</g>
		<g>
			<g>
				<path d="M962.06,806.44c34.65-23.22,89.61-32,127.26-28.24" class="st11"></path>
			</g>
			<g>
				<path d="M962.06,808.2c-0.56,0-1.12-0.27-1.46-0.78c-0.54-0.81-0.32-1.9,0.48-2.45c35.27-23.63,91.31-32.22,128.42-28.53
					c0.97,0.1,1.67,0.96,1.58,1.93c-0.1,0.96-0.99,1.66-1.93,1.58c-36.49-3.66-91.54,4.77-126.1,27.95
					C962.74,808.11,962.4,808.2,962.06,808.2z"></path>
			</g>
		</g>
		<g>
			<g>
				<path d="M944.45,734.91c20.44,4.09,41.5-11.35,41.5-11.35" class="st6"></path>
			</g>
			<g>
				<path d="M951.67,737.37c-2.5,0-5.04-0.22-7.57-0.73c-0.95-0.19-1.57-1.12-1.38-2.07c0.19-0.95,1.12-1.59,2.07-1.38
					c19.42,3.86,39.91-10.9,40.12-11.05c0.78-0.58,1.89-0.41,2.46,0.38c0.57,0.79,0.4,1.89-0.38,2.46
					C986.21,725.55,969.85,737.37,951.67,737.37z"></path>
			</g>
		</g>
		<g>
			<g>
				<path d="M1148.82,817.64l-2.3,80.32c-16.6-60.56-114.56-86.73-173.99-70.66l-24.2-73.54c12.32-9.66,26.46-17.15,41.4-22.89
					c-16.05,36.42-9.66,57.8,5.58,61.37C1005.53,808.99,1105.25,777.37,1148.82,817.64z"></path>
			</g>
			<g>
				<path d="M1146.52,899.72c-0.79,0-1.49-0.52-1.7-1.29c-7.44-27.17-32.24-49.49-69.82-62.87c-33.61-11.97-72.71-14.48-102.01-6.55
					c-0.91,0.24-1.84-0.26-2.13-1.15l-24.19-73.54c-0.24-0.7,0-1.48,0.58-1.94c11.75-9.21,25.83-17,41.85-23.15
					c0.65-0.26,1.41-0.09,1.91,0.43c0.49,0.52,0.62,1.27,0.33,1.92c-9.5,21.57-11.77,39.39-6.39,50.18
					c2.31,4.63,6.03,7.66,10.76,8.77c0.46,0.11,0.85,0.39,1.1,0.8c3.43,5.63,21.52,4.8,42.49,3.82
					c35.28-1.64,83.57-3.88,110.7,21.21c0.37,0.34,0.58,0.84,0.56,1.34l-2.29,80.32c-0.02,0.87-0.68,1.6-1.55,1.7
					C1146.66,899.72,1146.59,899.72,1146.52,899.72z M1010.01,821.03c52.55,0,115.87,22.41,135.03,67.33l2-69.96
					c-26.18-23.52-73.17-21.33-107.56-19.74c-23.18,1.07-40.12,1.87-45.23-4.88c-5.46-1.47-9.75-5.07-12.43-10.45
					c-5.52-11.06-3.85-28.45,4.66-49.27c-13.65,5.59-25.77,12.41-36.07,20.33l23.29,70.79
					C984.56,822.41,996.96,821.03,1010.01,821.03z"></path>
			</g>
		</g>
		<g>
			<g>
				<path d="M885.59,313.71c0,0-23.45,33.89,8.69,69.31c36.84,40.6,116.32,16.12,116.32-33.62c-3.29,7.78-14.62,25.35-42.94,30.58
					c-12.84,2.37-31.19-1.13-40.5-3.84c-9.56-2.79-23.94-13.9-29.86-18.84C880.91,343.61,885.59,313.71,885.59,313.71z"></path>
			</g>
		</g>
	</g>
</g>
</svg>
